%TF.GenerationSoftware,KiCad,Pcbnew,10.0.6*%
%TF.CreationDate,2026-09-22T15:43:02-04:00*%
%TF.ProjectId,carrier,63617272-6965-4722-9e6b-696361645f70,A*%
%TF.SameCoordinates,Original*%
%TF.FileFunction,Copper,L2,Bot*%
%TF.FilePolarity,Positive*%
%FSLAX46Y46*%
G04 Gerber Fmt 4.6, Leading zero omitted, Abs format (unit mm)*
G04 Created by KiCad (PCBNEW 10.0.6) date 2026-09-22 15:43:02*
%MOMM*%
%LPD*%
G01*
G04 APERTURE LIST*
G04 Aperture macros list*
%AMRoundRect*
0 Rectangle with rounded corners*
0 $1 Rounding radius*
0 $2 $3 $4 $5 $6 $7 $8 $9 X,Y pos of 4 corners*
0 Add a 4 corners polygon primitive as box body*
4,1,4,$2,$3,$4,$5,$6,$7,$8,$9,$2,$3,0*
0 Add four circle primitives for the rounded corners*
1,1,$1+$1,$2,$3*
1,1,$1+$1,$4,$5*
1,1,$1+$1,$6,$7*
1,1,$1+$1,$8,$9*
0 Add four rect primitives between the rounded corners*
20,1,$1+$1,$2,$3,$4,$5,0*
20,1,$1+$1,$4,$5,$6,$7,0*
20,1,$1+$1,$6,$7,$8,$9,0*
20,1,$1+$1,$8,$9,$2,$3,0*%
G04 Aperture macros list end*
%TA.AperFunction,ComponentPad*%
%ADD10RoundRect,0.250000X-0.600000X-0.725000X0.600000X-0.725000X0.600000X0.725000X-0.600000X0.725000X0*%
%TD*%
%TA.AperFunction,ComponentPad*%
%ADD11O,1.700000X1.950000*%
%TD*%
%TA.AperFunction,ComponentPad*%
%ADD12R,2.400000X2.400000*%
%TD*%
%TA.AperFunction,ComponentPad*%
%ADD13C,2.400000*%
%TD*%
%TA.AperFunction,ComponentPad*%
%ADD14R,1.700000X1.700000*%
%TD*%
%TA.AperFunction,ComponentPad*%
%ADD15O,1.700000X1.700000*%
%TD*%
%TA.AperFunction,ViaPad*%
%ADD16C,0.650000*%
%TD*%
%TA.AperFunction,Conductor*%
%ADD17C,0.300000*%
%TD*%
G04 APERTURE END LIST*
D10*
%TO.P,J3,1*%
%TO.N,/+5V_SENSOR*%
X13000000Y-37000000D03*
D11*
%TO.P,J3,2*%
%TO.N,/GND*%
X15500000Y-37000000D03*
%TO.P,J3,3*%
%TO.N,/MQ3_AO*%
X18000000Y-37000000D03*
%TD*%
D12*
%TO.P,S1,1*%
%TO.N,/+5V_SENSOR*%
X30640000Y-52640000D03*
D13*
%TO.P,S1,2*%
X29250000Y-56000000D03*
%TO.P,S1,3*%
X30640000Y-59360000D03*
%TO.P,S1,4*%
%TO.N,/MQ3_AO*%
X37360000Y-59360000D03*
%TO.P,S1,5*%
%TO.N,/GND*%
X38750000Y-56000000D03*
%TO.P,S1,6*%
%TO.N,/MQ3_AO*%
X37360000Y-52640000D03*
%TD*%
D14*
%TO.P,JP1,1*%
%TO.N,/+5V_USB*%
X7000000Y-32000000D03*
D15*
%TO.P,JP1,2*%
%TO.N,/+5V_SENSOR*%
X7000000Y-34540000D03*
%TD*%
D14*
%TO.P,J2,1*%
%TO.N,/+5V_USB*%
X28000000Y-27430000D03*
D15*
%TO.P,J2,2*%
%TO.N,/GND*%
X30540000Y-27430000D03*
%TO.P,J2,3*%
%TO.N,unconnected-(J2-NC-Pad3)*%
X33080000Y-27430000D03*
%TO.P,J2,4*%
%TO.N,unconnected-(J2-NC-Pad4)*%
X35620000Y-27430000D03*
%TO.P,J2,5*%
%TO.N,unconnected-(J2-GPIO13-Pad5)*%
X38160000Y-27430000D03*
%TO.P,J2,6*%
%TO.N,unconnected-(J2-GPIO12-Pad6)*%
X40700000Y-27430000D03*
%TO.P,J2,7*%
%TO.N,unconnected-(J2-GPIO11-Pad7)*%
X43240000Y-27430000D03*
%TO.P,J2,8*%
%TO.N,unconnected-(J2-GPIO10-Pad8)*%
X45780000Y-27430000D03*
%TO.P,J2,9*%
%TO.N,unconnected-(J2-GPIO3-Pad9)*%
X48320000Y-27430000D03*
%TO.P,J2,10*%
%TO.N,unconnected-(J2-GPIO2-Pad10)*%
X50860000Y-27430000D03*
%TO.P,J2,11*%
%TO.N,/ADC_GPIO1*%
X53400000Y-27430000D03*
%TO.P,J2,12*%
%TO.N,/+3V3*%
X55940000Y-27430000D03*
%TD*%
D14*
%TO.P,J1,1*%
%TO.N,unconnected-(J1-3V3-Pad1)*%
X28000000Y-4570000D03*
D15*
%TO.P,J1,2*%
%TO.N,unconnected-(J1-GND-Pad2)*%
X30540000Y-4570000D03*
%TO.P,J1,3*%
%TO.N,unconnected-(J1-GND-Pad3)*%
X33080000Y-4570000D03*
%TO.P,J1,4*%
%TO.N,unconnected-(J1-NC-Pad4)*%
X35620000Y-4570000D03*
%TO.P,J1,5*%
%TO.N,unconnected-(J1-GPIO16-Pad5)*%
X38160000Y-4570000D03*
%TO.P,J1,6*%
%TO.N,unconnected-(J1-GPIO21-Pad6)*%
X40700000Y-4570000D03*
%TO.P,J1,7*%
%TO.N,unconnected-(J1-GPIO17-Pad7)*%
X43240000Y-4570000D03*
%TO.P,J1,8*%
%TO.N,unconnected-(J1-GPIO18-Pad8)*%
X45780000Y-4570000D03*
%TO.P,J1,9*%
%TO.N,unconnected-(J1-GPIO44-Pad9)*%
X48320000Y-4570000D03*
%TO.P,J1,10*%
%TO.N,unconnected-(J1-GPIO43-Pad10)*%
X50860000Y-4570000D03*
%TO.P,J1,11*%
%TO.N,unconnected-(J1-GND-Pad11)*%
X53400000Y-4570000D03*
%TO.P,J1,12*%
%TO.N,unconnected-(J1-GND-Pad12)*%
X55940000Y-4570000D03*
%TD*%
D16*
%TO.N,/+5V_SENSOR*%
X8000000Y-25000000D03*
%TO.N,/GND*%
X37000000Y-40000000D03*
X26000000Y-36500000D03*
X26700000Y-39800000D03*
X53500000Y-47000000D03*
X49500000Y-34050000D03*
X8000000Y-19000000D03*
X57000000Y-58000000D03*
X47700000Y-35200000D03*
%TO.N,/MQ3_AO*%
X15000000Y-59000000D03*
X16000000Y-25000000D03*
%TO.N,/ADC_GPIO1*%
X57000000Y-49000000D03*
X24000000Y-25000000D03*
X39950000Y-31500000D03*
%TO.N,/+3V3*%
X51000000Y-37000000D03*
%TD*%
%TO.N,/+5V_SENSOR*%
D17*
X9000000Y-34539999D02*
X7000000Y-34540000D01*
X9000000Y-26000000D02*
X9000000Y-34539999D01*
X8000000Y-25000000D02*
X9000000Y-26000000D01*
%TO.N,/MQ3_AO*%
X18000000Y-27000000D02*
X18000000Y-37000000D01*
X18000000Y-37000000D02*
X18000000Y-42000000D01*
X40000000Y-59360000D02*
X37360000Y-59360000D01*
X16000000Y-25000000D02*
X18000000Y-27000000D01*
X20000000Y-62000000D02*
X40000000Y-62000000D01*
X18000000Y-42000000D02*
X20000000Y-44000000D01*
X15000000Y-59000000D02*
X20000000Y-59000000D01*
X40000000Y-62000000D02*
X40000000Y-59360000D01*
X20000000Y-44000000D02*
X20000000Y-62000000D01*
%TO.N,/ADC_GPIO1*%
X57000000Y-46500000D02*
X57000000Y-49000000D01*
X42000000Y-31500000D02*
X48000000Y-37500000D01*
X48000000Y-37500000D02*
X57000000Y-46500000D01*
X39950000Y-31500000D02*
X42000000Y-31500000D01*
X25000000Y-30000000D02*
X39950000Y-30000000D01*
X39950000Y-30000000D02*
X39950000Y-31500000D01*
X25000000Y-26000000D02*
X25000000Y-30000000D01*
X24000000Y-25000000D02*
X25000000Y-26000000D01*
%TO.N,/+3V3*%
X56500000Y-36500000D02*
X51000000Y-37000000D01*
X55940000Y-27430000D02*
X56500000Y-28000000D01*
X56500000Y-28000000D02*
X56500000Y-36500000D01*
%TD*%
%TA.AperFunction,Conductor*%
%TO.N,/GND*%
G36*
X56959191Y-518907D02*
G01*
X56995155Y-568407D01*
X57000000Y-599000D01*
X57000000Y-3851991D01*
X56981093Y-3910182D01*
X56931593Y-3946146D01*
X56870407Y-3946146D01*
X56820908Y-3910182D01*
X56779418Y-3853077D01*
X56779416Y-3853075D01*
X56779414Y-3853072D01*
X56656928Y-3730586D01*
X56516788Y-3628768D01*
X56516787Y-3628767D01*
X56516785Y-3628766D01*
X56362441Y-3550125D01*
X56362438Y-3550123D01*
X56197706Y-3496598D01*
X56197702Y-3496597D01*
X56026614Y-3469500D01*
X56026611Y-3469500D01*
X55853389Y-3469500D01*
X55853386Y-3469500D01*
X55682297Y-3496597D01*
X55682293Y-3496598D01*
X55517561Y-3550123D01*
X55517558Y-3550125D01*
X55363214Y-3628766D01*
X55223073Y-3730585D01*
X55100585Y-3853073D01*
X54998766Y-3993214D01*
X54920125Y-4147558D01*
X54920123Y-4147561D01*
X54866598Y-4312293D01*
X54866597Y-4312297D01*
X54839500Y-4483385D01*
X54839500Y-4656614D01*
X54866597Y-4827702D01*
X54866598Y-4827706D01*
X54920123Y-4992438D01*
X54920125Y-4992441D01*
X54920126Y-4992444D01*
X54920127Y-4992445D01*
X54998768Y-5146788D01*
X55100586Y-5286928D01*
X55223072Y-5409414D01*
X55363212Y-5511232D01*
X55517555Y-5589873D01*
X55517557Y-5589873D01*
X55517558Y-5589874D01*
X55517561Y-5589876D01*
X55682293Y-5643401D01*
X55682297Y-5643402D01*
X55853386Y-5670500D01*
X55853389Y-5670500D01*
X56026614Y-5670500D01*
X56197702Y-5643402D01*
X56197706Y-5643401D01*
X56362438Y-5589876D01*
X56362440Y-5589874D01*
X56362445Y-5589873D01*
X56516788Y-5511232D01*
X56656928Y-5409414D01*
X56779414Y-5286928D01*
X56820908Y-5229815D01*
X56870407Y-5193853D01*
X56931593Y-5193853D01*
X56981093Y-5229817D01*
X57000000Y-5288008D01*
X57000000Y-26711991D01*
X56981093Y-26770182D01*
X56931593Y-26806146D01*
X56870407Y-26806146D01*
X56820908Y-26770182D01*
X56779418Y-26713077D01*
X56779416Y-26713075D01*
X56779414Y-26713072D01*
X56656928Y-26590586D01*
X56516788Y-26488768D01*
X56516787Y-26488767D01*
X56516785Y-26488766D01*
X56362441Y-26410125D01*
X56362438Y-26410123D01*
X56197706Y-26356598D01*
X56197702Y-26356597D01*
X56026614Y-26329500D01*
X56026611Y-26329500D01*
X55853389Y-26329500D01*
X55853386Y-26329500D01*
X55682297Y-26356597D01*
X55682293Y-26356598D01*
X55517561Y-26410123D01*
X55517558Y-26410125D01*
X55363214Y-26488766D01*
X55223073Y-26590585D01*
X55100585Y-26713073D01*
X55070784Y-26754091D01*
X54998768Y-26853212D01*
X54959643Y-26930000D01*
X54920125Y-27007558D01*
X54920123Y-27007561D01*
X54866598Y-27172293D01*
X54866597Y-27172297D01*
X54839500Y-27343385D01*
X54839500Y-27516614D01*
X54866597Y-27687702D01*
X54866598Y-27687706D01*
X54920123Y-27852438D01*
X54920125Y-27852441D01*
X54920126Y-27852444D01*
X54920127Y-27852445D01*
X54998768Y-28006788D01*
X55100586Y-28146928D01*
X55223072Y-28269414D01*
X55363212Y-28371232D01*
X55517555Y-28449873D01*
X55517557Y-28449873D01*
X55517558Y-28449874D01*
X55517561Y-28449876D01*
X55682293Y-28503401D01*
X55682297Y-28503402D01*
X55853386Y-28530500D01*
X56000500Y-28530500D01*
X56058691Y-28549407D01*
X56094655Y-28598907D01*
X56099500Y-28629500D01*
X56099500Y-36043849D01*
X56080593Y-36102040D01*
X56031093Y-36138004D01*
X56009463Y-36142442D01*
X51422471Y-36559441D01*
X51362807Y-36545880D01*
X51353467Y-36539543D01*
X51222138Y-36463720D01*
X51222140Y-36463720D01*
X51165347Y-36448503D01*
X51075766Y-36424500D01*
X50924234Y-36424500D01*
X50834652Y-36448503D01*
X50777860Y-36463720D01*
X50646639Y-36539481D01*
X50539481Y-36646639D01*
X50463720Y-36777860D01*
X50447671Y-36837758D01*
X50424500Y-36924234D01*
X50424500Y-37075766D01*
X50453325Y-37183343D01*
X50463720Y-37222139D01*
X50539481Y-37353360D01*
X50539483Y-37353362D01*
X50539485Y-37353365D01*
X50646635Y-37460515D01*
X50646637Y-37460516D01*
X50646639Y-37460518D01*
X50777861Y-37536279D01*
X50777859Y-37536279D01*
X50777863Y-37536280D01*
X50777865Y-37536281D01*
X50924234Y-37575500D01*
X50924236Y-37575500D01*
X51075764Y-37575500D01*
X51075766Y-37575500D01*
X51222135Y-37536281D01*
X51222137Y-37536279D01*
X51222139Y-37536279D01*
X51353365Y-37460515D01*
X51371250Y-37442630D01*
X51427557Y-37386321D01*
X51482071Y-37358544D01*
X51488569Y-37357735D01*
X56513696Y-36900907D01*
X56522659Y-36900500D01*
X56552728Y-36900500D01*
X56557934Y-36899104D01*
X56562262Y-36897944D01*
X56578925Y-36894976D01*
X56588771Y-36894082D01*
X56617008Y-36883694D01*
X56625537Y-36880989D01*
X56654587Y-36873207D01*
X56663138Y-36868269D01*
X56678457Y-36861093D01*
X56687741Y-36857679D01*
X56712330Y-36840335D01*
X56719856Y-36835523D01*
X56745913Y-36820480D01*
X56752905Y-36813486D01*
X56765844Y-36802593D01*
X56773918Y-36796900D01*
X56793173Y-36773793D01*
X56799202Y-36767190D01*
X56820480Y-36745913D01*
X56825419Y-36737355D01*
X56835100Y-36723480D01*
X56841428Y-36715888D01*
X56854049Y-36688578D01*
X56858161Y-36680644D01*
X56873207Y-36654587D01*
X56875763Y-36645042D01*
X56881523Y-36629135D01*
X56885670Y-36620164D01*
X56886166Y-36617297D01*
X56890791Y-36590533D01*
X56892719Y-36581767D01*
X56900499Y-36552729D01*
X56900500Y-36552727D01*
X56900500Y-36542849D01*
X56901946Y-36525988D01*
X56903629Y-36516249D01*
X56903629Y-36516248D01*
X56900907Y-36486307D01*
X56900500Y-36477343D01*
X56900500Y-32099000D01*
X56919407Y-32040809D01*
X56968907Y-32004845D01*
X56999500Y-32000000D01*
X57000000Y-32000000D01*
X67401000Y-32000000D01*
X67459191Y-32018907D01*
X67495155Y-32068407D01*
X67500000Y-32099000D01*
X67500000Y-68034021D01*
X67481093Y-68092212D01*
X67471004Y-68104025D01*
X66104025Y-69471004D01*
X66049508Y-69498781D01*
X66034021Y-69500000D01*
X1965979Y-69500000D01*
X1907788Y-69481093D01*
X1895975Y-69471004D01*
X528996Y-68104025D01*
X501219Y-68049508D01*
X500000Y-68034021D01*
X500000Y-66874034D01*
X1399500Y-66874034D01*
X1399500Y-67125965D01*
X1438908Y-67374780D01*
X1438910Y-67374785D01*
X1516759Y-67614379D01*
X1631130Y-67838845D01*
X1779207Y-68042656D01*
X1957344Y-68220793D01*
X2161155Y-68368870D01*
X2385621Y-68483241D01*
X2625215Y-68561090D01*
X2625216Y-68561090D01*
X2625219Y-68561091D01*
X2874035Y-68600500D01*
X2874038Y-68600500D01*
X3125965Y-68600500D01*
X3374780Y-68561091D01*
X3374781Y-68561090D01*
X3374785Y-68561090D01*
X3614379Y-68483241D01*
X3838845Y-68368870D01*
X4042656Y-68220793D01*
X4220793Y-68042656D01*
X4368870Y-67838845D01*
X4483241Y-67614379D01*
X4561090Y-67374785D01*
X4600500Y-67125962D01*
X4600500Y-66874038D01*
X4600500Y-66874034D01*
X63399500Y-66874034D01*
X63399500Y-67125965D01*
X63438908Y-67374780D01*
X63438910Y-67374785D01*
X63516759Y-67614379D01*
X63631130Y-67838845D01*
X63779207Y-68042656D01*
X63957344Y-68220793D01*
X64161155Y-68368870D01*
X64385621Y-68483241D01*
X64625215Y-68561090D01*
X64625216Y-68561090D01*
X64625219Y-68561091D01*
X64874035Y-68600500D01*
X64874038Y-68600500D01*
X65125965Y-68600500D01*
X65374780Y-68561091D01*
X65374781Y-68561090D01*
X65374785Y-68561090D01*
X65614379Y-68483241D01*
X65838845Y-68368870D01*
X66042656Y-68220793D01*
X66220793Y-68042656D01*
X66368870Y-67838845D01*
X66483241Y-67614379D01*
X66561090Y-67374785D01*
X66600500Y-67125962D01*
X66600500Y-66874038D01*
X66600500Y-66874034D01*
X66561091Y-66625219D01*
X66561090Y-66625215D01*
X66483241Y-66385621D01*
X66368870Y-66161155D01*
X66220793Y-65957344D01*
X66042656Y-65779207D01*
X65838845Y-65631130D01*
X65838844Y-65631129D01*
X65838842Y-65631128D01*
X65614379Y-65516759D01*
X65374780Y-65438908D01*
X65125965Y-65399500D01*
X65125962Y-65399500D01*
X64874038Y-65399500D01*
X64874035Y-65399500D01*
X64625219Y-65438908D01*
X64385620Y-65516759D01*
X64161157Y-65631128D01*
X63957345Y-65779206D01*
X63779206Y-65957345D01*
X63631128Y-66161157D01*
X63516759Y-66385620D01*
X63438908Y-66625219D01*
X63399500Y-66874034D01*
X4600500Y-66874034D01*
X4561091Y-66625219D01*
X4561090Y-66625215D01*
X4483241Y-66385621D01*
X4368870Y-66161155D01*
X4220793Y-65957344D01*
X4042656Y-65779207D01*
X3838845Y-65631130D01*
X3838844Y-65631129D01*
X3838842Y-65631128D01*
X3614379Y-65516759D01*
X3374780Y-65438908D01*
X3125965Y-65399500D01*
X3125962Y-65399500D01*
X2874038Y-65399500D01*
X2874035Y-65399500D01*
X2625219Y-65438908D01*
X2385620Y-65516759D01*
X2161157Y-65631128D01*
X1957345Y-65779206D01*
X1779206Y-65957345D01*
X1631128Y-66161157D01*
X1516759Y-66385620D01*
X1438908Y-66625219D01*
X1399500Y-66874034D01*
X500000Y-66874034D01*
X500000Y-58924234D01*
X14424500Y-58924234D01*
X14424500Y-59075766D01*
X14459086Y-59204847D01*
X14463720Y-59222139D01*
X14539481Y-59353360D01*
X14539483Y-59353362D01*
X14539485Y-59353365D01*
X14646635Y-59460515D01*
X14646637Y-59460516D01*
X14646639Y-59460518D01*
X14777861Y-59536279D01*
X14777859Y-59536279D01*
X14777863Y-59536280D01*
X14777865Y-59536281D01*
X14924234Y-59575500D01*
X14924236Y-59575500D01*
X15075764Y-59575500D01*
X15075766Y-59575500D01*
X15222135Y-59536281D01*
X15222137Y-59536279D01*
X15222139Y-59536279D01*
X15353360Y-59460518D01*
X15353360Y-59460517D01*
X15353365Y-59460515D01*
X15384385Y-59429495D01*
X15438902Y-59401719D01*
X15454388Y-59400500D01*
X19500500Y-59400500D01*
X19558691Y-59419407D01*
X19594655Y-59468907D01*
X19599500Y-59499500D01*
X19599500Y-62052727D01*
X19626793Y-62154587D01*
X19626794Y-62154589D01*
X19626794Y-62154590D01*
X19679518Y-62245910D01*
X19679520Y-62245913D01*
X19754087Y-62320480D01*
X19845413Y-62373207D01*
X19947273Y-62400500D01*
X19947275Y-62400500D01*
X40052725Y-62400500D01*
X40052727Y-62400500D01*
X40154587Y-62373207D01*
X40245913Y-62320480D01*
X40320480Y-62245913D01*
X40373207Y-62154587D01*
X40400500Y-62052727D01*
X40400500Y-59307273D01*
X40373207Y-59205413D01*
X40320480Y-59114087D01*
X40245913Y-59039520D01*
X40212699Y-59020344D01*
X40154589Y-58986794D01*
X40154588Y-58986793D01*
X40154587Y-58986793D01*
X40052727Y-58959500D01*
X40052725Y-58959500D01*
X38826944Y-58959500D01*
X38768753Y-58940593D01*
X38732789Y-58891093D01*
X38704231Y-58803201D01*
X38600579Y-58599772D01*
X38600575Y-58599766D01*
X38466383Y-58415068D01*
X38466381Y-58415066D01*
X38466379Y-58415063D01*
X38304937Y-58253621D01*
X38304933Y-58253618D01*
X38304931Y-58253616D01*
X38120233Y-58119424D01*
X38120227Y-58119420D01*
X37916799Y-58015769D01*
X37699655Y-57945214D01*
X37474160Y-57909500D01*
X37474157Y-57909500D01*
X37245843Y-57909500D01*
X37245840Y-57909500D01*
X37020344Y-57945214D01*
X36803200Y-58015769D01*
X36599772Y-58119420D01*
X36599766Y-58119424D01*
X36415068Y-58253616D01*
X36253616Y-58415068D01*
X36119424Y-58599766D01*
X36119420Y-58599772D01*
X36015769Y-58803200D01*
X35945214Y-59020344D01*
X35909500Y-59245839D01*
X35909500Y-59474160D01*
X35945214Y-59699655D01*
X36015769Y-59916799D01*
X36119420Y-60120227D01*
X36119424Y-60120233D01*
X36253616Y-60304931D01*
X36253618Y-60304933D01*
X36253621Y-60304937D01*
X36415063Y-60466379D01*
X36415066Y-60466381D01*
X36415068Y-60466383D01*
X36599766Y-60600575D01*
X36599772Y-60600579D01*
X36803201Y-60704231D01*
X37020340Y-60774784D01*
X37020341Y-60774784D01*
X37020344Y-60774785D01*
X37245840Y-60810500D01*
X37245843Y-60810500D01*
X37474160Y-60810500D01*
X37699655Y-60774785D01*
X37699656Y-60774784D01*
X37699660Y-60774784D01*
X37916799Y-60704231D01*
X38120228Y-60600579D01*
X38304937Y-60466379D01*
X38466379Y-60304937D01*
X38600579Y-60120228D01*
X38704231Y-59916799D01*
X38732789Y-59828906D01*
X38768753Y-59779407D01*
X38826944Y-59760500D01*
X39500500Y-59760500D01*
X39558691Y-59779407D01*
X39594655Y-59828907D01*
X39599500Y-59859500D01*
X39599500Y-61500500D01*
X39580593Y-61558691D01*
X39531093Y-61594655D01*
X39500500Y-61599500D01*
X20499500Y-61599500D01*
X20441309Y-61580593D01*
X20405345Y-61531093D01*
X20400500Y-61500500D01*
X20400500Y-59245839D01*
X29189500Y-59245839D01*
X29189500Y-59474160D01*
X29225214Y-59699655D01*
X29295769Y-59916799D01*
X29399420Y-60120227D01*
X29399424Y-60120233D01*
X29533616Y-60304931D01*
X29533618Y-60304933D01*
X29533621Y-60304937D01*
X29695063Y-60466379D01*
X29695066Y-60466381D01*
X29695068Y-60466383D01*
X29879766Y-60600575D01*
X29879772Y-60600579D01*
X30083201Y-60704231D01*
X30300340Y-60774784D01*
X30300341Y-60774784D01*
X30300344Y-60774785D01*
X30525840Y-60810500D01*
X30525843Y-60810500D01*
X30754160Y-60810500D01*
X30979655Y-60774785D01*
X30979656Y-60774784D01*
X30979660Y-60774784D01*
X31196799Y-60704231D01*
X31400228Y-60600579D01*
X31584937Y-60466379D01*
X31746379Y-60304937D01*
X31880579Y-60120228D01*
X31984231Y-59916799D01*
X32054784Y-59699660D01*
X32080661Y-59536279D01*
X32090500Y-59474160D01*
X32090500Y-59245839D01*
X32054785Y-59020344D01*
X32043884Y-58986793D01*
X31984231Y-58803201D01*
X31880579Y-58599772D01*
X31880575Y-58599766D01*
X31746383Y-58415068D01*
X31746381Y-58415066D01*
X31746379Y-58415063D01*
X31584937Y-58253621D01*
X31584933Y-58253618D01*
X31584931Y-58253616D01*
X31400233Y-58119424D01*
X31400227Y-58119420D01*
X31196799Y-58015769D01*
X30979655Y-57945214D01*
X30754160Y-57909500D01*
X30754157Y-57909500D01*
X30525843Y-57909500D01*
X30525840Y-57909500D01*
X30300344Y-57945214D01*
X30083200Y-58015769D01*
X29879772Y-58119420D01*
X29879766Y-58119424D01*
X29695068Y-58253616D01*
X29533616Y-58415068D01*
X29399424Y-58599766D01*
X29399420Y-58599772D01*
X29295769Y-58803200D01*
X29225214Y-59020344D01*
X29189500Y-59245839D01*
X20400500Y-59245839D01*
X20400500Y-55885838D01*
X27799500Y-55885838D01*
X27799500Y-56114160D01*
X27835214Y-56339655D01*
X27905769Y-56556799D01*
X28009420Y-56760227D01*
X28009424Y-56760233D01*
X28143616Y-56944931D01*
X28143618Y-56944933D01*
X28143621Y-56944937D01*
X28305063Y-57106379D01*
X28305066Y-57106381D01*
X28305068Y-57106383D01*
X28403673Y-57178024D01*
X28489772Y-57240579D01*
X28693201Y-57344231D01*
X28910340Y-57414784D01*
X28910341Y-57414784D01*
X28910344Y-57414785D01*
X29135840Y-57450500D01*
X29135843Y-57450500D01*
X29364160Y-57450500D01*
X29589655Y-57414785D01*
X29589656Y-57414784D01*
X29589660Y-57414784D01*
X29806799Y-57344231D01*
X30010228Y-57240579D01*
X30194937Y-57106379D01*
X30356379Y-56944937D01*
X30490579Y-56760228D01*
X30594231Y-56556799D01*
X30664784Y-56339660D01*
X30679383Y-56247487D01*
X30700500Y-56114160D01*
X30700500Y-55885839D01*
X30699883Y-55881943D01*
X37250000Y-55881943D01*
X37250000Y-56118056D01*
X37286934Y-56351252D01*
X37286935Y-56351256D01*
X37359892Y-56575793D01*
X37359894Y-56575796D01*
X37467083Y-56786168D01*
X37571974Y-56930537D01*
X38220182Y-56282328D01*
X38269881Y-56368408D01*
X38381592Y-56480119D01*
X38467669Y-56529816D01*
X37819461Y-57178024D01*
X37819461Y-57178025D01*
X37963823Y-57282911D01*
X37963829Y-57282915D01*
X38174203Y-57390105D01*
X38174206Y-57390107D01*
X38398743Y-57463064D01*
X38398747Y-57463065D01*
X38631944Y-57500000D01*
X38868056Y-57500000D01*
X39101252Y-57463065D01*
X39101256Y-57463064D01*
X39325793Y-57390107D01*
X39325796Y-57390105D01*
X39536170Y-57282915D01*
X39536176Y-57282911D01*
X39680537Y-57178025D01*
X39680537Y-57178024D01*
X39032329Y-56529816D01*
X39118408Y-56480119D01*
X39230119Y-56368408D01*
X39279816Y-56282329D01*
X39928024Y-56930537D01*
X39928025Y-56930537D01*
X40032911Y-56786176D01*
X40032915Y-56786170D01*
X40140105Y-56575796D01*
X40140107Y-56575793D01*
X40213064Y-56351256D01*
X40213065Y-56351252D01*
X40250000Y-56118056D01*
X40250000Y-55881943D01*
X40213065Y-55648747D01*
X40213064Y-55648743D01*
X40140107Y-55424206D01*
X40140105Y-55424203D01*
X40032915Y-55213829D01*
X40032911Y-55213823D01*
X39928025Y-55069461D01*
X39928024Y-55069461D01*
X39279816Y-55717669D01*
X39230119Y-55631592D01*
X39118408Y-55519881D01*
X39032328Y-55470182D01*
X39680537Y-54821974D01*
X39536168Y-54717083D01*
X39325796Y-54609894D01*
X39325793Y-54609892D01*
X39101256Y-54536935D01*
X39101252Y-54536934D01*
X38868056Y-54500000D01*
X38631944Y-54500000D01*
X38398747Y-54536934D01*
X38398743Y-54536935D01*
X38174206Y-54609892D01*
X38174203Y-54609894D01*
X37963829Y-54717084D01*
X37963825Y-54717086D01*
X37819461Y-54821973D01*
X38467671Y-55470182D01*
X38381592Y-55519881D01*
X38269881Y-55631592D01*
X38220182Y-55717671D01*
X37571973Y-55069461D01*
X37467086Y-55213825D01*
X37467084Y-55213829D01*
X37359894Y-55424203D01*
X37359892Y-55424206D01*
X37286935Y-55648743D01*
X37286934Y-55648747D01*
X37250000Y-55881943D01*
X30699883Y-55881943D01*
X30664785Y-55660344D01*
X30655443Y-55631592D01*
X30594231Y-55443201D01*
X30490579Y-55239772D01*
X30490575Y-55239766D01*
X30356383Y-55055068D01*
X30356381Y-55055066D01*
X30356379Y-55055063D01*
X30194937Y-54893621D01*
X30194933Y-54893618D01*
X30194931Y-54893616D01*
X30010233Y-54759424D01*
X30010227Y-54759420D01*
X29806799Y-54655769D01*
X29589655Y-54585214D01*
X29364160Y-54549500D01*
X29364157Y-54549500D01*
X29135843Y-54549500D01*
X29135840Y-54549500D01*
X28910344Y-54585214D01*
X28693200Y-54655769D01*
X28489772Y-54759420D01*
X28489766Y-54759424D01*
X28305068Y-54893616D01*
X28143616Y-55055068D01*
X28009424Y-55239766D01*
X28009420Y-55239772D01*
X27905769Y-55443200D01*
X27835214Y-55660344D01*
X27799501Y-55885832D01*
X27799500Y-55885838D01*
X20400500Y-55885838D01*
X20400500Y-51415327D01*
X29189500Y-51415327D01*
X29189500Y-53864672D01*
X29189501Y-53864684D01*
X29204033Y-53937736D01*
X29204035Y-53937742D01*
X29259397Y-54020599D01*
X29259399Y-54020601D01*
X29342260Y-54075966D01*
X29397808Y-54087015D01*
X29415315Y-54090498D01*
X29415320Y-54090498D01*
X29415326Y-54090500D01*
X29415327Y-54090500D01*
X31864673Y-54090500D01*
X31864674Y-54090500D01*
X31937740Y-54075966D01*
X32020601Y-54020601D01*
X32075966Y-53937740D01*
X32090500Y-53864674D01*
X32090500Y-52525839D01*
X35909500Y-52525839D01*
X35909500Y-52754160D01*
X35945214Y-52979655D01*
X36015769Y-53196799D01*
X36119420Y-53400227D01*
X36119424Y-53400233D01*
X36253616Y-53584931D01*
X36253618Y-53584933D01*
X36253621Y-53584937D01*
X36415063Y-53746379D01*
X36415066Y-53746381D01*
X36415068Y-53746383D01*
X36599766Y-53880575D01*
X36599772Y-53880579D01*
X36803201Y-53984231D01*
X37020340Y-54054784D01*
X37020341Y-54054784D01*
X37020344Y-54054785D01*
X37245840Y-54090500D01*
X37245843Y-54090500D01*
X37474160Y-54090500D01*
X37699655Y-54054785D01*
X37699656Y-54054784D01*
X37699660Y-54054784D01*
X37916799Y-53984231D01*
X38120228Y-53880579D01*
X38304937Y-53746379D01*
X38466379Y-53584937D01*
X38600579Y-53400228D01*
X38704231Y-53196799D01*
X38774784Y-52979660D01*
X38810500Y-52754157D01*
X38810500Y-52525843D01*
X38810500Y-52525839D01*
X38774785Y-52300344D01*
X38774784Y-52300340D01*
X38704231Y-52083201D01*
X38600579Y-51879772D01*
X38466379Y-51695063D01*
X38304937Y-51533621D01*
X38304933Y-51533618D01*
X38304931Y-51533616D01*
X38120233Y-51399424D01*
X38120227Y-51399420D01*
X37916799Y-51295769D01*
X37699655Y-51225214D01*
X37474160Y-51189500D01*
X37474157Y-51189500D01*
X37245843Y-51189500D01*
X37245840Y-51189500D01*
X37020344Y-51225214D01*
X36803200Y-51295769D01*
X36599772Y-51399420D01*
X36599766Y-51399424D01*
X36415068Y-51533616D01*
X36253616Y-51695068D01*
X36119424Y-51879766D01*
X36119420Y-51879772D01*
X36015769Y-52083200D01*
X35945214Y-52300344D01*
X35909500Y-52525839D01*
X32090500Y-52525839D01*
X32090500Y-51415326D01*
X32075966Y-51342260D01*
X32020601Y-51259399D01*
X32020599Y-51259397D01*
X31937742Y-51204035D01*
X31937740Y-51204034D01*
X31937737Y-51204033D01*
X31937736Y-51204033D01*
X31864684Y-51189501D01*
X31864674Y-51189500D01*
X29415326Y-51189500D01*
X29415325Y-51189500D01*
X29415315Y-51189501D01*
X29342263Y-51204033D01*
X29342257Y-51204035D01*
X29259400Y-51259397D01*
X29259397Y-51259400D01*
X29204035Y-51342257D01*
X29204033Y-51342263D01*
X29189501Y-51415315D01*
X29189500Y-51415327D01*
X20400500Y-51415327D01*
X20400500Y-43947274D01*
X20400500Y-43947273D01*
X20373207Y-43845413D01*
X20373207Y-43845412D01*
X20373207Y-43845411D01*
X20320483Y-43754091D01*
X20320482Y-43754090D01*
X20320481Y-43754089D01*
X20320480Y-43754087D01*
X18429496Y-41863103D01*
X18401719Y-41808586D01*
X18400500Y-41793099D01*
X18400500Y-38216722D01*
X18419407Y-38158531D01*
X18454554Y-38128512D01*
X18576788Y-38066232D01*
X18716928Y-37964414D01*
X18839414Y-37841928D01*
X18941232Y-37701788D01*
X19019873Y-37547445D01*
X19019874Y-37547440D01*
X19019876Y-37547438D01*
X19073401Y-37382706D01*
X19073402Y-37382702D01*
X19100500Y-37211614D01*
X19100500Y-36788385D01*
X19073402Y-36617297D01*
X19073401Y-36617293D01*
X19019876Y-36452561D01*
X19019874Y-36452558D01*
X19019873Y-36452557D01*
X19019873Y-36452555D01*
X18941232Y-36298212D01*
X18839414Y-36158072D01*
X18716928Y-36035586D01*
X18653430Y-35989451D01*
X18576786Y-35933766D01*
X18481744Y-35885341D01*
X18454554Y-35871487D01*
X18411291Y-35828224D01*
X18400500Y-35783278D01*
X18400500Y-26947274D01*
X18400500Y-26947273D01*
X18375297Y-26853212D01*
X18373207Y-26845412D01*
X18373206Y-26845411D01*
X18373206Y-26845409D01*
X18373205Y-26845408D01*
X18320483Y-26754091D01*
X18320482Y-26754090D01*
X18320481Y-26754089D01*
X18320480Y-26754087D01*
X16604496Y-25038103D01*
X16600869Y-25030985D01*
X16594407Y-25026290D01*
X16587243Y-25004241D01*
X16576719Y-24983586D01*
X16575500Y-24968099D01*
X16575500Y-24924235D01*
X16575500Y-24924234D01*
X23424500Y-24924234D01*
X23424500Y-25075766D01*
X23459086Y-25204847D01*
X23463720Y-25222139D01*
X23539481Y-25353360D01*
X23539483Y-25353362D01*
X23539485Y-25353365D01*
X23646635Y-25460515D01*
X23646637Y-25460516D01*
X23646639Y-25460518D01*
X23777861Y-25536279D01*
X23777859Y-25536279D01*
X23777863Y-25536280D01*
X23777865Y-25536281D01*
X23924234Y-25575500D01*
X23968099Y-25575500D01*
X24026290Y-25594407D01*
X24038103Y-25604496D01*
X24570504Y-26136896D01*
X24598281Y-26191413D01*
X24599500Y-26206900D01*
X24599500Y-30052727D01*
X24626793Y-30154587D01*
X24626794Y-30154589D01*
X24626794Y-30154590D01*
X24679518Y-30245910D01*
X24679520Y-30245913D01*
X24754087Y-30320480D01*
X24845413Y-30373207D01*
X24947273Y-30400500D01*
X25052727Y-30400500D01*
X39450500Y-30400500D01*
X39508691Y-30419407D01*
X39544655Y-30468907D01*
X39549500Y-30499500D01*
X39549500Y-31045612D01*
X39530593Y-31103803D01*
X39520505Y-31115615D01*
X39489481Y-31146639D01*
X39413720Y-31277860D01*
X39413719Y-31277865D01*
X39374500Y-31424234D01*
X39374500Y-31575766D01*
X39409086Y-31704847D01*
X39413720Y-31722139D01*
X39489481Y-31853360D01*
X39489483Y-31853362D01*
X39489485Y-31853365D01*
X39596635Y-31960515D01*
X39596637Y-31960516D01*
X39596639Y-31960518D01*
X39727861Y-32036279D01*
X39727859Y-32036279D01*
X39727863Y-32036280D01*
X39727865Y-32036281D01*
X39874234Y-32075500D01*
X39874236Y-32075500D01*
X40025764Y-32075500D01*
X40025766Y-32075500D01*
X40172135Y-32036281D01*
X40172137Y-32036279D01*
X40172139Y-32036279D01*
X40303360Y-31960518D01*
X40303360Y-31960517D01*
X40303365Y-31960515D01*
X40334385Y-31929495D01*
X40388902Y-31901719D01*
X40404388Y-31900500D01*
X41793099Y-31900500D01*
X41851290Y-31919407D01*
X41863103Y-31929496D01*
X56570504Y-46636897D01*
X56598281Y-46691414D01*
X56599500Y-46706901D01*
X56599500Y-48545612D01*
X56580593Y-48603803D01*
X56570505Y-48615615D01*
X56539481Y-48646639D01*
X56463720Y-48777860D01*
X56463719Y-48777865D01*
X56424500Y-48924234D01*
X56424500Y-49075766D01*
X56459086Y-49204847D01*
X56463720Y-49222139D01*
X56539481Y-49353360D01*
X56539483Y-49353362D01*
X56539485Y-49353365D01*
X56646635Y-49460515D01*
X56646637Y-49460516D01*
X56646639Y-49460518D01*
X56777861Y-49536279D01*
X56777859Y-49536279D01*
X56777863Y-49536280D01*
X56777865Y-49536281D01*
X56924234Y-49575500D01*
X56924236Y-49575500D01*
X57075764Y-49575500D01*
X57075766Y-49575500D01*
X57222135Y-49536281D01*
X57222137Y-49536279D01*
X57222139Y-49536279D01*
X57353360Y-49460518D01*
X57353360Y-49460517D01*
X57353365Y-49460515D01*
X57460515Y-49353365D01*
X57536281Y-49222135D01*
X57575500Y-49075766D01*
X57575500Y-48924234D01*
X57536281Y-48777865D01*
X57536279Y-48777862D01*
X57536279Y-48777860D01*
X57460518Y-48646639D01*
X57460517Y-48646638D01*
X57460516Y-48646637D01*
X57460515Y-48646635D01*
X57429495Y-48615615D01*
X57401719Y-48561098D01*
X57400500Y-48545612D01*
X57400500Y-46447274D01*
X57400500Y-46447273D01*
X57373207Y-46345413D01*
X57373207Y-46345412D01*
X57373207Y-46345411D01*
X57320483Y-46254091D01*
X57320482Y-46254090D01*
X57320481Y-46254089D01*
X57320480Y-46254087D01*
X48245913Y-37179520D01*
X42245913Y-31179520D01*
X42245910Y-31179518D01*
X42245909Y-31179517D01*
X42245908Y-31179516D01*
X42154591Y-31126794D01*
X42154593Y-31126794D01*
X42112870Y-31115615D01*
X42052727Y-31099500D01*
X42052725Y-31099500D01*
X40449500Y-31099500D01*
X40391309Y-31080593D01*
X40355345Y-31031093D01*
X40350500Y-31000500D01*
X40350500Y-29947274D01*
X40350500Y-29947273D01*
X40323207Y-29845413D01*
X40270480Y-29754087D01*
X40195913Y-29679520D01*
X40104587Y-29626793D01*
X40002727Y-29599500D01*
X40002725Y-29599500D01*
X25499500Y-29599500D01*
X25441309Y-29580593D01*
X25405345Y-29531093D01*
X25400500Y-29500500D01*
X25400500Y-26555327D01*
X26899500Y-26555327D01*
X26899500Y-28304672D01*
X26899501Y-28304684D01*
X26914033Y-28377736D01*
X26914035Y-28377742D01*
X26969397Y-28460599D01*
X26969400Y-28460602D01*
X27033455Y-28503401D01*
X27052260Y-28515966D01*
X27107808Y-28527015D01*
X27125315Y-28530498D01*
X27125320Y-28530498D01*
X27125326Y-28530500D01*
X27125327Y-28530500D01*
X28874673Y-28530500D01*
X28874674Y-28530500D01*
X28947740Y-28515966D01*
X29030601Y-28460601D01*
X29085966Y-28377740D01*
X29100500Y-28304674D01*
X29100500Y-27254999D01*
X29403381Y-27254999D01*
X29403382Y-27255000D01*
X30069254Y-27255000D01*
X30040000Y-27364174D01*
X30040000Y-27495826D01*
X30069254Y-27605000D01*
X29403381Y-27605000D01*
X29418316Y-27699289D01*
X29474250Y-27871440D01*
X29556431Y-28032730D01*
X29556433Y-28032734D01*
X29662824Y-28179169D01*
X29790830Y-28307175D01*
X29937265Y-28413566D01*
X29937269Y-28413568D01*
X30098559Y-28495749D01*
X30270710Y-28551683D01*
X30270707Y-28551683D01*
X30365000Y-28566617D01*
X30365000Y-27900746D01*
X30474174Y-27930000D01*
X30605826Y-27930000D01*
X30715000Y-27900746D01*
X30715000Y-28566616D01*
X30809290Y-28551683D01*
X30981440Y-28495749D01*
X31142730Y-28413568D01*
X31142734Y-28413566D01*
X31289169Y-28307175D01*
X31417175Y-28179169D01*
X31523566Y-28032734D01*
X31523568Y-28032730D01*
X31605749Y-27871440D01*
X31661683Y-27699289D01*
X31676618Y-27605000D01*
X31010746Y-27605000D01*
X31040000Y-27495826D01*
X31040000Y-27364174D01*
X31034429Y-27343385D01*
X31979500Y-27343385D01*
X31979500Y-27516614D01*
X32006597Y-27687702D01*
X32006598Y-27687706D01*
X32060123Y-27852438D01*
X32060125Y-27852441D01*
X32060126Y-27852444D01*
X32060127Y-27852445D01*
X32138768Y-28006788D01*
X32240586Y-28146928D01*
X32363072Y-28269414D01*
X32503212Y-28371232D01*
X32657555Y-28449873D01*
X32657557Y-28449873D01*
X32657558Y-28449874D01*
X32657561Y-28449876D01*
X32822293Y-28503401D01*
X32822297Y-28503402D01*
X32993386Y-28530500D01*
X32993389Y-28530500D01*
X33166614Y-28530500D01*
X33337702Y-28503402D01*
X33337706Y-28503401D01*
X33502438Y-28449876D01*
X33502440Y-28449874D01*
X33502445Y-28449873D01*
X33656788Y-28371232D01*
X33796928Y-28269414D01*
X33919414Y-28146928D01*
X34021232Y-28006788D01*
X34099873Y-27852445D01*
X34099874Y-27852440D01*
X34099876Y-27852438D01*
X34153401Y-27687706D01*
X34153402Y-27687702D01*
X34180500Y-27516614D01*
X34180500Y-27343385D01*
X34519500Y-27343385D01*
X34519500Y-27516614D01*
X34546597Y-27687702D01*
X34546598Y-27687706D01*
X34600123Y-27852438D01*
X34600125Y-27852441D01*
X34600126Y-27852444D01*
X34600127Y-27852445D01*
X34678768Y-28006788D01*
X34780586Y-28146928D01*
X34903072Y-28269414D01*
X35043212Y-28371232D01*
X35197555Y-28449873D01*
X35197557Y-28449873D01*
X35197558Y-28449874D01*
X35197561Y-28449876D01*
X35362293Y-28503401D01*
X35362297Y-28503402D01*
X35533386Y-28530500D01*
X35533389Y-28530500D01*
X35706614Y-28530500D01*
X35877702Y-28503402D01*
X35877706Y-28503401D01*
X36042438Y-28449876D01*
X36042440Y-28449874D01*
X36042445Y-28449873D01*
X36196788Y-28371232D01*
X36336928Y-28269414D01*
X36459414Y-28146928D01*
X36561232Y-28006788D01*
X36639873Y-27852445D01*
X36639874Y-27852440D01*
X36639876Y-27852438D01*
X36693401Y-27687706D01*
X36693402Y-27687702D01*
X36720500Y-27516614D01*
X36720500Y-27343385D01*
X37059500Y-27343385D01*
X37059500Y-27516614D01*
X37086597Y-27687702D01*
X37086598Y-27687706D01*
X37140123Y-27852438D01*
X37140125Y-27852441D01*
X37140126Y-27852444D01*
X37140127Y-27852445D01*
X37218768Y-28006788D01*
X37320586Y-28146928D01*
X37443072Y-28269414D01*
X37583212Y-28371232D01*
X37737555Y-28449873D01*
X37737557Y-28449873D01*
X37737558Y-28449874D01*
X37737561Y-28449876D01*
X37902293Y-28503401D01*
X37902297Y-28503402D01*
X38073386Y-28530500D01*
X38073389Y-28530500D01*
X38246614Y-28530500D01*
X38417702Y-28503402D01*
X38417706Y-28503401D01*
X38582438Y-28449876D01*
X38582440Y-28449874D01*
X38582445Y-28449873D01*
X38736788Y-28371232D01*
X38876928Y-28269414D01*
X38999414Y-28146928D01*
X39101232Y-28006788D01*
X39179873Y-27852445D01*
X39179874Y-27852440D01*
X39179876Y-27852438D01*
X39233401Y-27687706D01*
X39233402Y-27687702D01*
X39260500Y-27516614D01*
X39260500Y-27343385D01*
X39599500Y-27343385D01*
X39599500Y-27516614D01*
X39626597Y-27687702D01*
X39626598Y-27687706D01*
X39680123Y-27852438D01*
X39680125Y-27852441D01*
X39680126Y-27852444D01*
X39680127Y-27852445D01*
X39758768Y-28006788D01*
X39860586Y-28146928D01*
X39983072Y-28269414D01*
X40123212Y-28371232D01*
X40277555Y-28449873D01*
X40277557Y-28449873D01*
X40277558Y-28449874D01*
X40277561Y-28449876D01*
X40442293Y-28503401D01*
X40442297Y-28503402D01*
X40613386Y-28530500D01*
X40613389Y-28530500D01*
X40786614Y-28530500D01*
X40957702Y-28503402D01*
X40957706Y-28503401D01*
X41122438Y-28449876D01*
X41122440Y-28449874D01*
X41122445Y-28449873D01*
X41276788Y-28371232D01*
X41416928Y-28269414D01*
X41539414Y-28146928D01*
X41641232Y-28006788D01*
X41719873Y-27852445D01*
X41719874Y-27852440D01*
X41719876Y-27852438D01*
X41773401Y-27687706D01*
X41773402Y-27687702D01*
X41800500Y-27516614D01*
X41800500Y-27343385D01*
X42139500Y-27343385D01*
X42139500Y-27516614D01*
X42166597Y-27687702D01*
X42166598Y-27687706D01*
X42220123Y-27852438D01*
X42220125Y-27852441D01*
X42220126Y-27852444D01*
X42220127Y-27852445D01*
X42298768Y-28006788D01*
X42400586Y-28146928D01*
X42523072Y-28269414D01*
X42663212Y-28371232D01*
X42817555Y-28449873D01*
X42817557Y-28449873D01*
X42817558Y-28449874D01*
X42817561Y-28449876D01*
X42982293Y-28503401D01*
X42982297Y-28503402D01*
X43153386Y-28530500D01*
X43153389Y-28530500D01*
X43326614Y-28530500D01*
X43497702Y-28503402D01*
X43497706Y-28503401D01*
X43662438Y-28449876D01*
X43662440Y-28449874D01*
X43662445Y-28449873D01*
X43816788Y-28371232D01*
X43956928Y-28269414D01*
X44079414Y-28146928D01*
X44181232Y-28006788D01*
X44259873Y-27852445D01*
X44259874Y-27852440D01*
X44259876Y-27852438D01*
X44313401Y-27687706D01*
X44313402Y-27687702D01*
X44340500Y-27516614D01*
X44340500Y-27343385D01*
X44679500Y-27343385D01*
X44679500Y-27516614D01*
X44706597Y-27687702D01*
X44706598Y-27687706D01*
X44760123Y-27852438D01*
X44760125Y-27852441D01*
X44760126Y-27852444D01*
X44760127Y-27852445D01*
X44838768Y-28006788D01*
X44940586Y-28146928D01*
X45063072Y-28269414D01*
X45203212Y-28371232D01*
X45357555Y-28449873D01*
X45357557Y-28449873D01*
X45357558Y-28449874D01*
X45357561Y-28449876D01*
X45522293Y-28503401D01*
X45522297Y-28503402D01*
X45693386Y-28530500D01*
X45693389Y-28530500D01*
X45866614Y-28530500D01*
X46037702Y-28503402D01*
X46037706Y-28503401D01*
X46202438Y-28449876D01*
X46202440Y-28449874D01*
X46202445Y-28449873D01*
X46356788Y-28371232D01*
X46496928Y-28269414D01*
X46619414Y-28146928D01*
X46721232Y-28006788D01*
X46799873Y-27852445D01*
X46799874Y-27852440D01*
X46799876Y-27852438D01*
X46853401Y-27687706D01*
X46853402Y-27687702D01*
X46880500Y-27516614D01*
X46880500Y-27343385D01*
X47219500Y-27343385D01*
X47219500Y-27516614D01*
X47246597Y-27687702D01*
X47246598Y-27687706D01*
X47300123Y-27852438D01*
X47300125Y-27852441D01*
X47300126Y-27852444D01*
X47300127Y-27852445D01*
X47378768Y-28006788D01*
X47480586Y-28146928D01*
X47603072Y-28269414D01*
X47743212Y-28371232D01*
X47897555Y-28449873D01*
X47897557Y-28449873D01*
X47897558Y-28449874D01*
X47897561Y-28449876D01*
X48062293Y-28503401D01*
X48062297Y-28503402D01*
X48233386Y-28530500D01*
X48233389Y-28530500D01*
X48406614Y-28530500D01*
X48577702Y-28503402D01*
X48577706Y-28503401D01*
X48742438Y-28449876D01*
X48742440Y-28449874D01*
X48742445Y-28449873D01*
X48896788Y-28371232D01*
X49036928Y-28269414D01*
X49159414Y-28146928D01*
X49261232Y-28006788D01*
X49339873Y-27852445D01*
X49339874Y-27852440D01*
X49339876Y-27852438D01*
X49393401Y-27687706D01*
X49393402Y-27687702D01*
X49420500Y-27516614D01*
X49420500Y-27343385D01*
X49759500Y-27343385D01*
X49759500Y-27516614D01*
X49786597Y-27687702D01*
X49786598Y-27687706D01*
X49840123Y-27852438D01*
X49840125Y-27852441D01*
X49840126Y-27852444D01*
X49840127Y-27852445D01*
X49918768Y-28006788D01*
X50020586Y-28146928D01*
X50143072Y-28269414D01*
X50283212Y-28371232D01*
X50437555Y-28449873D01*
X50437557Y-28449873D01*
X50437558Y-28449874D01*
X50437561Y-28449876D01*
X50602293Y-28503401D01*
X50602297Y-28503402D01*
X50773386Y-28530500D01*
X50773389Y-28530500D01*
X50946614Y-28530500D01*
X51117702Y-28503402D01*
X51117706Y-28503401D01*
X51282438Y-28449876D01*
X51282440Y-28449874D01*
X51282445Y-28449873D01*
X51436788Y-28371232D01*
X51576928Y-28269414D01*
X51699414Y-28146928D01*
X51801232Y-28006788D01*
X51879873Y-27852445D01*
X51879874Y-27852440D01*
X51879876Y-27852438D01*
X51933401Y-27687706D01*
X51933402Y-27687702D01*
X51960500Y-27516614D01*
X51960500Y-27343385D01*
X52299500Y-27343385D01*
X52299500Y-27516614D01*
X52326597Y-27687702D01*
X52326598Y-27687706D01*
X52380123Y-27852438D01*
X52380125Y-27852441D01*
X52380126Y-27852444D01*
X52380127Y-27852445D01*
X52458768Y-28006788D01*
X52560586Y-28146928D01*
X52683072Y-28269414D01*
X52823212Y-28371232D01*
X52977555Y-28449873D01*
X52977557Y-28449873D01*
X52977558Y-28449874D01*
X52977561Y-28449876D01*
X53142293Y-28503401D01*
X53142297Y-28503402D01*
X53313386Y-28530500D01*
X53313389Y-28530500D01*
X53486614Y-28530500D01*
X53657702Y-28503402D01*
X53657706Y-28503401D01*
X53822438Y-28449876D01*
X53822440Y-28449874D01*
X53822445Y-28449873D01*
X53976788Y-28371232D01*
X54116928Y-28269414D01*
X54239414Y-28146928D01*
X54341232Y-28006788D01*
X54419873Y-27852445D01*
X54419874Y-27852440D01*
X54419876Y-27852438D01*
X54473401Y-27687706D01*
X54473402Y-27687702D01*
X54500500Y-27516614D01*
X54500500Y-27343385D01*
X54473402Y-27172297D01*
X54473401Y-27172293D01*
X54419876Y-27007561D01*
X54419874Y-27007558D01*
X54419873Y-27007557D01*
X54419873Y-27007555D01*
X54341232Y-26853212D01*
X54239414Y-26713072D01*
X54116928Y-26590586D01*
X53976788Y-26488768D01*
X53976787Y-26488767D01*
X53976785Y-26488766D01*
X53822441Y-26410125D01*
X53822438Y-26410123D01*
X53657706Y-26356598D01*
X53657702Y-26356597D01*
X53486614Y-26329500D01*
X53486611Y-26329500D01*
X53313389Y-26329500D01*
X53313386Y-26329500D01*
X53142297Y-26356597D01*
X53142293Y-26356598D01*
X52977561Y-26410123D01*
X52977558Y-26410125D01*
X52823214Y-26488766D01*
X52683073Y-26590585D01*
X52560585Y-26713073D01*
X52530784Y-26754091D01*
X52458768Y-26853212D01*
X52419643Y-26930000D01*
X52380125Y-27007558D01*
X52380123Y-27007561D01*
X52326598Y-27172293D01*
X52326597Y-27172297D01*
X52299500Y-27343385D01*
X51960500Y-27343385D01*
X51933402Y-27172297D01*
X51933401Y-27172293D01*
X51879876Y-27007561D01*
X51879874Y-27007558D01*
X51879873Y-27007557D01*
X51879873Y-27007555D01*
X51801232Y-26853212D01*
X51699414Y-26713072D01*
X51576928Y-26590586D01*
X51436788Y-26488768D01*
X51436787Y-26488767D01*
X51436785Y-26488766D01*
X51282441Y-26410125D01*
X51282438Y-26410123D01*
X51117706Y-26356598D01*
X51117702Y-26356597D01*
X50946614Y-26329500D01*
X50946611Y-26329500D01*
X50773389Y-26329500D01*
X50773386Y-26329500D01*
X50602297Y-26356597D01*
X50602293Y-26356598D01*
X50437561Y-26410123D01*
X50437558Y-26410125D01*
X50283214Y-26488766D01*
X50143073Y-26590585D01*
X50020585Y-26713073D01*
X49990784Y-26754091D01*
X49918768Y-26853212D01*
X49879643Y-26930000D01*
X49840125Y-27007558D01*
X49840123Y-27007561D01*
X49786598Y-27172293D01*
X49786597Y-27172297D01*
X49759500Y-27343385D01*
X49420500Y-27343385D01*
X49393402Y-27172297D01*
X49393401Y-27172293D01*
X49339876Y-27007561D01*
X49339874Y-27007558D01*
X49339873Y-27007557D01*
X49339873Y-27007555D01*
X49261232Y-26853212D01*
X49159414Y-26713072D01*
X49036928Y-26590586D01*
X48896788Y-26488768D01*
X48896787Y-26488767D01*
X48896785Y-26488766D01*
X48742441Y-26410125D01*
X48742438Y-26410123D01*
X48577706Y-26356598D01*
X48577702Y-26356597D01*
X48406614Y-26329500D01*
X48406611Y-26329500D01*
X48233389Y-26329500D01*
X48233386Y-26329500D01*
X48062297Y-26356597D01*
X48062293Y-26356598D01*
X47897561Y-26410123D01*
X47897558Y-26410125D01*
X47743214Y-26488766D01*
X47603073Y-26590585D01*
X47480585Y-26713073D01*
X47450784Y-26754091D01*
X47378768Y-26853212D01*
X47339643Y-26930000D01*
X47300125Y-27007558D01*
X47300123Y-27007561D01*
X47246598Y-27172293D01*
X47246597Y-27172297D01*
X47219500Y-27343385D01*
X46880500Y-27343385D01*
X46853402Y-27172297D01*
X46853401Y-27172293D01*
X46799876Y-27007561D01*
X46799874Y-27007558D01*
X46799873Y-27007557D01*
X46799873Y-27007555D01*
X46721232Y-26853212D01*
X46619414Y-26713072D01*
X46496928Y-26590586D01*
X46356788Y-26488768D01*
X46356787Y-26488767D01*
X46356785Y-26488766D01*
X46202441Y-26410125D01*
X46202438Y-26410123D01*
X46037706Y-26356598D01*
X46037702Y-26356597D01*
X45866614Y-26329500D01*
X45866611Y-26329500D01*
X45693389Y-26329500D01*
X45693386Y-26329500D01*
X45522297Y-26356597D01*
X45522293Y-26356598D01*
X45357561Y-26410123D01*
X45357558Y-26410125D01*
X45203214Y-26488766D01*
X45063073Y-26590585D01*
X44940585Y-26713073D01*
X44910784Y-26754091D01*
X44838768Y-26853212D01*
X44799643Y-26930000D01*
X44760125Y-27007558D01*
X44760123Y-27007561D01*
X44706598Y-27172293D01*
X44706597Y-27172297D01*
X44679500Y-27343385D01*
X44340500Y-27343385D01*
X44313402Y-27172297D01*
X44313401Y-27172293D01*
X44259876Y-27007561D01*
X44259874Y-27007558D01*
X44259873Y-27007557D01*
X44259873Y-27007555D01*
X44181232Y-26853212D01*
X44079414Y-26713072D01*
X43956928Y-26590586D01*
X43816788Y-26488768D01*
X43816787Y-26488767D01*
X43816785Y-26488766D01*
X43662441Y-26410125D01*
X43662438Y-26410123D01*
X43497706Y-26356598D01*
X43497702Y-26356597D01*
X43326614Y-26329500D01*
X43326611Y-26329500D01*
X43153389Y-26329500D01*
X43153386Y-26329500D01*
X42982297Y-26356597D01*
X42982293Y-26356598D01*
X42817561Y-26410123D01*
X42817558Y-26410125D01*
X42663214Y-26488766D01*
X42523073Y-26590585D01*
X42400585Y-26713073D01*
X42370784Y-26754091D01*
X42298768Y-26853212D01*
X42259643Y-26930000D01*
X42220125Y-27007558D01*
X42220123Y-27007561D01*
X42166598Y-27172293D01*
X42166597Y-27172297D01*
X42139500Y-27343385D01*
X41800500Y-27343385D01*
X41773402Y-27172297D01*
X41773401Y-27172293D01*
X41719876Y-27007561D01*
X41719874Y-27007558D01*
X41719873Y-27007557D01*
X41719873Y-27007555D01*
X41641232Y-26853212D01*
X41539414Y-26713072D01*
X41416928Y-26590586D01*
X41276788Y-26488768D01*
X41276787Y-26488767D01*
X41276785Y-26488766D01*
X41122441Y-26410125D01*
X41122438Y-26410123D01*
X40957706Y-26356598D01*
X40957702Y-26356597D01*
X40786614Y-26329500D01*
X40786611Y-26329500D01*
X40613389Y-26329500D01*
X40613386Y-26329500D01*
X40442297Y-26356597D01*
X40442293Y-26356598D01*
X40277561Y-26410123D01*
X40277558Y-26410125D01*
X40123214Y-26488766D01*
X39983073Y-26590585D01*
X39860585Y-26713073D01*
X39830784Y-26754091D01*
X39758768Y-26853212D01*
X39719643Y-26930000D01*
X39680125Y-27007558D01*
X39680123Y-27007561D01*
X39626598Y-27172293D01*
X39626597Y-27172297D01*
X39599500Y-27343385D01*
X39260500Y-27343385D01*
X39233402Y-27172297D01*
X39233401Y-27172293D01*
X39179876Y-27007561D01*
X39179874Y-27007558D01*
X39179873Y-27007557D01*
X39179873Y-27007555D01*
X39101232Y-26853212D01*
X38999414Y-26713072D01*
X38876928Y-26590586D01*
X38736788Y-26488768D01*
X38736787Y-26488767D01*
X38736785Y-26488766D01*
X38582441Y-26410125D01*
X38582438Y-26410123D01*
X38417706Y-26356598D01*
X38417702Y-26356597D01*
X38246614Y-26329500D01*
X38246611Y-26329500D01*
X38073389Y-26329500D01*
X38073386Y-26329500D01*
X37902297Y-26356597D01*
X37902293Y-26356598D01*
X37737561Y-26410123D01*
X37737558Y-26410125D01*
X37583214Y-26488766D01*
X37443073Y-26590585D01*
X37320585Y-26713073D01*
X37290784Y-26754091D01*
X37218768Y-26853212D01*
X37179643Y-26930000D01*
X37140125Y-27007558D01*
X37140123Y-27007561D01*
X37086598Y-27172293D01*
X37086597Y-27172297D01*
X37059500Y-27343385D01*
X36720500Y-27343385D01*
X36693402Y-27172297D01*
X36693401Y-27172293D01*
X36639876Y-27007561D01*
X36639874Y-27007558D01*
X36639873Y-27007557D01*
X36639873Y-27007555D01*
X36561232Y-26853212D01*
X36459414Y-26713072D01*
X36336928Y-26590586D01*
X36196788Y-26488768D01*
X36196787Y-26488767D01*
X36196785Y-26488766D01*
X36042441Y-26410125D01*
X36042438Y-26410123D01*
X35877706Y-26356598D01*
X35877702Y-26356597D01*
X35706614Y-26329500D01*
X35706611Y-26329500D01*
X35533389Y-26329500D01*
X35533386Y-26329500D01*
X35362297Y-26356597D01*
X35362293Y-26356598D01*
X35197561Y-26410123D01*
X35197558Y-26410125D01*
X35043214Y-26488766D01*
X34903073Y-26590585D01*
X34780585Y-26713073D01*
X34750784Y-26754091D01*
X34678768Y-26853212D01*
X34639643Y-26930000D01*
X34600125Y-27007558D01*
X34600123Y-27007561D01*
X34546598Y-27172293D01*
X34546597Y-27172297D01*
X34519500Y-27343385D01*
X34180500Y-27343385D01*
X34153402Y-27172297D01*
X34153401Y-27172293D01*
X34099876Y-27007561D01*
X34099874Y-27007558D01*
X34099873Y-27007557D01*
X34099873Y-27007555D01*
X34021232Y-26853212D01*
X33919414Y-26713072D01*
X33796928Y-26590586D01*
X33656788Y-26488768D01*
X33656787Y-26488767D01*
X33656785Y-26488766D01*
X33502441Y-26410125D01*
X33502438Y-26410123D01*
X33337706Y-26356598D01*
X33337702Y-26356597D01*
X33166614Y-26329500D01*
X33166611Y-26329500D01*
X32993389Y-26329500D01*
X32993386Y-26329500D01*
X32822297Y-26356597D01*
X32822293Y-26356598D01*
X32657561Y-26410123D01*
X32657558Y-26410125D01*
X32503214Y-26488766D01*
X32363073Y-26590585D01*
X32240585Y-26713073D01*
X32210784Y-26754091D01*
X32138768Y-26853212D01*
X32099643Y-26930000D01*
X32060125Y-27007558D01*
X32060123Y-27007561D01*
X32006598Y-27172293D01*
X32006597Y-27172297D01*
X31979500Y-27343385D01*
X31034429Y-27343385D01*
X31010746Y-27255000D01*
X31676618Y-27255000D01*
X31676618Y-27254999D01*
X31661683Y-27160710D01*
X31605749Y-26988559D01*
X31523568Y-26827269D01*
X31523566Y-26827265D01*
X31417175Y-26680830D01*
X31289169Y-26552824D01*
X31142734Y-26446433D01*
X31142730Y-26446431D01*
X30981440Y-26364250D01*
X30809289Y-26308316D01*
X30715000Y-26293381D01*
X30715000Y-26959253D01*
X30605826Y-26930000D01*
X30474174Y-26930000D01*
X30365000Y-26959253D01*
X30365000Y-26293382D01*
X30364999Y-26293381D01*
X30270710Y-26308316D01*
X30098559Y-26364250D01*
X29937269Y-26446431D01*
X29937265Y-26446433D01*
X29790830Y-26552824D01*
X29662824Y-26680830D01*
X29556433Y-26827265D01*
X29556431Y-26827269D01*
X29474250Y-26988559D01*
X29418316Y-27160710D01*
X29403381Y-27254999D01*
X29100500Y-27254999D01*
X29100500Y-26555326D01*
X29085966Y-26482260D01*
X29037768Y-26410125D01*
X29030602Y-26399400D01*
X29030599Y-26399397D01*
X28947742Y-26344035D01*
X28947740Y-26344034D01*
X28947737Y-26344033D01*
X28947736Y-26344033D01*
X28874684Y-26329501D01*
X28874674Y-26329500D01*
X27125326Y-26329500D01*
X27125325Y-26329500D01*
X27125315Y-26329501D01*
X27052263Y-26344033D01*
X27052257Y-26344035D01*
X26969400Y-26399397D01*
X26969397Y-26399400D01*
X26914035Y-26482257D01*
X26914033Y-26482263D01*
X26899501Y-26555315D01*
X26899500Y-26555327D01*
X25400500Y-26555327D01*
X25400500Y-26060714D01*
X25400501Y-26060701D01*
X25400501Y-25947272D01*
X25400500Y-25947270D01*
X25373207Y-25845413D01*
X25373205Y-25845409D01*
X25320481Y-25754089D01*
X25320480Y-25754087D01*
X25245913Y-25679520D01*
X25245910Y-25679518D01*
X25026907Y-25460515D01*
X24604496Y-25038103D01*
X24576719Y-24983586D01*
X24575500Y-24968099D01*
X24575500Y-24924235D01*
X24575500Y-24924234D01*
X24536281Y-24777865D01*
X24536279Y-24777862D01*
X24536279Y-24777860D01*
X24460518Y-24646639D01*
X24460516Y-24646637D01*
X24460515Y-24646635D01*
X24353365Y-24539485D01*
X24353362Y-24539483D01*
X24353360Y-24539481D01*
X24222138Y-24463720D01*
X24222140Y-24463720D01*
X24165347Y-24448503D01*
X24075766Y-24424500D01*
X23924234Y-24424500D01*
X23834652Y-24448503D01*
X23777860Y-24463720D01*
X23646639Y-24539481D01*
X23539481Y-24646639D01*
X23463720Y-24777860D01*
X23463719Y-24777865D01*
X23424500Y-24924234D01*
X16575500Y-24924234D01*
X16536281Y-24777865D01*
X16536279Y-24777862D01*
X16536279Y-24777860D01*
X16460518Y-24646639D01*
X16460516Y-24646637D01*
X16460515Y-24646635D01*
X16353365Y-24539485D01*
X16353362Y-24539483D01*
X16353360Y-24539481D01*
X16222138Y-24463720D01*
X16222140Y-24463720D01*
X16165347Y-24448503D01*
X16075766Y-24424500D01*
X15924234Y-24424500D01*
X15834652Y-24448503D01*
X15777860Y-24463720D01*
X15646639Y-24539481D01*
X15539481Y-24646639D01*
X15463720Y-24777860D01*
X15463719Y-24777865D01*
X15424500Y-24924234D01*
X15424500Y-25075766D01*
X15459086Y-25204847D01*
X15463720Y-25222139D01*
X15539481Y-25353360D01*
X15539483Y-25353362D01*
X15539485Y-25353365D01*
X15646635Y-25460515D01*
X15646637Y-25460516D01*
X15646639Y-25460518D01*
X15777861Y-25536279D01*
X15777859Y-25536279D01*
X15777863Y-25536280D01*
X15777865Y-25536281D01*
X15924234Y-25575500D01*
X15968099Y-25575500D01*
X16026290Y-25594407D01*
X16038103Y-25604496D01*
X17570504Y-27136897D01*
X17598281Y-27191414D01*
X17599500Y-27206901D01*
X17599500Y-35783278D01*
X17580593Y-35841469D01*
X17545445Y-35871487D01*
X17526077Y-35881355D01*
X17423213Y-35933766D01*
X17283073Y-36035585D01*
X17160585Y-36158073D01*
X17058766Y-36298214D01*
X16980125Y-36452558D01*
X16980123Y-36452561D01*
X16926598Y-36617293D01*
X16926597Y-36617297D01*
X16899500Y-36788385D01*
X16899500Y-37211614D01*
X16926597Y-37382702D01*
X16926598Y-37382706D01*
X16980123Y-37547438D01*
X16980125Y-37547441D01*
X16980126Y-37547444D01*
X16980127Y-37547445D01*
X17058768Y-37701788D01*
X17160586Y-37841928D01*
X17283072Y-37964414D01*
X17384891Y-38038390D01*
X17423213Y-38066233D01*
X17455220Y-38082541D01*
X17545445Y-38128512D01*
X17588709Y-38171776D01*
X17599500Y-38216722D01*
X17599500Y-41947273D01*
X17599500Y-42052727D01*
X17623570Y-42142559D01*
X17626794Y-42154592D01*
X17679516Y-42245908D01*
X17679518Y-42245910D01*
X17679520Y-42245913D01*
X19570505Y-44136898D01*
X19598281Y-44191413D01*
X19599500Y-44206900D01*
X19599500Y-58500500D01*
X19580593Y-58558691D01*
X19531093Y-58594655D01*
X19500500Y-58599500D01*
X15454388Y-58599500D01*
X15396197Y-58580593D01*
X15384385Y-58570505D01*
X15372571Y-58558691D01*
X15353365Y-58539485D01*
X15353362Y-58539483D01*
X15353361Y-58539482D01*
X15353360Y-58539481D01*
X15222138Y-58463720D01*
X15222140Y-58463720D01*
X15165347Y-58448503D01*
X15075766Y-58424500D01*
X14924234Y-58424500D01*
X14834652Y-58448503D01*
X14777860Y-58463720D01*
X14646639Y-58539481D01*
X14539481Y-58646639D01*
X14463720Y-58777860D01*
X14456930Y-58803201D01*
X14424500Y-58924234D01*
X500000Y-58924234D01*
X500000Y-36227129D01*
X11899500Y-36227129D01*
X11899500Y-37772866D01*
X11899501Y-37772870D01*
X11905908Y-37832480D01*
X11905909Y-37832485D01*
X11956202Y-37967329D01*
X11982288Y-38002175D01*
X12042454Y-38082546D01*
X12042457Y-38082548D01*
X12042458Y-38082549D01*
X12157670Y-38168797D01*
X12292511Y-38219089D01*
X12292512Y-38219089D01*
X12292517Y-38219091D01*
X12352127Y-38225500D01*
X13647872Y-38225499D01*
X13707483Y-38219091D01*
X13783472Y-38190749D01*
X13842329Y-38168797D01*
X13842329Y-38168796D01*
X13842331Y-38168796D01*
X13957546Y-38082546D01*
X14043796Y-37967331D01*
X14094091Y-37832483D01*
X14100500Y-37772873D01*
X14100499Y-36784489D01*
X14350000Y-36784489D01*
X14350000Y-36824999D01*
X14350001Y-36825000D01*
X15055135Y-36825000D01*
X15025000Y-36937465D01*
X15025000Y-37062535D01*
X15055135Y-37175000D01*
X14350001Y-37175000D01*
X14350000Y-37175001D01*
X14350000Y-37215510D01*
X14378316Y-37394289D01*
X14434250Y-37566440D01*
X14516431Y-37727730D01*
X14516433Y-37727734D01*
X14622824Y-37874169D01*
X14750830Y-38002175D01*
X14897265Y-38108566D01*
X14897269Y-38108568D01*
X15058559Y-38190749D01*
X15230710Y-38246683D01*
X15230707Y-38246683D01*
X15325000Y-38261617D01*
X15325000Y-37444865D01*
X15437465Y-37475000D01*
X15562535Y-37475000D01*
X15675000Y-37444865D01*
X15675000Y-38261616D01*
X15769290Y-38246683D01*
X15941440Y-38190749D01*
X16102730Y-38108568D01*
X16102734Y-38108566D01*
X16249169Y-38002175D01*
X16377175Y-37874169D01*
X16483566Y-37727734D01*
X16483568Y-37727730D01*
X16565749Y-37566440D01*
X16621683Y-37394289D01*
X16650000Y-37215510D01*
X16650000Y-37175001D01*
X16649999Y-37175000D01*
X15944865Y-37175000D01*
X15975000Y-37062535D01*
X15975000Y-36937465D01*
X15944865Y-36825000D01*
X16649999Y-36825000D01*
X16650000Y-36824999D01*
X16650000Y-36784489D01*
X16621683Y-36605710D01*
X16565749Y-36433559D01*
X16483568Y-36272269D01*
X16483566Y-36272265D01*
X16377175Y-36125830D01*
X16249169Y-35997824D01*
X16102734Y-35891433D01*
X16102730Y-35891431D01*
X15941440Y-35809250D01*
X15769289Y-35753316D01*
X15675000Y-35738381D01*
X15675000Y-36555134D01*
X15562535Y-36525000D01*
X15437465Y-36525000D01*
X15325000Y-36555134D01*
X15325000Y-35738382D01*
X15324999Y-35738381D01*
X15230710Y-35753316D01*
X15058559Y-35809250D01*
X14897269Y-35891431D01*
X14897265Y-35891433D01*
X14750830Y-35997824D01*
X14622824Y-36125830D01*
X14516433Y-36272265D01*
X14516431Y-36272269D01*
X14434250Y-36433559D01*
X14378316Y-36605710D01*
X14350000Y-36784489D01*
X14100499Y-36784489D01*
X14100499Y-36227128D01*
X14094091Y-36167517D01*
X14084739Y-36142442D01*
X14043797Y-36032670D01*
X13957549Y-35917458D01*
X13957548Y-35917457D01*
X13957546Y-35917454D01*
X13957541Y-35917450D01*
X13842329Y-35831202D01*
X13707488Y-35780910D01*
X13707483Y-35780909D01*
X13707481Y-35780908D01*
X13707477Y-35780908D01*
X13676249Y-35777550D01*
X13647873Y-35774500D01*
X13647870Y-35774500D01*
X12352133Y-35774500D01*
X12352129Y-35774500D01*
X12352128Y-35774501D01*
X12344949Y-35775272D01*
X12292519Y-35780908D01*
X12292514Y-35780909D01*
X12157670Y-35831202D01*
X12042458Y-35917450D01*
X12042450Y-35917458D01*
X11956202Y-36032670D01*
X11905910Y-36167511D01*
X11905908Y-36167522D01*
X11899500Y-36227129D01*
X500000Y-36227129D01*
X500000Y-34453385D01*
X5899500Y-34453385D01*
X5899500Y-34626614D01*
X5926597Y-34797702D01*
X5926598Y-34797706D01*
X5980123Y-34962438D01*
X5980125Y-34962441D01*
X6058765Y-35116784D01*
X6058768Y-35116788D01*
X6160586Y-35256928D01*
X6283072Y-35379414D01*
X6423212Y-35481232D01*
X6577555Y-35559873D01*
X6577557Y-35559873D01*
X6577558Y-35559874D01*
X6577561Y-35559876D01*
X6742293Y-35613401D01*
X6742297Y-35613402D01*
X6913386Y-35640500D01*
X6913389Y-35640500D01*
X7086614Y-35640500D01*
X7257702Y-35613402D01*
X7257706Y-35613401D01*
X7422438Y-35559876D01*
X7422440Y-35559874D01*
X7422445Y-35559873D01*
X7576788Y-35481232D01*
X7716928Y-35379414D01*
X7839414Y-35256928D01*
X7941232Y-35116788D01*
X8003512Y-34994554D01*
X8046776Y-34951290D01*
X8091722Y-34940499D01*
X9052725Y-34940499D01*
X9052727Y-34940499D01*
X9154587Y-34913206D01*
X9245913Y-34860479D01*
X9320480Y-34785912D01*
X9373207Y-34694586D01*
X9400500Y-34592726D01*
X9400500Y-34487272D01*
X9400500Y-26060714D01*
X9400501Y-26060701D01*
X9400501Y-25947272D01*
X9400500Y-25947270D01*
X9373207Y-25845413D01*
X9373205Y-25845409D01*
X9320481Y-25754089D01*
X9320480Y-25754087D01*
X9245913Y-25679520D01*
X9245910Y-25679518D01*
X9026907Y-25460515D01*
X8604496Y-25038103D01*
X8576719Y-24983586D01*
X8575500Y-24968099D01*
X8575500Y-24924235D01*
X8575500Y-24924234D01*
X8536281Y-24777865D01*
X8536279Y-24777862D01*
X8536279Y-24777860D01*
X8460518Y-24646639D01*
X8460516Y-24646637D01*
X8460515Y-24646635D01*
X8353365Y-24539485D01*
X8353362Y-24539483D01*
X8353360Y-24539481D01*
X8222138Y-24463720D01*
X8222140Y-24463720D01*
X8165347Y-24448503D01*
X8075766Y-24424500D01*
X7924234Y-24424500D01*
X7834652Y-24448503D01*
X7777860Y-24463720D01*
X7646639Y-24539481D01*
X7539481Y-24646639D01*
X7463720Y-24777860D01*
X7463719Y-24777865D01*
X7424500Y-24924234D01*
X7424500Y-25075766D01*
X7459086Y-25204847D01*
X7463720Y-25222139D01*
X7539481Y-25353360D01*
X7539483Y-25353362D01*
X7539485Y-25353365D01*
X7646635Y-25460515D01*
X7646637Y-25460516D01*
X7646639Y-25460518D01*
X7777861Y-25536279D01*
X7777859Y-25536279D01*
X7777863Y-25536280D01*
X7777865Y-25536281D01*
X7924234Y-25575500D01*
X7968099Y-25575500D01*
X8026290Y-25594407D01*
X8038103Y-25604496D01*
X8570504Y-26136896D01*
X8598281Y-26191413D01*
X8599500Y-26206900D01*
X8599500Y-34040499D01*
X8580593Y-34098690D01*
X8531093Y-34134654D01*
X8500500Y-34139499D01*
X8091722Y-34139499D01*
X8033531Y-34120592D01*
X8003512Y-34085444D01*
X7941233Y-33963214D01*
X7941232Y-33963212D01*
X7839414Y-33823072D01*
X7716928Y-33700586D01*
X7576788Y-33598768D01*
X7576787Y-33598767D01*
X7576785Y-33598766D01*
X7422441Y-33520125D01*
X7422438Y-33520123D01*
X7257706Y-33466598D01*
X7257702Y-33466597D01*
X7086614Y-33439500D01*
X7086611Y-33439500D01*
X6913389Y-33439500D01*
X6913386Y-33439500D01*
X6742297Y-33466597D01*
X6742293Y-33466598D01*
X6577561Y-33520123D01*
X6577558Y-33520125D01*
X6423214Y-33598766D01*
X6283073Y-33700585D01*
X6160585Y-33823073D01*
X6058766Y-33963214D01*
X5980125Y-34117558D01*
X5980123Y-34117561D01*
X5926598Y-34282293D01*
X5926597Y-34282297D01*
X5899500Y-34453385D01*
X500000Y-34453385D01*
X500000Y-31125327D01*
X5899500Y-31125327D01*
X5899500Y-32874672D01*
X5899501Y-32874684D01*
X5914033Y-32947736D01*
X5914035Y-32947742D01*
X5969397Y-33030599D01*
X5969399Y-33030601D01*
X6052260Y-33085966D01*
X6107808Y-33097015D01*
X6125315Y-33100498D01*
X6125320Y-33100498D01*
X6125326Y-33100500D01*
X6125327Y-33100500D01*
X7874673Y-33100500D01*
X7874674Y-33100500D01*
X7947740Y-33085966D01*
X8030601Y-33030601D01*
X8085966Y-32947740D01*
X8100500Y-32874674D01*
X8100500Y-31125326D01*
X8085966Y-31052260D01*
X8030601Y-30969399D01*
X8030599Y-30969397D01*
X7947742Y-30914035D01*
X7947740Y-30914034D01*
X7947737Y-30914033D01*
X7947736Y-30914033D01*
X7874684Y-30899501D01*
X7874674Y-30899500D01*
X6125326Y-30899500D01*
X6125325Y-30899500D01*
X6125315Y-30899501D01*
X6052263Y-30914033D01*
X6052257Y-30914035D01*
X5969400Y-30969397D01*
X5969397Y-30969400D01*
X5914035Y-31052257D01*
X5914033Y-31052263D01*
X5899501Y-31125315D01*
X5899500Y-31125327D01*
X500000Y-31125327D01*
X500000Y-2874034D01*
X1399500Y-2874034D01*
X1399500Y-3125965D01*
X1438908Y-3374780D01*
X1516759Y-3614379D01*
X1558003Y-3695326D01*
X1631130Y-3838845D01*
X1779207Y-4042656D01*
X1957344Y-4220793D01*
X2161155Y-4368870D01*
X2385621Y-4483241D01*
X2625215Y-4561090D01*
X2625216Y-4561090D01*
X2625219Y-4561091D01*
X2874035Y-4600500D01*
X2874038Y-4600500D01*
X3125965Y-4600500D01*
X3374780Y-4561091D01*
X3374781Y-4561090D01*
X3374785Y-4561090D01*
X3614379Y-4483241D01*
X3838845Y-4368870D01*
X4042656Y-4220793D01*
X4220793Y-4042656D01*
X4368870Y-3838845D01*
X4441996Y-3695327D01*
X26899500Y-3695327D01*
X26899500Y-5444672D01*
X26899501Y-5444684D01*
X26914033Y-5517736D01*
X26914035Y-5517742D01*
X26969397Y-5600599D01*
X26969399Y-5600601D01*
X27052260Y-5655966D01*
X27107808Y-5667015D01*
X27125315Y-5670498D01*
X27125320Y-5670498D01*
X27125326Y-5670500D01*
X27125327Y-5670500D01*
X28874673Y-5670500D01*
X28874674Y-5670500D01*
X28947740Y-5655966D01*
X29030601Y-5600601D01*
X29085966Y-5517740D01*
X29100500Y-5444674D01*
X29100500Y-4483385D01*
X29439500Y-4483385D01*
X29439500Y-4656614D01*
X29466597Y-4827702D01*
X29466598Y-4827706D01*
X29520123Y-4992438D01*
X29520125Y-4992441D01*
X29520126Y-4992444D01*
X29520127Y-4992445D01*
X29598768Y-5146788D01*
X29700586Y-5286928D01*
X29823072Y-5409414D01*
X29963212Y-5511232D01*
X30117555Y-5589873D01*
X30117557Y-5589873D01*
X30117558Y-5589874D01*
X30117561Y-5589876D01*
X30282293Y-5643401D01*
X30282297Y-5643402D01*
X30453386Y-5670500D01*
X30453389Y-5670500D01*
X30626614Y-5670500D01*
X30797702Y-5643402D01*
X30797706Y-5643401D01*
X30962438Y-5589876D01*
X30962440Y-5589874D01*
X30962445Y-5589873D01*
X31116788Y-5511232D01*
X31256928Y-5409414D01*
X31379414Y-5286928D01*
X31481232Y-5146788D01*
X31559873Y-4992445D01*
X31559874Y-4992440D01*
X31559876Y-4992438D01*
X31613401Y-4827706D01*
X31613402Y-4827702D01*
X31640500Y-4656614D01*
X31640500Y-4483385D01*
X31979500Y-4483385D01*
X31979500Y-4656614D01*
X32006597Y-4827702D01*
X32006598Y-4827706D01*
X32060123Y-4992438D01*
X32060125Y-4992441D01*
X32060126Y-4992444D01*
X32060127Y-4992445D01*
X32138768Y-5146788D01*
X32240586Y-5286928D01*
X32363072Y-5409414D01*
X32503212Y-5511232D01*
X32657555Y-5589873D01*
X32657557Y-5589873D01*
X32657558Y-5589874D01*
X32657561Y-5589876D01*
X32822293Y-5643401D01*
X32822297Y-5643402D01*
X32993386Y-5670500D01*
X32993389Y-5670500D01*
X33166614Y-5670500D01*
X33337702Y-5643402D01*
X33337706Y-5643401D01*
X33502438Y-5589876D01*
X33502440Y-5589874D01*
X33502445Y-5589873D01*
X33656788Y-5511232D01*
X33796928Y-5409414D01*
X33919414Y-5286928D01*
X34021232Y-5146788D01*
X34099873Y-4992445D01*
X34099874Y-4992440D01*
X34099876Y-4992438D01*
X34153401Y-4827706D01*
X34153402Y-4827702D01*
X34180500Y-4656614D01*
X34180500Y-4483385D01*
X34519500Y-4483385D01*
X34519500Y-4656614D01*
X34546597Y-4827702D01*
X34546598Y-4827706D01*
X34600123Y-4992438D01*
X34600125Y-4992441D01*
X34600126Y-4992444D01*
X34600127Y-4992445D01*
X34678768Y-5146788D01*
X34780586Y-5286928D01*
X34903072Y-5409414D01*
X35043212Y-5511232D01*
X35197555Y-5589873D01*
X35197557Y-5589873D01*
X35197558Y-5589874D01*
X35197561Y-5589876D01*
X35362293Y-5643401D01*
X35362297Y-5643402D01*
X35533386Y-5670500D01*
X35533389Y-5670500D01*
X35706614Y-5670500D01*
X35877702Y-5643402D01*
X35877706Y-5643401D01*
X36042438Y-5589876D01*
X36042440Y-5589874D01*
X36042445Y-5589873D01*
X36196788Y-5511232D01*
X36336928Y-5409414D01*
X36459414Y-5286928D01*
X36561232Y-5146788D01*
X36639873Y-4992445D01*
X36639874Y-4992440D01*
X36639876Y-4992438D01*
X36693401Y-4827706D01*
X36693402Y-4827702D01*
X36720500Y-4656614D01*
X36720500Y-4483385D01*
X37059500Y-4483385D01*
X37059500Y-4656614D01*
X37086597Y-4827702D01*
X37086598Y-4827706D01*
X37140123Y-4992438D01*
X37140125Y-4992441D01*
X37140126Y-4992444D01*
X37140127Y-4992445D01*
X37218768Y-5146788D01*
X37320586Y-5286928D01*
X37443072Y-5409414D01*
X37583212Y-5511232D01*
X37737555Y-5589873D01*
X37737557Y-5589873D01*
X37737558Y-5589874D01*
X37737561Y-5589876D01*
X37902293Y-5643401D01*
X37902297Y-5643402D01*
X38073386Y-5670500D01*
X38073389Y-5670500D01*
X38246614Y-5670500D01*
X38417702Y-5643402D01*
X38417706Y-5643401D01*
X38582438Y-5589876D01*
X38582440Y-5589874D01*
X38582445Y-5589873D01*
X38736788Y-5511232D01*
X38876928Y-5409414D01*
X38999414Y-5286928D01*
X39101232Y-5146788D01*
X39179873Y-4992445D01*
X39179874Y-4992440D01*
X39179876Y-4992438D01*
X39233401Y-4827706D01*
X39233402Y-4827702D01*
X39260500Y-4656614D01*
X39260500Y-4483385D01*
X39599500Y-4483385D01*
X39599500Y-4656614D01*
X39626597Y-4827702D01*
X39626598Y-4827706D01*
X39680123Y-4992438D01*
X39680125Y-4992441D01*
X39680126Y-4992444D01*
X39680127Y-4992445D01*
X39758768Y-5146788D01*
X39860586Y-5286928D01*
X39983072Y-5409414D01*
X40123212Y-5511232D01*
X40277555Y-5589873D01*
X40277557Y-5589873D01*
X40277558Y-5589874D01*
X40277561Y-5589876D01*
X40442293Y-5643401D01*
X40442297Y-5643402D01*
X40613386Y-5670500D01*
X40613389Y-5670500D01*
X40786614Y-5670500D01*
X40957702Y-5643402D01*
X40957706Y-5643401D01*
X41122438Y-5589876D01*
X41122440Y-5589874D01*
X41122445Y-5589873D01*
X41276788Y-5511232D01*
X41416928Y-5409414D01*
X41539414Y-5286928D01*
X41641232Y-5146788D01*
X41719873Y-4992445D01*
X41719874Y-4992440D01*
X41719876Y-4992438D01*
X41773401Y-4827706D01*
X41773402Y-4827702D01*
X41800500Y-4656614D01*
X41800500Y-4483385D01*
X42139500Y-4483385D01*
X42139500Y-4656614D01*
X42166597Y-4827702D01*
X42166598Y-4827706D01*
X42220123Y-4992438D01*
X42220125Y-4992441D01*
X42220126Y-4992444D01*
X42220127Y-4992445D01*
X42298768Y-5146788D01*
X42400586Y-5286928D01*
X42523072Y-5409414D01*
X42663212Y-5511232D01*
X42817555Y-5589873D01*
X42817557Y-5589873D01*
X42817558Y-5589874D01*
X42817561Y-5589876D01*
X42982293Y-5643401D01*
X42982297Y-5643402D01*
X43153386Y-5670500D01*
X43153389Y-5670500D01*
X43326614Y-5670500D01*
X43497702Y-5643402D01*
X43497706Y-5643401D01*
X43662438Y-5589876D01*
X43662440Y-5589874D01*
X43662445Y-5589873D01*
X43816788Y-5511232D01*
X43956928Y-5409414D01*
X44079414Y-5286928D01*
X44181232Y-5146788D01*
X44259873Y-4992445D01*
X44259874Y-4992440D01*
X44259876Y-4992438D01*
X44313401Y-4827706D01*
X44313402Y-4827702D01*
X44340500Y-4656614D01*
X44340500Y-4483385D01*
X44679500Y-4483385D01*
X44679500Y-4656614D01*
X44706597Y-4827702D01*
X44706598Y-4827706D01*
X44760123Y-4992438D01*
X44760125Y-4992441D01*
X44760126Y-4992444D01*
X44760127Y-4992445D01*
X44838768Y-5146788D01*
X44940586Y-5286928D01*
X45063072Y-5409414D01*
X45203212Y-5511232D01*
X45357555Y-5589873D01*
X45357557Y-5589873D01*
X45357558Y-5589874D01*
X45357561Y-5589876D01*
X45522293Y-5643401D01*
X45522297Y-5643402D01*
X45693386Y-5670500D01*
X45693389Y-5670500D01*
X45866614Y-5670500D01*
X46037702Y-5643402D01*
X46037706Y-5643401D01*
X46202438Y-5589876D01*
X46202440Y-5589874D01*
X46202445Y-5589873D01*
X46356788Y-5511232D01*
X46496928Y-5409414D01*
X46619414Y-5286928D01*
X46721232Y-5146788D01*
X46799873Y-4992445D01*
X46799874Y-4992440D01*
X46799876Y-4992438D01*
X46853401Y-4827706D01*
X46853402Y-4827702D01*
X46880500Y-4656614D01*
X46880500Y-4483385D01*
X47219500Y-4483385D01*
X47219500Y-4656614D01*
X47246597Y-4827702D01*
X47246598Y-4827706D01*
X47300123Y-4992438D01*
X47300125Y-4992441D01*
X47300126Y-4992444D01*
X47300127Y-4992445D01*
X47378768Y-5146788D01*
X47480586Y-5286928D01*
X47603072Y-5409414D01*
X47743212Y-5511232D01*
X47897555Y-5589873D01*
X47897557Y-5589873D01*
X47897558Y-5589874D01*
X47897561Y-5589876D01*
X48062293Y-5643401D01*
X48062297Y-5643402D01*
X48233386Y-5670500D01*
X48233389Y-5670500D01*
X48406614Y-5670500D01*
X48577702Y-5643402D01*
X48577706Y-5643401D01*
X48742438Y-5589876D01*
X48742440Y-5589874D01*
X48742445Y-5589873D01*
X48896788Y-5511232D01*
X49036928Y-5409414D01*
X49159414Y-5286928D01*
X49261232Y-5146788D01*
X49339873Y-4992445D01*
X49339874Y-4992440D01*
X49339876Y-4992438D01*
X49393401Y-4827706D01*
X49393402Y-4827702D01*
X49420500Y-4656614D01*
X49420500Y-4483385D01*
X49759500Y-4483385D01*
X49759500Y-4656614D01*
X49786597Y-4827702D01*
X49786598Y-4827706D01*
X49840123Y-4992438D01*
X49840125Y-4992441D01*
X49840126Y-4992444D01*
X49840127Y-4992445D01*
X49918768Y-5146788D01*
X50020586Y-5286928D01*
X50143072Y-5409414D01*
X50283212Y-5511232D01*
X50437555Y-5589873D01*
X50437557Y-5589873D01*
X50437558Y-5589874D01*
X50437561Y-5589876D01*
X50602293Y-5643401D01*
X50602297Y-5643402D01*
X50773386Y-5670500D01*
X50773389Y-5670500D01*
X50946614Y-5670500D01*
X51117702Y-5643402D01*
X51117706Y-5643401D01*
X51282438Y-5589876D01*
X51282440Y-5589874D01*
X51282445Y-5589873D01*
X51436788Y-5511232D01*
X51576928Y-5409414D01*
X51699414Y-5286928D01*
X51801232Y-5146788D01*
X51879873Y-4992445D01*
X51879874Y-4992440D01*
X51879876Y-4992438D01*
X51933401Y-4827706D01*
X51933402Y-4827702D01*
X51960500Y-4656614D01*
X51960500Y-4483385D01*
X52299500Y-4483385D01*
X52299500Y-4656614D01*
X52326597Y-4827702D01*
X52326598Y-4827706D01*
X52380123Y-4992438D01*
X52380125Y-4992441D01*
X52380126Y-4992444D01*
X52380127Y-4992445D01*
X52458768Y-5146788D01*
X52560586Y-5286928D01*
X52683072Y-5409414D01*
X52823212Y-5511232D01*
X52977555Y-5589873D01*
X52977557Y-5589873D01*
X52977558Y-5589874D01*
X52977561Y-5589876D01*
X53142293Y-5643401D01*
X53142297Y-5643402D01*
X53313386Y-5670500D01*
X53313389Y-5670500D01*
X53486614Y-5670500D01*
X53657702Y-5643402D01*
X53657706Y-5643401D01*
X53822438Y-5589876D01*
X53822440Y-5589874D01*
X53822445Y-5589873D01*
X53976788Y-5511232D01*
X54116928Y-5409414D01*
X54239414Y-5286928D01*
X54341232Y-5146788D01*
X54419873Y-4992445D01*
X54419874Y-4992440D01*
X54419876Y-4992438D01*
X54473401Y-4827706D01*
X54473402Y-4827702D01*
X54500500Y-4656614D01*
X54500500Y-4483385D01*
X54473402Y-4312297D01*
X54473401Y-4312293D01*
X54419876Y-4147561D01*
X54419874Y-4147558D01*
X54419873Y-4147557D01*
X54419873Y-4147555D01*
X54341232Y-3993212D01*
X54239414Y-3853072D01*
X54116928Y-3730586D01*
X53976788Y-3628768D01*
X53976787Y-3628767D01*
X53976785Y-3628766D01*
X53822441Y-3550125D01*
X53822438Y-3550123D01*
X53657706Y-3496598D01*
X53657702Y-3496597D01*
X53486614Y-3469500D01*
X53486611Y-3469500D01*
X53313389Y-3469500D01*
X53313386Y-3469500D01*
X53142297Y-3496597D01*
X53142293Y-3496598D01*
X52977561Y-3550123D01*
X52977558Y-3550125D01*
X52823214Y-3628766D01*
X52683073Y-3730585D01*
X52560585Y-3853073D01*
X52458766Y-3993214D01*
X52380125Y-4147558D01*
X52380123Y-4147561D01*
X52326598Y-4312293D01*
X52326597Y-4312297D01*
X52299500Y-4483385D01*
X51960500Y-4483385D01*
X51933402Y-4312297D01*
X51933401Y-4312293D01*
X51879876Y-4147561D01*
X51879874Y-4147558D01*
X51879873Y-4147557D01*
X51879873Y-4147555D01*
X51801232Y-3993212D01*
X51699414Y-3853072D01*
X51576928Y-3730586D01*
X51436788Y-3628768D01*
X51436787Y-3628767D01*
X51436785Y-3628766D01*
X51282441Y-3550125D01*
X51282438Y-3550123D01*
X51117706Y-3496598D01*
X51117702Y-3496597D01*
X50946614Y-3469500D01*
X50946611Y-3469500D01*
X50773389Y-3469500D01*
X50773386Y-3469500D01*
X50602297Y-3496597D01*
X50602293Y-3496598D01*
X50437561Y-3550123D01*
X50437558Y-3550125D01*
X50283214Y-3628766D01*
X50143073Y-3730585D01*
X50020585Y-3853073D01*
X49918766Y-3993214D01*
X49840125Y-4147558D01*
X49840123Y-4147561D01*
X49786598Y-4312293D01*
X49786597Y-4312297D01*
X49759500Y-4483385D01*
X49420500Y-4483385D01*
X49393402Y-4312297D01*
X49393401Y-4312293D01*
X49339876Y-4147561D01*
X49339874Y-4147558D01*
X49339873Y-4147557D01*
X49339873Y-4147555D01*
X49261232Y-3993212D01*
X49159414Y-3853072D01*
X49036928Y-3730586D01*
X48896788Y-3628768D01*
X48896787Y-3628767D01*
X48896785Y-3628766D01*
X48742441Y-3550125D01*
X48742438Y-3550123D01*
X48577706Y-3496598D01*
X48577702Y-3496597D01*
X48406614Y-3469500D01*
X48406611Y-3469500D01*
X48233389Y-3469500D01*
X48233386Y-3469500D01*
X48062297Y-3496597D01*
X48062293Y-3496598D01*
X47897561Y-3550123D01*
X47897558Y-3550125D01*
X47743214Y-3628766D01*
X47603073Y-3730585D01*
X47480585Y-3853073D01*
X47378766Y-3993214D01*
X47300125Y-4147558D01*
X47300123Y-4147561D01*
X47246598Y-4312293D01*
X47246597Y-4312297D01*
X47219500Y-4483385D01*
X46880500Y-4483385D01*
X46853402Y-4312297D01*
X46853401Y-4312293D01*
X46799876Y-4147561D01*
X46799874Y-4147558D01*
X46799873Y-4147557D01*
X46799873Y-4147555D01*
X46721232Y-3993212D01*
X46619414Y-3853072D01*
X46496928Y-3730586D01*
X46356788Y-3628768D01*
X46356787Y-3628767D01*
X46356785Y-3628766D01*
X46202441Y-3550125D01*
X46202438Y-3550123D01*
X46037706Y-3496598D01*
X46037702Y-3496597D01*
X45866614Y-3469500D01*
X45866611Y-3469500D01*
X45693389Y-3469500D01*
X45693386Y-3469500D01*
X45522297Y-3496597D01*
X45522293Y-3496598D01*
X45357561Y-3550123D01*
X45357558Y-3550125D01*
X45203214Y-3628766D01*
X45063073Y-3730585D01*
X44940585Y-3853073D01*
X44838766Y-3993214D01*
X44760125Y-4147558D01*
X44760123Y-4147561D01*
X44706598Y-4312293D01*
X44706597Y-4312297D01*
X44679500Y-4483385D01*
X44340500Y-4483385D01*
X44313402Y-4312297D01*
X44313401Y-4312293D01*
X44259876Y-4147561D01*
X44259874Y-4147558D01*
X44259873Y-4147557D01*
X44259873Y-4147555D01*
X44181232Y-3993212D01*
X44079414Y-3853072D01*
X43956928Y-3730586D01*
X43816788Y-3628768D01*
X43816787Y-3628767D01*
X43816785Y-3628766D01*
X43662441Y-3550125D01*
X43662438Y-3550123D01*
X43497706Y-3496598D01*
X43497702Y-3496597D01*
X43326614Y-3469500D01*
X43326611Y-3469500D01*
X43153389Y-3469500D01*
X43153386Y-3469500D01*
X42982297Y-3496597D01*
X42982293Y-3496598D01*
X42817561Y-3550123D01*
X42817558Y-3550125D01*
X42663214Y-3628766D01*
X42523073Y-3730585D01*
X42400585Y-3853073D01*
X42298766Y-3993214D01*
X42220125Y-4147558D01*
X42220123Y-4147561D01*
X42166598Y-4312293D01*
X42166597Y-4312297D01*
X42139500Y-4483385D01*
X41800500Y-4483385D01*
X41773402Y-4312297D01*
X41773401Y-4312293D01*
X41719876Y-4147561D01*
X41719874Y-4147558D01*
X41719873Y-4147557D01*
X41719873Y-4147555D01*
X41641232Y-3993212D01*
X41539414Y-3853072D01*
X41416928Y-3730586D01*
X41276788Y-3628768D01*
X41276787Y-3628767D01*
X41276785Y-3628766D01*
X41122441Y-3550125D01*
X41122438Y-3550123D01*
X40957706Y-3496598D01*
X40957702Y-3496597D01*
X40786614Y-3469500D01*
X40786611Y-3469500D01*
X40613389Y-3469500D01*
X40613386Y-3469500D01*
X40442297Y-3496597D01*
X40442293Y-3496598D01*
X40277561Y-3550123D01*
X40277558Y-3550125D01*
X40123214Y-3628766D01*
X39983073Y-3730585D01*
X39860585Y-3853073D01*
X39758766Y-3993214D01*
X39680125Y-4147558D01*
X39680123Y-4147561D01*
X39626598Y-4312293D01*
X39626597Y-4312297D01*
X39599500Y-4483385D01*
X39260500Y-4483385D01*
X39233402Y-4312297D01*
X39233401Y-4312293D01*
X39179876Y-4147561D01*
X39179874Y-4147558D01*
X39179873Y-4147557D01*
X39179873Y-4147555D01*
X39101232Y-3993212D01*
X38999414Y-3853072D01*
X38876928Y-3730586D01*
X38736788Y-3628768D01*
X38736787Y-3628767D01*
X38736785Y-3628766D01*
X38582441Y-3550125D01*
X38582438Y-3550123D01*
X38417706Y-3496598D01*
X38417702Y-3496597D01*
X38246614Y-3469500D01*
X38246611Y-3469500D01*
X38073389Y-3469500D01*
X38073386Y-3469500D01*
X37902297Y-3496597D01*
X37902293Y-3496598D01*
X37737561Y-3550123D01*
X37737558Y-3550125D01*
X37583214Y-3628766D01*
X37443073Y-3730585D01*
X37320585Y-3853073D01*
X37218766Y-3993214D01*
X37140125Y-4147558D01*
X37140123Y-4147561D01*
X37086598Y-4312293D01*
X37086597Y-4312297D01*
X37059500Y-4483385D01*
X36720500Y-4483385D01*
X36693402Y-4312297D01*
X36693401Y-4312293D01*
X36639876Y-4147561D01*
X36639874Y-4147558D01*
X36639873Y-4147557D01*
X36639873Y-4147555D01*
X36561232Y-3993212D01*
X36459414Y-3853072D01*
X36336928Y-3730586D01*
X36196788Y-3628768D01*
X36196787Y-3628767D01*
X36196785Y-3628766D01*
X36042441Y-3550125D01*
X36042438Y-3550123D01*
X35877706Y-3496598D01*
X35877702Y-3496597D01*
X35706614Y-3469500D01*
X35706611Y-3469500D01*
X35533389Y-3469500D01*
X35533386Y-3469500D01*
X35362297Y-3496597D01*
X35362293Y-3496598D01*
X35197561Y-3550123D01*
X35197558Y-3550125D01*
X35043214Y-3628766D01*
X34903073Y-3730585D01*
X34780585Y-3853073D01*
X34678766Y-3993214D01*
X34600125Y-4147558D01*
X34600123Y-4147561D01*
X34546598Y-4312293D01*
X34546597Y-4312297D01*
X34519500Y-4483385D01*
X34180500Y-4483385D01*
X34153402Y-4312297D01*
X34153401Y-4312293D01*
X34099876Y-4147561D01*
X34099874Y-4147558D01*
X34099873Y-4147557D01*
X34099873Y-4147555D01*
X34021232Y-3993212D01*
X33919414Y-3853072D01*
X33796928Y-3730586D01*
X33656788Y-3628768D01*
X33656787Y-3628767D01*
X33656785Y-3628766D01*
X33502441Y-3550125D01*
X33502438Y-3550123D01*
X33337706Y-3496598D01*
X33337702Y-3496597D01*
X33166614Y-3469500D01*
X33166611Y-3469500D01*
X32993389Y-3469500D01*
X32993386Y-3469500D01*
X32822297Y-3496597D01*
X32822293Y-3496598D01*
X32657561Y-3550123D01*
X32657558Y-3550125D01*
X32503214Y-3628766D01*
X32363073Y-3730585D01*
X32240585Y-3853073D01*
X32138766Y-3993214D01*
X32060125Y-4147558D01*
X32060123Y-4147561D01*
X32006598Y-4312293D01*
X32006597Y-4312297D01*
X31979500Y-4483385D01*
X31640500Y-4483385D01*
X31613402Y-4312297D01*
X31613401Y-4312293D01*
X31559876Y-4147561D01*
X31559874Y-4147558D01*
X31559873Y-4147557D01*
X31559873Y-4147555D01*
X31481232Y-3993212D01*
X31379414Y-3853072D01*
X31256928Y-3730586D01*
X31116788Y-3628768D01*
X31116787Y-3628767D01*
X31116785Y-3628766D01*
X30962441Y-3550125D01*
X30962438Y-3550123D01*
X30797706Y-3496598D01*
X30797702Y-3496597D01*
X30626614Y-3469500D01*
X30626611Y-3469500D01*
X30453389Y-3469500D01*
X30453386Y-3469500D01*
X30282297Y-3496597D01*
X30282293Y-3496598D01*
X30117561Y-3550123D01*
X30117558Y-3550125D01*
X29963214Y-3628766D01*
X29823073Y-3730585D01*
X29700585Y-3853073D01*
X29598766Y-3993214D01*
X29520125Y-4147558D01*
X29520123Y-4147561D01*
X29466598Y-4312293D01*
X29466597Y-4312297D01*
X29439500Y-4483385D01*
X29100500Y-4483385D01*
X29100500Y-3695326D01*
X29085966Y-3622260D01*
X29037768Y-3550125D01*
X29030602Y-3539400D01*
X29030599Y-3539397D01*
X28947742Y-3484035D01*
X28947740Y-3484034D01*
X28947737Y-3484033D01*
X28947736Y-3484033D01*
X28874684Y-3469501D01*
X28874674Y-3469500D01*
X27125326Y-3469500D01*
X27125325Y-3469500D01*
X27125315Y-3469501D01*
X27052263Y-3484033D01*
X27052257Y-3484035D01*
X26969400Y-3539397D01*
X26969397Y-3539400D01*
X26914035Y-3622257D01*
X26914033Y-3622263D01*
X26899501Y-3695315D01*
X26899500Y-3695327D01*
X4441996Y-3695327D01*
X4483241Y-3614379D01*
X4561090Y-3374785D01*
X4600500Y-3125962D01*
X4600500Y-2874038D01*
X4600500Y-2874034D01*
X4561091Y-2625219D01*
X4561090Y-2625215D01*
X4483241Y-2385621D01*
X4368870Y-2161155D01*
X4220793Y-1957344D01*
X4042656Y-1779207D01*
X3838845Y-1631130D01*
X3838844Y-1631129D01*
X3838842Y-1631128D01*
X3614379Y-1516759D01*
X3374780Y-1438908D01*
X3125965Y-1399500D01*
X3125962Y-1399500D01*
X2874038Y-1399500D01*
X2874035Y-1399500D01*
X2625219Y-1438908D01*
X2385620Y-1516759D01*
X2161157Y-1631128D01*
X1957345Y-1779206D01*
X1779206Y-1957345D01*
X1631128Y-2161157D01*
X1516759Y-2385620D01*
X1438908Y-2625219D01*
X1399500Y-2874034D01*
X500000Y-2874034D01*
X500000Y-1965979D01*
X518907Y-1907788D01*
X528996Y-1895975D01*
X1895975Y-528996D01*
X1950492Y-501219D01*
X1965979Y-500000D01*
X56901000Y-500000D01*
X56959191Y-518907D01*
G37*
%TD.AperFunction*%
%TD*%
M02*
