%TF.GenerationSoftware,KiCad,Pcbnew,10.0.6*%
%TF.CreationDate,2026-09-22T16:11:46-04:00*%
%TF.ProjectId,carrier,63617272-6965-4722-9e6b-696361645f70,A*%
%TF.SameCoordinates,Original*%
%TF.FileFunction,Copper,L2,Bot*%
%TF.FilePolarity,Positive*%
%FSLAX46Y46*%
G04 Gerber Fmt 4.6, Leading zero omitted, Abs format (unit mm)*
G04 Created by KiCad (PCBNEW 10.0.6) date 2026-09-22 16:11:46*
%MOMM*%
%LPD*%
G01*
G04 APERTURE LIST*
G04 Aperture macros list*
%AMRoundRect*
0 Rectangle with rounded corners*
0 $1 Rounding radius*
0 $2 $3 $4 $5 $6 $7 $8 $9 X,Y pos of 4 corners*
0 Add a 4 corners polygon primitive as box body*
4,1,4,$2,$3,$4,$5,$6,$7,$8,$9,$2,$3,0*
0 Add four circle primitives for the rounded corners*
1,1,$1+$1,$2,$3*
1,1,$1+$1,$4,$5*
1,1,$1+$1,$6,$7*
1,1,$1+$1,$8,$9*
0 Add four rect primitives between the rounded corners*
20,1,$1+$1,$2,$3,$4,$5,0*
20,1,$1+$1,$4,$5,$6,$7,0*
20,1,$1+$1,$6,$7,$8,$9,0*
20,1,$1+$1,$8,$9,$2,$3,0*%
G04 Aperture macros list end*
%TA.AperFunction,ComponentPad*%
%ADD10R,1.700000X1.700000*%
%TD*%
%TA.AperFunction,ComponentPad*%
%ADD11O,1.700000X1.700000*%
%TD*%
%TA.AperFunction,ComponentPad*%
%ADD12R,2.400000X2.400000*%
%TD*%
%TA.AperFunction,ComponentPad*%
%ADD13C,2.400000*%
%TD*%
%TA.AperFunction,ComponentPad*%
%ADD14RoundRect,0.250000X-0.600000X-0.725000X0.600000X-0.725000X0.600000X0.725000X-0.600000X0.725000X0*%
%TD*%
%TA.AperFunction,ComponentPad*%
%ADD15O,1.700000X1.950000*%
%TD*%
%TA.AperFunction,ViaPad*%
%ADD16C,0.650000*%
%TD*%
%TA.AperFunction,Conductor*%
%ADD17C,0.300000*%
%TD*%
G04 APERTURE END LIST*
D10*
%TO.P,J2,1*%
%TO.N,/+5V_USB*%
X28000000Y-27430000D03*
D11*
%TO.P,J2,2*%
%TO.N,/GND*%
X30540000Y-27430000D03*
%TO.P,J2,3*%
%TO.N,unconnected-(J2-NC-Pad3)*%
X33080000Y-27430000D03*
%TO.P,J2,4*%
%TO.N,unconnected-(J2-NC-Pad4)*%
X35620000Y-27430000D03*
%TO.P,J2,5*%
%TO.N,unconnected-(J2-GPIO13-Pad5)*%
X38160000Y-27430000D03*
%TO.P,J2,6*%
%TO.N,unconnected-(J2-GPIO12-Pad6)*%
X40700000Y-27430000D03*
%TO.P,J2,7*%
%TO.N,unconnected-(J2-GPIO11-Pad7)*%
X43240000Y-27430000D03*
%TO.P,J2,8*%
%TO.N,unconnected-(J2-GPIO10-Pad8)*%
X45780000Y-27430000D03*
%TO.P,J2,9*%
%TO.N,unconnected-(J2-GPIO3-Pad9)*%
X48320000Y-27430000D03*
%TO.P,J2,10*%
%TO.N,unconnected-(J2-GPIO2-Pad10)*%
X50860000Y-27430000D03*
%TO.P,J2,11*%
%TO.N,/ADC_GPIO1*%
X53400000Y-27430000D03*
%TO.P,J2,12*%
%TO.N,/+3V3*%
X55940000Y-27430000D03*
%TD*%
D10*
%TO.P,J1,1*%
%TO.N,unconnected-(J1-3V3-Pad1)*%
X28000000Y-4570000D03*
D11*
%TO.P,J1,2*%
%TO.N,unconnected-(J1-GND-Pad2)*%
X30540000Y-4570000D03*
%TO.P,J1,3*%
%TO.N,unconnected-(J1-GND-Pad3)*%
X33080000Y-4570000D03*
%TO.P,J1,4*%
%TO.N,unconnected-(J1-NC-Pad4)*%
X35620000Y-4570000D03*
%TO.P,J1,5*%
%TO.N,unconnected-(J1-GPIO16-Pad5)*%
X38160000Y-4570000D03*
%TO.P,J1,6*%
%TO.N,unconnected-(J1-GPIO21-Pad6)*%
X40700000Y-4570000D03*
%TO.P,J1,7*%
%TO.N,unconnected-(J1-GPIO17-Pad7)*%
X43240000Y-4570000D03*
%TO.P,J1,8*%
%TO.N,unconnected-(J1-GPIO18-Pad8)*%
X45780000Y-4570000D03*
%TO.P,J1,9*%
%TO.N,unconnected-(J1-GPIO44-Pad9)*%
X48320000Y-4570000D03*
%TO.P,J1,10*%
%TO.N,unconnected-(J1-GPIO43-Pad10)*%
X50860000Y-4570000D03*
%TO.P,J1,11*%
%TO.N,unconnected-(J1-GND-Pad11)*%
X53400000Y-4570000D03*
%TO.P,J1,12*%
%TO.N,unconnected-(J1-GND-Pad12)*%
X55940000Y-4570000D03*
%TD*%
D12*
%TO.P,S1,1*%
%TO.N,/+5V_SENSOR*%
X10640000Y-38640000D03*
D13*
%TO.P,S1,2*%
X9250000Y-42000000D03*
%TO.P,S1,3*%
X10640000Y-45360000D03*
%TO.P,S1,4*%
%TO.N,/MQ3_AO*%
X17360000Y-45360000D03*
%TO.P,S1,5*%
%TO.N,/GND*%
X18750000Y-42000000D03*
%TO.P,S1,6*%
%TO.N,/MQ3_AO*%
X17360000Y-38640000D03*
%TD*%
D14*
%TO.P,J3,1*%
%TO.N,/+5V_SENSOR*%
X36000000Y-48000000D03*
D15*
%TO.P,J3,2*%
%TO.N,/GND*%
X38500000Y-48000000D03*
%TO.P,J3,3*%
%TO.N,/MQ3_AO*%
X41000000Y-48000000D03*
%TD*%
D10*
%TO.P,JP1,1*%
%TO.N,/+5V_USB*%
X3000000Y-31000000D03*
D11*
%TO.P,JP1,2*%
%TO.N,/+5V_SENSOR*%
X3000000Y-33540000D03*
%TD*%
D16*
%TO.N,/+5V_SENSOR*%
X8000000Y-25000000D03*
%TO.N,/GND*%
X31000000Y-49000000D03*
X8000000Y-19000000D03*
X49500000Y-34050000D03*
X62000000Y-47000000D03*
X47700000Y-35200000D03*
X26000000Y-36500000D03*
X37000000Y-40000000D03*
X26700000Y-39800000D03*
%TO.N,/ADC_GPIO1*%
X24000000Y-25000000D03*
X56000000Y-45000000D03*
X39950000Y-31500000D03*
%TO.N,/MQ3_AO*%
X16000000Y-25000000D03*
X27500000Y-35000000D03*
%TO.N,/+3V3*%
X51000000Y-37000000D03*
%TD*%
%TO.N,/+5V_SENSOR*%
D17*
X9000000Y-26000000D02*
X9000000Y-34539999D01*
X9000000Y-34539999D02*
X3000000Y-33540000D01*
X8000000Y-25000000D02*
X9000000Y-26000000D01*
%TO.N,/ADC_GPIO1*%
X39950000Y-30000000D02*
X39950000Y-31500000D01*
X25000000Y-26000000D02*
X25000000Y-30000000D01*
X48000000Y-37500000D02*
X56000000Y-43500000D01*
X42000000Y-31500000D02*
X48000000Y-37500000D01*
X39950000Y-31500000D02*
X42000000Y-31500000D01*
X25000000Y-30000000D02*
X39950000Y-30000000D01*
X56000000Y-43500000D02*
X56000000Y-45000000D01*
X24000000Y-25000000D02*
X25000000Y-26000000D01*
%TO.N,/MQ3_AO*%
X34000000Y-44000000D02*
X41000000Y-44000000D01*
X32000000Y-46000000D02*
X34000000Y-44000000D01*
X27500000Y-35000000D02*
X41000000Y-48000000D01*
X23000000Y-46000000D02*
X32000000Y-46000000D01*
X41000000Y-44000000D02*
X41000000Y-48000000D01*
X16000000Y-25000000D02*
X18000000Y-27000000D01*
X17360000Y-45360000D02*
X23000000Y-46000000D01*
X18000000Y-27000000D02*
X41000000Y-48000000D01*
%TO.N,/+3V3*%
X56500000Y-28000000D02*
X56500000Y-36500000D01*
X55940000Y-27430000D02*
X56500000Y-28000000D01*
X56500000Y-36500000D02*
X51000000Y-37000000D01*
%TD*%
%TA.AperFunction,Conductor*%
%TO.N,/GND*%
G36*
X56959191Y-518907D02*
G01*
X56995155Y-568407D01*
X57000000Y-599000D01*
X57000000Y-3851991D01*
X56981093Y-3910182D01*
X56931593Y-3946146D01*
X56870407Y-3946146D01*
X56820908Y-3910182D01*
X56779418Y-3853077D01*
X56779416Y-3853075D01*
X56779414Y-3853072D01*
X56656928Y-3730586D01*
X56516788Y-3628768D01*
X56516787Y-3628767D01*
X56516785Y-3628766D01*
X56362441Y-3550125D01*
X56362438Y-3550123D01*
X56197706Y-3496598D01*
X56197702Y-3496597D01*
X56026614Y-3469500D01*
X56026611Y-3469500D01*
X55853389Y-3469500D01*
X55853386Y-3469500D01*
X55682297Y-3496597D01*
X55682293Y-3496598D01*
X55517561Y-3550123D01*
X55517558Y-3550125D01*
X55363214Y-3628766D01*
X55223073Y-3730585D01*
X55100585Y-3853073D01*
X54998766Y-3993214D01*
X54920125Y-4147558D01*
X54920123Y-4147561D01*
X54866598Y-4312293D01*
X54866597Y-4312297D01*
X54839500Y-4483385D01*
X54839500Y-4656614D01*
X54866597Y-4827702D01*
X54866598Y-4827706D01*
X54920123Y-4992438D01*
X54920125Y-4992441D01*
X54920126Y-4992444D01*
X54920127Y-4992445D01*
X54998768Y-5146788D01*
X55100586Y-5286928D01*
X55223072Y-5409414D01*
X55363212Y-5511232D01*
X55517555Y-5589873D01*
X55517557Y-5589873D01*
X55517558Y-5589874D01*
X55517561Y-5589876D01*
X55682293Y-5643401D01*
X55682297Y-5643402D01*
X55853386Y-5670500D01*
X55853389Y-5670500D01*
X56026614Y-5670500D01*
X56197702Y-5643402D01*
X56197706Y-5643401D01*
X56362438Y-5589876D01*
X56362440Y-5589874D01*
X56362445Y-5589873D01*
X56516788Y-5511232D01*
X56656928Y-5409414D01*
X56779414Y-5286928D01*
X56820908Y-5229815D01*
X56870407Y-5193853D01*
X56931593Y-5193853D01*
X56981093Y-5229817D01*
X57000000Y-5288008D01*
X57000000Y-26711991D01*
X56981093Y-26770182D01*
X56931593Y-26806146D01*
X56870407Y-26806146D01*
X56820908Y-26770182D01*
X56779418Y-26713077D01*
X56779416Y-26713075D01*
X56779414Y-26713072D01*
X56656928Y-26590586D01*
X56516788Y-26488768D01*
X56516787Y-26488767D01*
X56516785Y-26488766D01*
X56362441Y-26410125D01*
X56362438Y-26410123D01*
X56197706Y-26356598D01*
X56197702Y-26356597D01*
X56026614Y-26329500D01*
X56026611Y-26329500D01*
X55853389Y-26329500D01*
X55853386Y-26329500D01*
X55682297Y-26356597D01*
X55682293Y-26356598D01*
X55517561Y-26410123D01*
X55517558Y-26410125D01*
X55363214Y-26488766D01*
X55223073Y-26590585D01*
X55100585Y-26713073D01*
X54998766Y-26853214D01*
X54920125Y-27007558D01*
X54920123Y-27007561D01*
X54866598Y-27172293D01*
X54866597Y-27172297D01*
X54839500Y-27343385D01*
X54839500Y-27516614D01*
X54866597Y-27687702D01*
X54866598Y-27687706D01*
X54920123Y-27852438D01*
X54920125Y-27852441D01*
X54920126Y-27852444D01*
X54920127Y-27852445D01*
X54998768Y-28006788D01*
X55100586Y-28146928D01*
X55223072Y-28269414D01*
X55363212Y-28371232D01*
X55517555Y-28449873D01*
X55517557Y-28449873D01*
X55517558Y-28449874D01*
X55517561Y-28449876D01*
X55682293Y-28503401D01*
X55682297Y-28503402D01*
X55853386Y-28530500D01*
X56000500Y-28530500D01*
X56058691Y-28549407D01*
X56094655Y-28598907D01*
X56099500Y-28629500D01*
X56099500Y-36043849D01*
X56080593Y-36102040D01*
X56031093Y-36138004D01*
X56009463Y-36142442D01*
X51422471Y-36559441D01*
X51362807Y-36545880D01*
X51353467Y-36539543D01*
X51222138Y-36463720D01*
X51222140Y-36463720D01*
X51165347Y-36448503D01*
X51075766Y-36424500D01*
X50924234Y-36424500D01*
X50834652Y-36448503D01*
X50777860Y-36463720D01*
X50646639Y-36539481D01*
X50539481Y-36646639D01*
X50463720Y-36777860D01*
X50447671Y-36837758D01*
X50424500Y-36924234D01*
X50424500Y-37075766D01*
X50454975Y-37189500D01*
X50463720Y-37222139D01*
X50539481Y-37353360D01*
X50539483Y-37353362D01*
X50539485Y-37353365D01*
X50646635Y-37460515D01*
X50646637Y-37460516D01*
X50646639Y-37460518D01*
X50777861Y-37536279D01*
X50777859Y-37536279D01*
X50777863Y-37536280D01*
X50777865Y-37536281D01*
X50924234Y-37575500D01*
X50924236Y-37575500D01*
X51075764Y-37575500D01*
X51075766Y-37575500D01*
X51222135Y-37536281D01*
X51222137Y-37536279D01*
X51222139Y-37536279D01*
X51353365Y-37460515D01*
X51427557Y-37386321D01*
X51482071Y-37358544D01*
X51488569Y-37357735D01*
X56513696Y-36900907D01*
X56522659Y-36900500D01*
X56552728Y-36900500D01*
X56557934Y-36899104D01*
X56562262Y-36897944D01*
X56578925Y-36894976D01*
X56588771Y-36894082D01*
X56617008Y-36883694D01*
X56625537Y-36880989D01*
X56654587Y-36873207D01*
X56663138Y-36868269D01*
X56678457Y-36861093D01*
X56687741Y-36857679D01*
X56712330Y-36840335D01*
X56719856Y-36835523D01*
X56745913Y-36820480D01*
X56752905Y-36813486D01*
X56765844Y-36802593D01*
X56773918Y-36796900D01*
X56793173Y-36773793D01*
X56799202Y-36767190D01*
X56820480Y-36745913D01*
X56825419Y-36737355D01*
X56835100Y-36723480D01*
X56841428Y-36715888D01*
X56854049Y-36688578D01*
X56858161Y-36680644D01*
X56873207Y-36654587D01*
X56875763Y-36645042D01*
X56881523Y-36629135D01*
X56885670Y-36620164D01*
X56890791Y-36590533D01*
X56892719Y-36581767D01*
X56900499Y-36552729D01*
X56900500Y-36552727D01*
X56900500Y-36542849D01*
X56901946Y-36525988D01*
X56903629Y-36516249D01*
X56903629Y-36516248D01*
X56900907Y-36486307D01*
X56900500Y-36477343D01*
X56900500Y-32099000D01*
X56919407Y-32040809D01*
X56968907Y-32004845D01*
X56999500Y-32000000D01*
X57000000Y-32000000D01*
X67401000Y-32000000D01*
X67459191Y-32018907D01*
X67495155Y-32068407D01*
X67500000Y-32099000D01*
X67500000Y-52034021D01*
X67481093Y-52092212D01*
X67471004Y-52104025D01*
X66104025Y-53471004D01*
X66049508Y-53498781D01*
X66034021Y-53500000D01*
X1965979Y-53500000D01*
X1907788Y-53481093D01*
X1895975Y-53471004D01*
X528996Y-52104025D01*
X501219Y-52049508D01*
X500000Y-52034021D01*
X500000Y-50874034D01*
X1399500Y-50874034D01*
X1399500Y-51125965D01*
X1438908Y-51374780D01*
X1438910Y-51374785D01*
X1516759Y-51614379D01*
X1631130Y-51838845D01*
X1779207Y-52042656D01*
X1957344Y-52220793D01*
X2161155Y-52368870D01*
X2385621Y-52483241D01*
X2625215Y-52561090D01*
X2625216Y-52561090D01*
X2625219Y-52561091D01*
X2874035Y-52600500D01*
X2874038Y-52600500D01*
X3125965Y-52600500D01*
X3374780Y-52561091D01*
X3374781Y-52561090D01*
X3374785Y-52561090D01*
X3614379Y-52483241D01*
X3838845Y-52368870D01*
X4042656Y-52220793D01*
X4220793Y-52042656D01*
X4368870Y-51838845D01*
X4483241Y-51614379D01*
X4561090Y-51374785D01*
X4600500Y-51125962D01*
X4600500Y-50874038D01*
X4600500Y-50874034D01*
X63399500Y-50874034D01*
X63399500Y-51125965D01*
X63438908Y-51374780D01*
X63438910Y-51374785D01*
X63516759Y-51614379D01*
X63631130Y-51838845D01*
X63779207Y-52042656D01*
X63957344Y-52220793D01*
X64161155Y-52368870D01*
X64385621Y-52483241D01*
X64625215Y-52561090D01*
X64625216Y-52561090D01*
X64625219Y-52561091D01*
X64874035Y-52600500D01*
X64874038Y-52600500D01*
X65125965Y-52600500D01*
X65374780Y-52561091D01*
X65374781Y-52561090D01*
X65374785Y-52561090D01*
X65614379Y-52483241D01*
X65838845Y-52368870D01*
X66042656Y-52220793D01*
X66220793Y-52042656D01*
X66368870Y-51838845D01*
X66483241Y-51614379D01*
X66561090Y-51374785D01*
X66600500Y-51125962D01*
X66600500Y-50874038D01*
X66600500Y-50874034D01*
X66561091Y-50625219D01*
X66561090Y-50625215D01*
X66483241Y-50385621D01*
X66368870Y-50161155D01*
X66220793Y-49957344D01*
X66042656Y-49779207D01*
X65838845Y-49631130D01*
X65838844Y-49631129D01*
X65838842Y-49631128D01*
X65614379Y-49516759D01*
X65374780Y-49438908D01*
X65125965Y-49399500D01*
X65125962Y-49399500D01*
X64874038Y-49399500D01*
X64874035Y-49399500D01*
X64625219Y-49438908D01*
X64385620Y-49516759D01*
X64161157Y-49631128D01*
X63957345Y-49779206D01*
X63779206Y-49957345D01*
X63631128Y-50161157D01*
X63516759Y-50385620D01*
X63438908Y-50625219D01*
X63399500Y-50874034D01*
X4600500Y-50874034D01*
X4561091Y-50625219D01*
X4561090Y-50625215D01*
X4483241Y-50385621D01*
X4368870Y-50161155D01*
X4220793Y-49957344D01*
X4042656Y-49779207D01*
X3838845Y-49631130D01*
X3838844Y-49631129D01*
X3838842Y-49631128D01*
X3614379Y-49516759D01*
X3374780Y-49438908D01*
X3125965Y-49399500D01*
X3125962Y-49399500D01*
X2874038Y-49399500D01*
X2874035Y-49399500D01*
X2625219Y-49438908D01*
X2385620Y-49516759D01*
X2161157Y-49631128D01*
X1957345Y-49779206D01*
X1779206Y-49957345D01*
X1631128Y-50161157D01*
X1516759Y-50385620D01*
X1438908Y-50625219D01*
X1399500Y-50874034D01*
X500000Y-50874034D01*
X500000Y-47227129D01*
X34899500Y-47227129D01*
X34899500Y-48772866D01*
X34899501Y-48772870D01*
X34905908Y-48832480D01*
X34905909Y-48832485D01*
X34956202Y-48967329D01*
X34982288Y-49002175D01*
X35042454Y-49082546D01*
X35042457Y-49082548D01*
X35042458Y-49082549D01*
X35157670Y-49168797D01*
X35292511Y-49219089D01*
X35292512Y-49219089D01*
X35292517Y-49219091D01*
X35352127Y-49225500D01*
X36647872Y-49225499D01*
X36707483Y-49219091D01*
X36783472Y-49190749D01*
X36842329Y-49168797D01*
X36842329Y-49168796D01*
X36842331Y-49168796D01*
X36957546Y-49082546D01*
X37043796Y-48967331D01*
X37094091Y-48832483D01*
X37100500Y-48772873D01*
X37100499Y-47227128D01*
X37094091Y-47167517D01*
X37078543Y-47125830D01*
X37043797Y-47032670D01*
X36957549Y-46917458D01*
X36957548Y-46917457D01*
X36957546Y-46917454D01*
X36957541Y-46917450D01*
X36842329Y-46831202D01*
X36707488Y-46780910D01*
X36707483Y-46780909D01*
X36707481Y-46780908D01*
X36707477Y-46780908D01*
X36676249Y-46777550D01*
X36647873Y-46774500D01*
X36647870Y-46774500D01*
X35352133Y-46774500D01*
X35352129Y-46774500D01*
X35352128Y-46774501D01*
X35344949Y-46775272D01*
X35292519Y-46780908D01*
X35292514Y-46780909D01*
X35157670Y-46831202D01*
X35042458Y-46917450D01*
X35042450Y-46917458D01*
X34956202Y-47032670D01*
X34905910Y-47167511D01*
X34905908Y-47167522D01*
X34899500Y-47227129D01*
X500000Y-47227129D01*
X500000Y-45245839D01*
X9189500Y-45245839D01*
X9189500Y-45474160D01*
X9225214Y-45699655D01*
X9295769Y-45916799D01*
X9399420Y-46120227D01*
X9399424Y-46120233D01*
X9533616Y-46304931D01*
X9533618Y-46304933D01*
X9533621Y-46304937D01*
X9695063Y-46466379D01*
X9695066Y-46466381D01*
X9695068Y-46466383D01*
X9855289Y-46582791D01*
X9879772Y-46600579D01*
X10083201Y-46704231D01*
X10300340Y-46774784D01*
X10300341Y-46774784D01*
X10300344Y-46774785D01*
X10525840Y-46810500D01*
X10525843Y-46810500D01*
X10754160Y-46810500D01*
X10979655Y-46774785D01*
X10979656Y-46774784D01*
X10979660Y-46774784D01*
X11196799Y-46704231D01*
X11400228Y-46600579D01*
X11584937Y-46466379D01*
X11746379Y-46304937D01*
X11880579Y-46120228D01*
X11984231Y-45916799D01*
X12054784Y-45699660D01*
X12074449Y-45575500D01*
X12090500Y-45474160D01*
X12090500Y-45245839D01*
X12054785Y-45020344D01*
X12054784Y-45020340D01*
X11984231Y-44803201D01*
X11880579Y-44599772D01*
X11880575Y-44599766D01*
X11746383Y-44415068D01*
X11746381Y-44415066D01*
X11746379Y-44415063D01*
X11584937Y-44253621D01*
X11584933Y-44253618D01*
X11584931Y-44253616D01*
X11400233Y-44119424D01*
X11400227Y-44119420D01*
X11196799Y-44015769D01*
X10979655Y-43945214D01*
X10754160Y-43909500D01*
X10754157Y-43909500D01*
X10525843Y-43909500D01*
X10525840Y-43909500D01*
X10300344Y-43945214D01*
X10083200Y-44015769D01*
X9879772Y-44119420D01*
X9879766Y-44119424D01*
X9695068Y-44253616D01*
X9533616Y-44415068D01*
X9399424Y-44599766D01*
X9399420Y-44599772D01*
X9295769Y-44803200D01*
X9225214Y-45020344D01*
X9189500Y-45245839D01*
X500000Y-45245839D01*
X500000Y-41885838D01*
X7799500Y-41885838D01*
X7799500Y-42114160D01*
X7835214Y-42339655D01*
X7905769Y-42556799D01*
X8009420Y-42760227D01*
X8009424Y-42760233D01*
X8143616Y-42944931D01*
X8143618Y-42944933D01*
X8143621Y-42944937D01*
X8305063Y-43106379D01*
X8305066Y-43106381D01*
X8305068Y-43106383D01*
X8489766Y-43240575D01*
X8489772Y-43240579D01*
X8693201Y-43344231D01*
X8910340Y-43414784D01*
X8910341Y-43414784D01*
X8910344Y-43414785D01*
X9135840Y-43450500D01*
X9135843Y-43450500D01*
X9364160Y-43450500D01*
X9589655Y-43414785D01*
X9589656Y-43414784D01*
X9589660Y-43414784D01*
X9806799Y-43344231D01*
X10010228Y-43240579D01*
X10194937Y-43106379D01*
X10356379Y-42944937D01*
X10490579Y-42760228D01*
X10594231Y-42556799D01*
X10664784Y-42339660D01*
X10679383Y-42247487D01*
X10700500Y-42114160D01*
X10700500Y-41885839D01*
X10699883Y-41881943D01*
X17250000Y-41881943D01*
X17250000Y-42118056D01*
X17286934Y-42351252D01*
X17286935Y-42351256D01*
X17359892Y-42575793D01*
X17359894Y-42575796D01*
X17467083Y-42786168D01*
X17571974Y-42930537D01*
X18220182Y-42282328D01*
X18269881Y-42368408D01*
X18381592Y-42480119D01*
X18467669Y-42529816D01*
X17819461Y-43178024D01*
X17819461Y-43178025D01*
X17963823Y-43282911D01*
X17963829Y-43282915D01*
X18174203Y-43390105D01*
X18174206Y-43390107D01*
X18398743Y-43463064D01*
X18398747Y-43463065D01*
X18631944Y-43500000D01*
X18868056Y-43500000D01*
X19101252Y-43463065D01*
X19101256Y-43463064D01*
X19325793Y-43390107D01*
X19325796Y-43390105D01*
X19536170Y-43282915D01*
X19536176Y-43282911D01*
X19680537Y-43178025D01*
X19680537Y-43178024D01*
X19032329Y-42529816D01*
X19118408Y-42480119D01*
X19230119Y-42368408D01*
X19279816Y-42282329D01*
X19928024Y-42930537D01*
X19928025Y-42930537D01*
X20032911Y-42786176D01*
X20032915Y-42786170D01*
X20140105Y-42575796D01*
X20140107Y-42575793D01*
X20213064Y-42351256D01*
X20213065Y-42351252D01*
X20250000Y-42118056D01*
X20250000Y-41881943D01*
X20213065Y-41648747D01*
X20213064Y-41648743D01*
X20140107Y-41424206D01*
X20140105Y-41424203D01*
X20032915Y-41213829D01*
X20032911Y-41213823D01*
X19928025Y-41069461D01*
X19928024Y-41069461D01*
X19279816Y-41717669D01*
X19230119Y-41631592D01*
X19118408Y-41519881D01*
X19032328Y-41470182D01*
X19680537Y-40821974D01*
X19536168Y-40717083D01*
X19325796Y-40609894D01*
X19325793Y-40609892D01*
X19101256Y-40536935D01*
X19101252Y-40536934D01*
X18868056Y-40500000D01*
X18631944Y-40500000D01*
X18398747Y-40536934D01*
X18398743Y-40536935D01*
X18174206Y-40609892D01*
X18174203Y-40609894D01*
X17963829Y-40717084D01*
X17963825Y-40717086D01*
X17819461Y-40821973D01*
X18467671Y-41470182D01*
X18381592Y-41519881D01*
X18269881Y-41631592D01*
X18220182Y-41717671D01*
X17571973Y-41069461D01*
X17467086Y-41213825D01*
X17467084Y-41213829D01*
X17359894Y-41424203D01*
X17359892Y-41424206D01*
X17286935Y-41648743D01*
X17286934Y-41648747D01*
X17250000Y-41881943D01*
X10699883Y-41881943D01*
X10664785Y-41660344D01*
X10655443Y-41631592D01*
X10594231Y-41443201D01*
X10490579Y-41239772D01*
X10490575Y-41239766D01*
X10356383Y-41055068D01*
X10356381Y-41055066D01*
X10356379Y-41055063D01*
X10194937Y-40893621D01*
X10194933Y-40893618D01*
X10194931Y-40893616D01*
X10010233Y-40759424D01*
X10010227Y-40759420D01*
X9806799Y-40655769D01*
X9589655Y-40585214D01*
X9364160Y-40549500D01*
X9364157Y-40549500D01*
X9135843Y-40549500D01*
X9135840Y-40549500D01*
X8910344Y-40585214D01*
X8693200Y-40655769D01*
X8489772Y-40759420D01*
X8489766Y-40759424D01*
X8305068Y-40893616D01*
X8143616Y-41055068D01*
X8009424Y-41239766D01*
X8009420Y-41239772D01*
X7905769Y-41443200D01*
X7835214Y-41660344D01*
X7799501Y-41885832D01*
X7799500Y-41885838D01*
X500000Y-41885838D01*
X500000Y-37415327D01*
X9189500Y-37415327D01*
X9189500Y-39864672D01*
X9189501Y-39864684D01*
X9204033Y-39937736D01*
X9204035Y-39937742D01*
X9259397Y-40020599D01*
X9259399Y-40020601D01*
X9342260Y-40075966D01*
X9397808Y-40087015D01*
X9415315Y-40090498D01*
X9415320Y-40090498D01*
X9415326Y-40090500D01*
X9415327Y-40090500D01*
X11864673Y-40090500D01*
X11864674Y-40090500D01*
X11937740Y-40075966D01*
X12020601Y-40020601D01*
X12075966Y-39937740D01*
X12090500Y-39864674D01*
X12090500Y-38525839D01*
X15909500Y-38525839D01*
X15909500Y-38754160D01*
X15945214Y-38979655D01*
X16015769Y-39196799D01*
X16119420Y-39400227D01*
X16119424Y-39400233D01*
X16253616Y-39584931D01*
X16253618Y-39584933D01*
X16253621Y-39584937D01*
X16415063Y-39746379D01*
X16415066Y-39746381D01*
X16415068Y-39746383D01*
X16599766Y-39880575D01*
X16599772Y-39880579D01*
X16803201Y-39984231D01*
X17020340Y-40054784D01*
X17020341Y-40054784D01*
X17020344Y-40054785D01*
X17245840Y-40090500D01*
X17245843Y-40090500D01*
X17474160Y-40090500D01*
X17699655Y-40054785D01*
X17699656Y-40054784D01*
X17699660Y-40054784D01*
X17916799Y-39984231D01*
X18120228Y-39880579D01*
X18304937Y-39746379D01*
X18466379Y-39584937D01*
X18600579Y-39400228D01*
X18704231Y-39196799D01*
X18774784Y-38979660D01*
X18810500Y-38754157D01*
X18810500Y-38525843D01*
X18810500Y-38525839D01*
X18774785Y-38300344D01*
X18774784Y-38300340D01*
X18704231Y-38083201D01*
X18600579Y-37879772D01*
X18567921Y-37834822D01*
X18466383Y-37695068D01*
X18466381Y-37695066D01*
X18466379Y-37695063D01*
X18304937Y-37533621D01*
X18304933Y-37533618D01*
X18304931Y-37533616D01*
X18120233Y-37399424D01*
X18120227Y-37399420D01*
X17916799Y-37295769D01*
X17699655Y-37225214D01*
X17474160Y-37189500D01*
X17474157Y-37189500D01*
X17245843Y-37189500D01*
X17245840Y-37189500D01*
X17020344Y-37225214D01*
X16803200Y-37295769D01*
X16599772Y-37399420D01*
X16599766Y-37399424D01*
X16415068Y-37533616D01*
X16253616Y-37695068D01*
X16119424Y-37879766D01*
X16119420Y-37879772D01*
X16015769Y-38083200D01*
X15945214Y-38300344D01*
X15909500Y-38525839D01*
X12090500Y-38525839D01*
X12090500Y-37415326D01*
X12075966Y-37342260D01*
X12020601Y-37259399D01*
X12020599Y-37259397D01*
X11937742Y-37204035D01*
X11937740Y-37204034D01*
X11937737Y-37204033D01*
X11937736Y-37204033D01*
X11864684Y-37189501D01*
X11864674Y-37189500D01*
X9415326Y-37189500D01*
X9415325Y-37189500D01*
X9415315Y-37189501D01*
X9342263Y-37204033D01*
X9342257Y-37204035D01*
X9259400Y-37259397D01*
X9259397Y-37259400D01*
X9204035Y-37342257D01*
X9204033Y-37342263D01*
X9189501Y-37415315D01*
X9189500Y-37415327D01*
X500000Y-37415327D01*
X500000Y-33453385D01*
X1899500Y-33453385D01*
X1899500Y-33626614D01*
X1926597Y-33797702D01*
X1926598Y-33797706D01*
X1980123Y-33962438D01*
X1980125Y-33962441D01*
X2057581Y-34114460D01*
X2058768Y-34116788D01*
X2160586Y-34256928D01*
X2283072Y-34379414D01*
X2423212Y-34481232D01*
X2577555Y-34559873D01*
X2577557Y-34559873D01*
X2577558Y-34559874D01*
X2577561Y-34559876D01*
X2742293Y-34613401D01*
X2742297Y-34613402D01*
X2913386Y-34640500D01*
X2913389Y-34640500D01*
X3086614Y-34640500D01*
X3257702Y-34613402D01*
X3257706Y-34613401D01*
X3422438Y-34559876D01*
X3422440Y-34559874D01*
X3422445Y-34559873D01*
X3576788Y-34481232D01*
X3716928Y-34379414D01*
X3839414Y-34256928D01*
X3914252Y-34153921D01*
X3963751Y-34117959D01*
X4010617Y-34114460D01*
X8910326Y-34931077D01*
X8919671Y-34933103D01*
X8947273Y-34940499D01*
X8958660Y-34940499D01*
X8974936Y-34941846D01*
X8986168Y-34943718D01*
X9014606Y-34940960D01*
X9024158Y-34940499D01*
X9052727Y-34940499D01*
X9063724Y-34937552D01*
X9079800Y-34934640D01*
X9091129Y-34933542D01*
X9091133Y-34933540D01*
X9091135Y-34933540D01*
X9117881Y-34923519D01*
X9126984Y-34920601D01*
X9154587Y-34913206D01*
X9164450Y-34907510D01*
X9179221Y-34900539D01*
X9180850Y-34899928D01*
X9189880Y-34896546D01*
X9213128Y-34879938D01*
X9221156Y-34874771D01*
X9245913Y-34860479D01*
X9253962Y-34852428D01*
X9266433Y-34841865D01*
X9275691Y-34835253D01*
X9293846Y-34813198D01*
X9300270Y-34806120D01*
X9320480Y-34785912D01*
X9326173Y-34776050D01*
X9335477Y-34762627D01*
X9342715Y-34753837D01*
X9354546Y-34727826D01*
X9358922Y-34719326D01*
X9373206Y-34694587D01*
X9373207Y-34694586D01*
X9376154Y-34683584D01*
X9381671Y-34668203D01*
X9386382Y-34657850D01*
X9391077Y-34629675D01*
X9393103Y-34620331D01*
X9400500Y-34592726D01*
X9400500Y-34581338D01*
X9401847Y-34565060D01*
X9402711Y-34559876D01*
X9403719Y-34553831D01*
X9400962Y-34525393D01*
X9400500Y-34515840D01*
X9400500Y-26060714D01*
X9400501Y-26060701D01*
X9400501Y-25947272D01*
X9400500Y-25947270D01*
X9373207Y-25845413D01*
X9373205Y-25845409D01*
X9320481Y-25754089D01*
X9320480Y-25754087D01*
X9245913Y-25679520D01*
X9245910Y-25679518D01*
X9026907Y-25460515D01*
X8604496Y-25038103D01*
X8600869Y-25030985D01*
X8594407Y-25026290D01*
X8587243Y-25004241D01*
X8576719Y-24983586D01*
X8575500Y-24968099D01*
X8575500Y-24924235D01*
X8575500Y-24924234D01*
X15424500Y-24924234D01*
X15424500Y-25075766D01*
X15459086Y-25204847D01*
X15463720Y-25222139D01*
X15539481Y-25353360D01*
X15539483Y-25353362D01*
X15539485Y-25353365D01*
X15646635Y-25460515D01*
X15646637Y-25460516D01*
X15646639Y-25460518D01*
X15777861Y-25536279D01*
X15777859Y-25536279D01*
X15777863Y-25536280D01*
X15777865Y-25536281D01*
X15924234Y-25575500D01*
X15968099Y-25575500D01*
X16026290Y-25594407D01*
X16038103Y-25604496D01*
X17678444Y-27244837D01*
X17686821Y-27255255D01*
X17686834Y-27255245D01*
X17691012Y-27260206D01*
X17721560Y-27288098D01*
X17724810Y-27291203D01*
X17754087Y-27320480D01*
X17754089Y-27320481D01*
X17759235Y-27324430D01*
X17759224Y-27324443D01*
X17770018Y-27332343D01*
X22992283Y-32100498D01*
X35395635Y-43425298D01*
X35397927Y-43427390D01*
X35428151Y-43480589D01*
X35421334Y-43541393D01*
X35380078Y-43586578D01*
X35331174Y-43599500D01*
X34052727Y-43599500D01*
X33947273Y-43599500D01*
X33884929Y-43616204D01*
X33845407Y-43626794D01*
X33754091Y-43679516D01*
X31863103Y-45570504D01*
X31808586Y-45598281D01*
X31793099Y-45599500D01*
X23028252Y-45599500D01*
X23017090Y-45598869D01*
X23011908Y-45598281D01*
X21918066Y-45474157D01*
X18865286Y-45127742D01*
X18809598Y-45102394D01*
X18779444Y-45049155D01*
X18778673Y-45044897D01*
X18774784Y-45020340D01*
X18704231Y-44803201D01*
X18600579Y-44599772D01*
X18600575Y-44599766D01*
X18466383Y-44415068D01*
X18466381Y-44415066D01*
X18466379Y-44415063D01*
X18304937Y-44253621D01*
X18304933Y-44253618D01*
X18304931Y-44253616D01*
X18120233Y-44119424D01*
X18120227Y-44119420D01*
X17916799Y-44015769D01*
X17699655Y-43945214D01*
X17474160Y-43909500D01*
X17474157Y-43909500D01*
X17245843Y-43909500D01*
X17245840Y-43909500D01*
X17020344Y-43945214D01*
X16803200Y-44015769D01*
X16599772Y-44119420D01*
X16599766Y-44119424D01*
X16415068Y-44253616D01*
X16253616Y-44415068D01*
X16119424Y-44599766D01*
X16119420Y-44599772D01*
X16015769Y-44803200D01*
X15945214Y-45020344D01*
X15909500Y-45245839D01*
X15909500Y-45474160D01*
X15945214Y-45699655D01*
X16015769Y-45916799D01*
X16119420Y-46120227D01*
X16119424Y-46120233D01*
X16253616Y-46304931D01*
X16253618Y-46304933D01*
X16253621Y-46304937D01*
X16415063Y-46466379D01*
X16415066Y-46466381D01*
X16415068Y-46466383D01*
X16575289Y-46582791D01*
X16599772Y-46600579D01*
X16803201Y-46704231D01*
X17020340Y-46774784D01*
X17020341Y-46774784D01*
X17020344Y-46774785D01*
X17245840Y-46810500D01*
X17245843Y-46810500D01*
X17474160Y-46810500D01*
X17699655Y-46774785D01*
X17699656Y-46774784D01*
X17699660Y-46774784D01*
X17916799Y-46704231D01*
X18120228Y-46600579D01*
X18304937Y-46466379D01*
X18466379Y-46304937D01*
X18600579Y-46120228D01*
X18673641Y-45976834D01*
X18716904Y-45933571D01*
X18773009Y-45923411D01*
X22272206Y-46320483D01*
X22917845Y-46393747D01*
X22932307Y-46396489D01*
X22947273Y-46400500D01*
X22971750Y-46400500D01*
X22982911Y-46401131D01*
X22984588Y-46401321D01*
X23007234Y-46403891D01*
X23022557Y-46401593D01*
X23037233Y-46400500D01*
X32052725Y-46400500D01*
X32052727Y-46400500D01*
X32154588Y-46373207D01*
X32154590Y-46373205D01*
X32154592Y-46373205D01*
X32245908Y-46320483D01*
X32245908Y-46320482D01*
X32245913Y-46320480D01*
X34136897Y-44429496D01*
X34191414Y-44401719D01*
X34206901Y-44400500D01*
X36425317Y-44400500D01*
X36483508Y-44419407D01*
X36492067Y-44426387D01*
X38853842Y-46582791D01*
X38884066Y-46635990D01*
X38877249Y-46696794D01*
X38835993Y-46741979D01*
X38776058Y-46754285D01*
X38771602Y-46753682D01*
X38675000Y-46738381D01*
X38675000Y-47555134D01*
X38562535Y-47525000D01*
X38437465Y-47525000D01*
X38325000Y-47555134D01*
X38325000Y-46738382D01*
X38324999Y-46738381D01*
X38230710Y-46753316D01*
X38058559Y-46809250D01*
X37897269Y-46891431D01*
X37897265Y-46891433D01*
X37750830Y-46997824D01*
X37622824Y-47125830D01*
X37516433Y-47272265D01*
X37516431Y-47272269D01*
X37434250Y-47433559D01*
X37378316Y-47605710D01*
X37350000Y-47784489D01*
X37350000Y-47824999D01*
X37350001Y-47825000D01*
X38055135Y-47825000D01*
X38025000Y-47937465D01*
X38025000Y-48062535D01*
X38055135Y-48175000D01*
X37350001Y-48175000D01*
X37350000Y-48175001D01*
X37350000Y-48215510D01*
X37378316Y-48394289D01*
X37434250Y-48566440D01*
X37516431Y-48727730D01*
X37516433Y-48727734D01*
X37622824Y-48874169D01*
X37750830Y-49002175D01*
X37897265Y-49108566D01*
X37897269Y-49108568D01*
X38058559Y-49190749D01*
X38230710Y-49246683D01*
X38230707Y-49246683D01*
X38325000Y-49261617D01*
X38325000Y-48444865D01*
X38437465Y-48475000D01*
X38562535Y-48475000D01*
X38675000Y-48444865D01*
X38675000Y-49261616D01*
X38769290Y-49246683D01*
X38941440Y-49190749D01*
X39102730Y-49108568D01*
X39102734Y-49108566D01*
X39249169Y-49002175D01*
X39377175Y-48874169D01*
X39483566Y-48727734D01*
X39483568Y-48727730D01*
X39565749Y-48566440D01*
X39621683Y-48394289D01*
X39650000Y-48215510D01*
X39650000Y-48175001D01*
X39649999Y-48175000D01*
X38944865Y-48175000D01*
X38975000Y-48062535D01*
X38975000Y-47937465D01*
X38944865Y-47825000D01*
X39649999Y-47825000D01*
X39650000Y-47824999D01*
X39650000Y-47784489D01*
X39621683Y-47605710D01*
X39588779Y-47504438D01*
X39588780Y-47443253D01*
X39624744Y-47393753D01*
X39682934Y-47374846D01*
X39741125Y-47393754D01*
X39749680Y-47400730D01*
X39863265Y-47504438D01*
X39894845Y-47533272D01*
X39925069Y-47586471D01*
X39925873Y-47621869D01*
X39899500Y-47788385D01*
X39899500Y-48211614D01*
X39926597Y-48382702D01*
X39926598Y-48382706D01*
X39980123Y-48547438D01*
X39980125Y-48547441D01*
X39980126Y-48547444D01*
X39980127Y-48547445D01*
X40058768Y-48701788D01*
X40160586Y-48841928D01*
X40283072Y-48964414D01*
X40423212Y-49066232D01*
X40577555Y-49144873D01*
X40577557Y-49144873D01*
X40577558Y-49144874D01*
X40577561Y-49144876D01*
X40742293Y-49198401D01*
X40742297Y-49198402D01*
X40913386Y-49225500D01*
X40913389Y-49225500D01*
X41086614Y-49225500D01*
X41257702Y-49198402D01*
X41257706Y-49198401D01*
X41422438Y-49144876D01*
X41422440Y-49144874D01*
X41422445Y-49144873D01*
X41576788Y-49066232D01*
X41716928Y-48964414D01*
X41839414Y-48841928D01*
X41941232Y-48701788D01*
X42019873Y-48547445D01*
X42019874Y-48547440D01*
X42019876Y-48547438D01*
X42073401Y-48382706D01*
X42073402Y-48382702D01*
X42100500Y-48211614D01*
X42100500Y-47788385D01*
X42073402Y-47617297D01*
X42073401Y-47617293D01*
X42019876Y-47452561D01*
X42019874Y-47452558D01*
X42019873Y-47452557D01*
X42019873Y-47452555D01*
X41941232Y-47298212D01*
X41839414Y-47158072D01*
X41716928Y-47035586D01*
X41653430Y-46989451D01*
X41576786Y-46933766D01*
X41481744Y-46885341D01*
X41454554Y-46871487D01*
X41411291Y-46828224D01*
X41400500Y-46783278D01*
X41400500Y-43947274D01*
X41399948Y-43945214D01*
X41373207Y-43845413D01*
X41320480Y-43754087D01*
X41245913Y-43679520D01*
X41245906Y-43679516D01*
X41154589Y-43626794D01*
X41154588Y-43626793D01*
X41154587Y-43626793D01*
X41052727Y-43599500D01*
X41052725Y-43599500D01*
X37047555Y-43599500D01*
X36989364Y-43580593D01*
X36978884Y-43571812D01*
X36884152Y-43480589D01*
X34981851Y-41648743D01*
X28105829Y-35027387D01*
X28077028Y-34973404D01*
X28075500Y-34956075D01*
X28075500Y-34924235D01*
X28072545Y-34913206D01*
X28036281Y-34777865D01*
X28036279Y-34777862D01*
X28036279Y-34777860D01*
X27960518Y-34646639D01*
X27960516Y-34646637D01*
X27960515Y-34646635D01*
X27853365Y-34539485D01*
X27853362Y-34539483D01*
X27853360Y-34539481D01*
X27722138Y-34463720D01*
X27722140Y-34463720D01*
X27665347Y-34448503D01*
X27575766Y-34424500D01*
X27424234Y-34424500D01*
X27334652Y-34448503D01*
X27277860Y-34463720D01*
X27146639Y-34539481D01*
X27146634Y-34539485D01*
X27072672Y-34613447D01*
X27018155Y-34641224D01*
X26957723Y-34631652D01*
X26935916Y-34616553D01*
X18278429Y-26711891D01*
X18275178Y-26708785D01*
X16604496Y-25038103D01*
X16600869Y-25030985D01*
X16594407Y-25026290D01*
X16587243Y-25004241D01*
X16576719Y-24983586D01*
X16575500Y-24968099D01*
X16575500Y-24924235D01*
X16575500Y-24924234D01*
X23424500Y-24924234D01*
X23424500Y-25075766D01*
X23459086Y-25204847D01*
X23463720Y-25222139D01*
X23539481Y-25353360D01*
X23539483Y-25353362D01*
X23539485Y-25353365D01*
X23646635Y-25460515D01*
X23646637Y-25460516D01*
X23646639Y-25460518D01*
X23777861Y-25536279D01*
X23777859Y-25536279D01*
X23777863Y-25536280D01*
X23777865Y-25536281D01*
X23924234Y-25575500D01*
X23968099Y-25575500D01*
X24026290Y-25594407D01*
X24038103Y-25604496D01*
X24570504Y-26136896D01*
X24598281Y-26191413D01*
X24599500Y-26206900D01*
X24599500Y-29947273D01*
X24599500Y-30052727D01*
X24618950Y-30125315D01*
X24626794Y-30154589D01*
X24626794Y-30154590D01*
X24679518Y-30245910D01*
X24679520Y-30245913D01*
X24754087Y-30320480D01*
X24845413Y-30373207D01*
X24947273Y-30400500D01*
X39450500Y-30400500D01*
X39508691Y-30419407D01*
X39544655Y-30468907D01*
X39549500Y-30499500D01*
X39549500Y-31045612D01*
X39530593Y-31103803D01*
X39520505Y-31115615D01*
X39489481Y-31146639D01*
X39413720Y-31277860D01*
X39413719Y-31277865D01*
X39374500Y-31424234D01*
X39374500Y-31575766D01*
X39409086Y-31704847D01*
X39413720Y-31722139D01*
X39489481Y-31853360D01*
X39489483Y-31853362D01*
X39489485Y-31853365D01*
X39596635Y-31960515D01*
X39596637Y-31960516D01*
X39596639Y-31960518D01*
X39727861Y-32036279D01*
X39727859Y-32036279D01*
X39727863Y-32036280D01*
X39727865Y-32036281D01*
X39874234Y-32075500D01*
X39874236Y-32075500D01*
X40025764Y-32075500D01*
X40025766Y-32075500D01*
X40172135Y-32036281D01*
X40172137Y-32036279D01*
X40172139Y-32036279D01*
X40303360Y-31960518D01*
X40303360Y-31960517D01*
X40303365Y-31960515D01*
X40334385Y-31929495D01*
X40388902Y-31901719D01*
X40404388Y-31900500D01*
X41793099Y-31900500D01*
X41851290Y-31919407D01*
X41863103Y-31929496D01*
X47695605Y-37761998D01*
X47703476Y-37770875D01*
X47717518Y-37788764D01*
X47731304Y-37799103D01*
X47741892Y-37808285D01*
X47754087Y-37820480D01*
X47769410Y-37829326D01*
X47773781Y-37831850D01*
X47783682Y-37838387D01*
X55559900Y-43670549D01*
X55595108Y-43720589D01*
X55599500Y-43749749D01*
X55599500Y-44545612D01*
X55580593Y-44603803D01*
X55570505Y-44615615D01*
X55539481Y-44646639D01*
X55463720Y-44777860D01*
X55456930Y-44803201D01*
X55424500Y-44924234D01*
X55424500Y-45075766D01*
X55438427Y-45127742D01*
X55463720Y-45222139D01*
X55539481Y-45353360D01*
X55539483Y-45353362D01*
X55539485Y-45353365D01*
X55646635Y-45460515D01*
X55646637Y-45460516D01*
X55646639Y-45460518D01*
X55777861Y-45536279D01*
X55777859Y-45536279D01*
X55777863Y-45536280D01*
X55777865Y-45536281D01*
X55924234Y-45575500D01*
X55924236Y-45575500D01*
X56075764Y-45575500D01*
X56075766Y-45575500D01*
X56222135Y-45536281D01*
X56222137Y-45536279D01*
X56222139Y-45536279D01*
X56353360Y-45460518D01*
X56353360Y-45460517D01*
X56353365Y-45460515D01*
X56460515Y-45353365D01*
X56522593Y-45245843D01*
X56536279Y-45222139D01*
X56536279Y-45222137D01*
X56536281Y-45222135D01*
X56575500Y-45075766D01*
X56575500Y-44924234D01*
X56536281Y-44777865D01*
X56536279Y-44777862D01*
X56536279Y-44777860D01*
X56460518Y-44646639D01*
X56460517Y-44646638D01*
X56460516Y-44646637D01*
X56460515Y-44646635D01*
X56429495Y-44615615D01*
X56401719Y-44561098D01*
X56400500Y-44545612D01*
X56400500Y-43529983D01*
X56401211Y-43518141D01*
X56403932Y-43495556D01*
X56401495Y-43478498D01*
X56400500Y-43464497D01*
X56400500Y-43447274D01*
X56400500Y-43447273D01*
X56394612Y-43425298D01*
X56392234Y-43413677D01*
X56389018Y-43391164D01*
X56382248Y-43375316D01*
X56377668Y-43362064D01*
X56373207Y-43345413D01*
X56361834Y-43325714D01*
X56356527Y-43315101D01*
X56347593Y-43294185D01*
X56336953Y-43280629D01*
X56329092Y-43269004D01*
X56320479Y-43254086D01*
X56320478Y-43254085D01*
X56304393Y-43237999D01*
X56296524Y-43229125D01*
X56282482Y-43211236D01*
X56268693Y-43200894D01*
X56258103Y-43191710D01*
X56245913Y-43179520D01*
X56245910Y-43179518D01*
X56245908Y-43179516D01*
X56226214Y-43168146D01*
X56216314Y-43161610D01*
X55715735Y-42786176D01*
X51201144Y-39400233D01*
X48268704Y-37200903D01*
X48258100Y-37191707D01*
X45323316Y-34256923D01*
X42245913Y-31179520D01*
X42245910Y-31179518D01*
X42245909Y-31179517D01*
X42245908Y-31179516D01*
X42154591Y-31126794D01*
X42154593Y-31126794D01*
X42112870Y-31115615D01*
X42052727Y-31099500D01*
X42052725Y-31099500D01*
X40449500Y-31099500D01*
X40391309Y-31080593D01*
X40355345Y-31031093D01*
X40350500Y-31000500D01*
X40350500Y-29947274D01*
X40350500Y-29947273D01*
X40323207Y-29845413D01*
X40270480Y-29754087D01*
X40195913Y-29679520D01*
X40104587Y-29626793D01*
X40002727Y-29599500D01*
X40002725Y-29599500D01*
X25499500Y-29599500D01*
X25441309Y-29580593D01*
X25405345Y-29531093D01*
X25400500Y-29500500D01*
X25400500Y-26555327D01*
X26899500Y-26555327D01*
X26899500Y-28304672D01*
X26899501Y-28304684D01*
X26914033Y-28377736D01*
X26914035Y-28377742D01*
X26969397Y-28460599D01*
X26969400Y-28460602D01*
X27033455Y-28503401D01*
X27052260Y-28515966D01*
X27107808Y-28527015D01*
X27125315Y-28530498D01*
X27125320Y-28530498D01*
X27125326Y-28530500D01*
X27125327Y-28530500D01*
X28874673Y-28530500D01*
X28874674Y-28530500D01*
X28947740Y-28515966D01*
X29030601Y-28460601D01*
X29085966Y-28377740D01*
X29100500Y-28304674D01*
X29100500Y-27254999D01*
X29403381Y-27254999D01*
X29403382Y-27255000D01*
X30069254Y-27255000D01*
X30040000Y-27364174D01*
X30040000Y-27495826D01*
X30069254Y-27605000D01*
X29403381Y-27605000D01*
X29418316Y-27699289D01*
X29474250Y-27871440D01*
X29556431Y-28032730D01*
X29556433Y-28032734D01*
X29662824Y-28179169D01*
X29790830Y-28307175D01*
X29937265Y-28413566D01*
X29937269Y-28413568D01*
X30098559Y-28495749D01*
X30270710Y-28551683D01*
X30270707Y-28551683D01*
X30365000Y-28566617D01*
X30365000Y-27900746D01*
X30474174Y-27930000D01*
X30605826Y-27930000D01*
X30715000Y-27900746D01*
X30715000Y-28566616D01*
X30809290Y-28551683D01*
X30981440Y-28495749D01*
X31142730Y-28413568D01*
X31142734Y-28413566D01*
X31289169Y-28307175D01*
X31417175Y-28179169D01*
X31523566Y-28032734D01*
X31523568Y-28032730D01*
X31605749Y-27871440D01*
X31661683Y-27699289D01*
X31676618Y-27605000D01*
X31010746Y-27605000D01*
X31040000Y-27495826D01*
X31040000Y-27364174D01*
X31034429Y-27343385D01*
X31979500Y-27343385D01*
X31979500Y-27516614D01*
X32006597Y-27687702D01*
X32006598Y-27687706D01*
X32060123Y-27852438D01*
X32060125Y-27852441D01*
X32060126Y-27852444D01*
X32060127Y-27852445D01*
X32138768Y-28006788D01*
X32240586Y-28146928D01*
X32363072Y-28269414D01*
X32503212Y-28371232D01*
X32657555Y-28449873D01*
X32657557Y-28449873D01*
X32657558Y-28449874D01*
X32657561Y-28449876D01*
X32822293Y-28503401D01*
X32822297Y-28503402D01*
X32993386Y-28530500D01*
X32993389Y-28530500D01*
X33166614Y-28530500D01*
X33337702Y-28503402D01*
X33337706Y-28503401D01*
X33502438Y-28449876D01*
X33502440Y-28449874D01*
X33502445Y-28449873D01*
X33656788Y-28371232D01*
X33796928Y-28269414D01*
X33919414Y-28146928D01*
X34021232Y-28006788D01*
X34099873Y-27852445D01*
X34099874Y-27852440D01*
X34099876Y-27852438D01*
X34153401Y-27687706D01*
X34153402Y-27687702D01*
X34180500Y-27516614D01*
X34180500Y-27343385D01*
X34519500Y-27343385D01*
X34519500Y-27516614D01*
X34546597Y-27687702D01*
X34546598Y-27687706D01*
X34600123Y-27852438D01*
X34600125Y-27852441D01*
X34600126Y-27852444D01*
X34600127Y-27852445D01*
X34678768Y-28006788D01*
X34780586Y-28146928D01*
X34903072Y-28269414D01*
X35043212Y-28371232D01*
X35197555Y-28449873D01*
X35197557Y-28449873D01*
X35197558Y-28449874D01*
X35197561Y-28449876D01*
X35362293Y-28503401D01*
X35362297Y-28503402D01*
X35533386Y-28530500D01*
X35533389Y-28530500D01*
X35706614Y-28530500D01*
X35877702Y-28503402D01*
X35877706Y-28503401D01*
X36042438Y-28449876D01*
X36042440Y-28449874D01*
X36042445Y-28449873D01*
X36196788Y-28371232D01*
X36336928Y-28269414D01*
X36459414Y-28146928D01*
X36561232Y-28006788D01*
X36639873Y-27852445D01*
X36639874Y-27852440D01*
X36639876Y-27852438D01*
X36693401Y-27687706D01*
X36693402Y-27687702D01*
X36720500Y-27516614D01*
X36720500Y-27343385D01*
X37059500Y-27343385D01*
X37059500Y-27516614D01*
X37086597Y-27687702D01*
X37086598Y-27687706D01*
X37140123Y-27852438D01*
X37140125Y-27852441D01*
X37140126Y-27852444D01*
X37140127Y-27852445D01*
X37218768Y-28006788D01*
X37320586Y-28146928D01*
X37443072Y-28269414D01*
X37583212Y-28371232D01*
X37737555Y-28449873D01*
X37737557Y-28449873D01*
X37737558Y-28449874D01*
X37737561Y-28449876D01*
X37902293Y-28503401D01*
X37902297Y-28503402D01*
X38073386Y-28530500D01*
X38073389Y-28530500D01*
X38246614Y-28530500D01*
X38417702Y-28503402D01*
X38417706Y-28503401D01*
X38582438Y-28449876D01*
X38582440Y-28449874D01*
X38582445Y-28449873D01*
X38736788Y-28371232D01*
X38876928Y-28269414D01*
X38999414Y-28146928D01*
X39101232Y-28006788D01*
X39179873Y-27852445D01*
X39179874Y-27852440D01*
X39179876Y-27852438D01*
X39233401Y-27687706D01*
X39233402Y-27687702D01*
X39260500Y-27516614D01*
X39260500Y-27343385D01*
X39599500Y-27343385D01*
X39599500Y-27516614D01*
X39626597Y-27687702D01*
X39626598Y-27687706D01*
X39680123Y-27852438D01*
X39680125Y-27852441D01*
X39680126Y-27852444D01*
X39680127Y-27852445D01*
X39758768Y-28006788D01*
X39860586Y-28146928D01*
X39983072Y-28269414D01*
X40123212Y-28371232D01*
X40277555Y-28449873D01*
X40277557Y-28449873D01*
X40277558Y-28449874D01*
X40277561Y-28449876D01*
X40442293Y-28503401D01*
X40442297Y-28503402D01*
X40613386Y-28530500D01*
X40613389Y-28530500D01*
X40786614Y-28530500D01*
X40957702Y-28503402D01*
X40957706Y-28503401D01*
X41122438Y-28449876D01*
X41122440Y-28449874D01*
X41122445Y-28449873D01*
X41276788Y-28371232D01*
X41416928Y-28269414D01*
X41539414Y-28146928D01*
X41641232Y-28006788D01*
X41719873Y-27852445D01*
X41719874Y-27852440D01*
X41719876Y-27852438D01*
X41773401Y-27687706D01*
X41773402Y-27687702D01*
X41800500Y-27516614D01*
X41800500Y-27343385D01*
X42139500Y-27343385D01*
X42139500Y-27516614D01*
X42166597Y-27687702D01*
X42166598Y-27687706D01*
X42220123Y-27852438D01*
X42220125Y-27852441D01*
X42220126Y-27852444D01*
X42220127Y-27852445D01*
X42298768Y-28006788D01*
X42400586Y-28146928D01*
X42523072Y-28269414D01*
X42663212Y-28371232D01*
X42817555Y-28449873D01*
X42817557Y-28449873D01*
X42817558Y-28449874D01*
X42817561Y-28449876D01*
X42982293Y-28503401D01*
X42982297Y-28503402D01*
X43153386Y-28530500D01*
X43153389Y-28530500D01*
X43326614Y-28530500D01*
X43497702Y-28503402D01*
X43497706Y-28503401D01*
X43662438Y-28449876D01*
X43662440Y-28449874D01*
X43662445Y-28449873D01*
X43816788Y-28371232D01*
X43956928Y-28269414D01*
X44079414Y-28146928D01*
X44181232Y-28006788D01*
X44259873Y-27852445D01*
X44259874Y-27852440D01*
X44259876Y-27852438D01*
X44313401Y-27687706D01*
X44313402Y-27687702D01*
X44340500Y-27516614D01*
X44340500Y-27343385D01*
X44679500Y-27343385D01*
X44679500Y-27516614D01*
X44706597Y-27687702D01*
X44706598Y-27687706D01*
X44760123Y-27852438D01*
X44760125Y-27852441D01*
X44760126Y-27852444D01*
X44760127Y-27852445D01*
X44838768Y-28006788D01*
X44940586Y-28146928D01*
X45063072Y-28269414D01*
X45203212Y-28371232D01*
X45357555Y-28449873D01*
X45357557Y-28449873D01*
X45357558Y-28449874D01*
X45357561Y-28449876D01*
X45522293Y-28503401D01*
X45522297Y-28503402D01*
X45693386Y-28530500D01*
X45693389Y-28530500D01*
X45866614Y-28530500D01*
X46037702Y-28503402D01*
X46037706Y-28503401D01*
X46202438Y-28449876D01*
X46202440Y-28449874D01*
X46202445Y-28449873D01*
X46356788Y-28371232D01*
X46496928Y-28269414D01*
X46619414Y-28146928D01*
X46721232Y-28006788D01*
X46799873Y-27852445D01*
X46799874Y-27852440D01*
X46799876Y-27852438D01*
X46853401Y-27687706D01*
X46853402Y-27687702D01*
X46880500Y-27516614D01*
X46880500Y-27343385D01*
X47219500Y-27343385D01*
X47219500Y-27516614D01*
X47246597Y-27687702D01*
X47246598Y-27687706D01*
X47300123Y-27852438D01*
X47300125Y-27852441D01*
X47300126Y-27852444D01*
X47300127Y-27852445D01*
X47378768Y-28006788D01*
X47480586Y-28146928D01*
X47603072Y-28269414D01*
X47743212Y-28371232D01*
X47897555Y-28449873D01*
X47897557Y-28449873D01*
X47897558Y-28449874D01*
X47897561Y-28449876D01*
X48062293Y-28503401D01*
X48062297Y-28503402D01*
X48233386Y-28530500D01*
X48233389Y-28530500D01*
X48406614Y-28530500D01*
X48577702Y-28503402D01*
X48577706Y-28503401D01*
X48742438Y-28449876D01*
X48742440Y-28449874D01*
X48742445Y-28449873D01*
X48896788Y-28371232D01*
X49036928Y-28269414D01*
X49159414Y-28146928D01*
X49261232Y-28006788D01*
X49339873Y-27852445D01*
X49339874Y-27852440D01*
X49339876Y-27852438D01*
X49393401Y-27687706D01*
X49393402Y-27687702D01*
X49420500Y-27516614D01*
X49420500Y-27343385D01*
X49759500Y-27343385D01*
X49759500Y-27516614D01*
X49786597Y-27687702D01*
X49786598Y-27687706D01*
X49840123Y-27852438D01*
X49840125Y-27852441D01*
X49840126Y-27852444D01*
X49840127Y-27852445D01*
X49918768Y-28006788D01*
X50020586Y-28146928D01*
X50143072Y-28269414D01*
X50283212Y-28371232D01*
X50437555Y-28449873D01*
X50437557Y-28449873D01*
X50437558Y-28449874D01*
X50437561Y-28449876D01*
X50602293Y-28503401D01*
X50602297Y-28503402D01*
X50773386Y-28530500D01*
X50773389Y-28530500D01*
X50946614Y-28530500D01*
X51117702Y-28503402D01*
X51117706Y-28503401D01*
X51282438Y-28449876D01*
X51282440Y-28449874D01*
X51282445Y-28449873D01*
X51436788Y-28371232D01*
X51576928Y-28269414D01*
X51699414Y-28146928D01*
X51801232Y-28006788D01*
X51879873Y-27852445D01*
X51879874Y-27852440D01*
X51879876Y-27852438D01*
X51933401Y-27687706D01*
X51933402Y-27687702D01*
X51960500Y-27516614D01*
X51960500Y-27343385D01*
X52299500Y-27343385D01*
X52299500Y-27516614D01*
X52326597Y-27687702D01*
X52326598Y-27687706D01*
X52380123Y-27852438D01*
X52380125Y-27852441D01*
X52380126Y-27852444D01*
X52380127Y-27852445D01*
X52458768Y-28006788D01*
X52560586Y-28146928D01*
X52683072Y-28269414D01*
X52823212Y-28371232D01*
X52977555Y-28449873D01*
X52977557Y-28449873D01*
X52977558Y-28449874D01*
X52977561Y-28449876D01*
X53142293Y-28503401D01*
X53142297Y-28503402D01*
X53313386Y-28530500D01*
X53313389Y-28530500D01*
X53486614Y-28530500D01*
X53657702Y-28503402D01*
X53657706Y-28503401D01*
X53822438Y-28449876D01*
X53822440Y-28449874D01*
X53822445Y-28449873D01*
X53976788Y-28371232D01*
X54116928Y-28269414D01*
X54239414Y-28146928D01*
X54341232Y-28006788D01*
X54419873Y-27852445D01*
X54419874Y-27852440D01*
X54419876Y-27852438D01*
X54473401Y-27687706D01*
X54473402Y-27687702D01*
X54500500Y-27516614D01*
X54500500Y-27343385D01*
X54473402Y-27172297D01*
X54473401Y-27172293D01*
X54419876Y-27007561D01*
X54419874Y-27007558D01*
X54419873Y-27007557D01*
X54419873Y-27007555D01*
X54341232Y-26853212D01*
X54239414Y-26713072D01*
X54116928Y-26590586D01*
X53976788Y-26488768D01*
X53976787Y-26488767D01*
X53976785Y-26488766D01*
X53822441Y-26410125D01*
X53822438Y-26410123D01*
X53657706Y-26356598D01*
X53657702Y-26356597D01*
X53486614Y-26329500D01*
X53486611Y-26329500D01*
X53313389Y-26329500D01*
X53313386Y-26329500D01*
X53142297Y-26356597D01*
X53142293Y-26356598D01*
X52977561Y-26410123D01*
X52977558Y-26410125D01*
X52823214Y-26488766D01*
X52683073Y-26590585D01*
X52560585Y-26713073D01*
X52458766Y-26853214D01*
X52380125Y-27007558D01*
X52380123Y-27007561D01*
X52326598Y-27172293D01*
X52326597Y-27172297D01*
X52299500Y-27343385D01*
X51960500Y-27343385D01*
X51933402Y-27172297D01*
X51933401Y-27172293D01*
X51879876Y-27007561D01*
X51879874Y-27007558D01*
X51879873Y-27007557D01*
X51879873Y-27007555D01*
X51801232Y-26853212D01*
X51699414Y-26713072D01*
X51576928Y-26590586D01*
X51436788Y-26488768D01*
X51436787Y-26488767D01*
X51436785Y-26488766D01*
X51282441Y-26410125D01*
X51282438Y-26410123D01*
X51117706Y-26356598D01*
X51117702Y-26356597D01*
X50946614Y-26329500D01*
X50946611Y-26329500D01*
X50773389Y-26329500D01*
X50773386Y-26329500D01*
X50602297Y-26356597D01*
X50602293Y-26356598D01*
X50437561Y-26410123D01*
X50437558Y-26410125D01*
X50283214Y-26488766D01*
X50143073Y-26590585D01*
X50020585Y-26713073D01*
X49918766Y-26853214D01*
X49840125Y-27007558D01*
X49840123Y-27007561D01*
X49786598Y-27172293D01*
X49786597Y-27172297D01*
X49759500Y-27343385D01*
X49420500Y-27343385D01*
X49393402Y-27172297D01*
X49393401Y-27172293D01*
X49339876Y-27007561D01*
X49339874Y-27007558D01*
X49339873Y-27007557D01*
X49339873Y-27007555D01*
X49261232Y-26853212D01*
X49159414Y-26713072D01*
X49036928Y-26590586D01*
X48896788Y-26488768D01*
X48896787Y-26488767D01*
X48896785Y-26488766D01*
X48742441Y-26410125D01*
X48742438Y-26410123D01*
X48577706Y-26356598D01*
X48577702Y-26356597D01*
X48406614Y-26329500D01*
X48406611Y-26329500D01*
X48233389Y-26329500D01*
X48233386Y-26329500D01*
X48062297Y-26356597D01*
X48062293Y-26356598D01*
X47897561Y-26410123D01*
X47897558Y-26410125D01*
X47743214Y-26488766D01*
X47603073Y-26590585D01*
X47480585Y-26713073D01*
X47378766Y-26853214D01*
X47300125Y-27007558D01*
X47300123Y-27007561D01*
X47246598Y-27172293D01*
X47246597Y-27172297D01*
X47219500Y-27343385D01*
X46880500Y-27343385D01*
X46853402Y-27172297D01*
X46853401Y-27172293D01*
X46799876Y-27007561D01*
X46799874Y-27007558D01*
X46799873Y-27007557D01*
X46799873Y-27007555D01*
X46721232Y-26853212D01*
X46619414Y-26713072D01*
X46496928Y-26590586D01*
X46356788Y-26488768D01*
X46356787Y-26488767D01*
X46356785Y-26488766D01*
X46202441Y-26410125D01*
X46202438Y-26410123D01*
X46037706Y-26356598D01*
X46037702Y-26356597D01*
X45866614Y-26329500D01*
X45866611Y-26329500D01*
X45693389Y-26329500D01*
X45693386Y-26329500D01*
X45522297Y-26356597D01*
X45522293Y-26356598D01*
X45357561Y-26410123D01*
X45357558Y-26410125D01*
X45203214Y-26488766D01*
X45063073Y-26590585D01*
X44940585Y-26713073D01*
X44838766Y-26853214D01*
X44760125Y-27007558D01*
X44760123Y-27007561D01*
X44706598Y-27172293D01*
X44706597Y-27172297D01*
X44679500Y-27343385D01*
X44340500Y-27343385D01*
X44313402Y-27172297D01*
X44313401Y-27172293D01*
X44259876Y-27007561D01*
X44259874Y-27007558D01*
X44259873Y-27007557D01*
X44259873Y-27007555D01*
X44181232Y-26853212D01*
X44079414Y-26713072D01*
X43956928Y-26590586D01*
X43816788Y-26488768D01*
X43816787Y-26488767D01*
X43816785Y-26488766D01*
X43662441Y-26410125D01*
X43662438Y-26410123D01*
X43497706Y-26356598D01*
X43497702Y-26356597D01*
X43326614Y-26329500D01*
X43326611Y-26329500D01*
X43153389Y-26329500D01*
X43153386Y-26329500D01*
X42982297Y-26356597D01*
X42982293Y-26356598D01*
X42817561Y-26410123D01*
X42817558Y-26410125D01*
X42663214Y-26488766D01*
X42523073Y-26590585D01*
X42400585Y-26713073D01*
X42298766Y-26853214D01*
X42220125Y-27007558D01*
X42220123Y-27007561D01*
X42166598Y-27172293D01*
X42166597Y-27172297D01*
X42139500Y-27343385D01*
X41800500Y-27343385D01*
X41773402Y-27172297D01*
X41773401Y-27172293D01*
X41719876Y-27007561D01*
X41719874Y-27007558D01*
X41719873Y-27007557D01*
X41719873Y-27007555D01*
X41641232Y-26853212D01*
X41539414Y-26713072D01*
X41416928Y-26590586D01*
X41276788Y-26488768D01*
X41276787Y-26488767D01*
X41276785Y-26488766D01*
X41122441Y-26410125D01*
X41122438Y-26410123D01*
X40957706Y-26356598D01*
X40957702Y-26356597D01*
X40786614Y-26329500D01*
X40786611Y-26329500D01*
X40613389Y-26329500D01*
X40613386Y-26329500D01*
X40442297Y-26356597D01*
X40442293Y-26356598D01*
X40277561Y-26410123D01*
X40277558Y-26410125D01*
X40123214Y-26488766D01*
X39983073Y-26590585D01*
X39860585Y-26713073D01*
X39758766Y-26853214D01*
X39680125Y-27007558D01*
X39680123Y-27007561D01*
X39626598Y-27172293D01*
X39626597Y-27172297D01*
X39599500Y-27343385D01*
X39260500Y-27343385D01*
X39233402Y-27172297D01*
X39233401Y-27172293D01*
X39179876Y-27007561D01*
X39179874Y-27007558D01*
X39179873Y-27007557D01*
X39179873Y-27007555D01*
X39101232Y-26853212D01*
X38999414Y-26713072D01*
X38876928Y-26590586D01*
X38736788Y-26488768D01*
X38736787Y-26488767D01*
X38736785Y-26488766D01*
X38582441Y-26410125D01*
X38582438Y-26410123D01*
X38417706Y-26356598D01*
X38417702Y-26356597D01*
X38246614Y-26329500D01*
X38246611Y-26329500D01*
X38073389Y-26329500D01*
X38073386Y-26329500D01*
X37902297Y-26356597D01*
X37902293Y-26356598D01*
X37737561Y-26410123D01*
X37737558Y-26410125D01*
X37583214Y-26488766D01*
X37443073Y-26590585D01*
X37320585Y-26713073D01*
X37218766Y-26853214D01*
X37140125Y-27007558D01*
X37140123Y-27007561D01*
X37086598Y-27172293D01*
X37086597Y-27172297D01*
X37059500Y-27343385D01*
X36720500Y-27343385D01*
X36693402Y-27172297D01*
X36693401Y-27172293D01*
X36639876Y-27007561D01*
X36639874Y-27007558D01*
X36639873Y-27007557D01*
X36639873Y-27007555D01*
X36561232Y-26853212D01*
X36459414Y-26713072D01*
X36336928Y-26590586D01*
X36196788Y-26488768D01*
X36196787Y-26488767D01*
X36196785Y-26488766D01*
X36042441Y-26410125D01*
X36042438Y-26410123D01*
X35877706Y-26356598D01*
X35877702Y-26356597D01*
X35706614Y-26329500D01*
X35706611Y-26329500D01*
X35533389Y-26329500D01*
X35533386Y-26329500D01*
X35362297Y-26356597D01*
X35362293Y-26356598D01*
X35197561Y-26410123D01*
X35197558Y-26410125D01*
X35043214Y-26488766D01*
X34903073Y-26590585D01*
X34780585Y-26713073D01*
X34678766Y-26853214D01*
X34600125Y-27007558D01*
X34600123Y-27007561D01*
X34546598Y-27172293D01*
X34546597Y-27172297D01*
X34519500Y-27343385D01*
X34180500Y-27343385D01*
X34153402Y-27172297D01*
X34153401Y-27172293D01*
X34099876Y-27007561D01*
X34099874Y-27007558D01*
X34099873Y-27007557D01*
X34099873Y-27007555D01*
X34021232Y-26853212D01*
X33919414Y-26713072D01*
X33796928Y-26590586D01*
X33656788Y-26488768D01*
X33656787Y-26488767D01*
X33656785Y-26488766D01*
X33502441Y-26410125D01*
X33502438Y-26410123D01*
X33337706Y-26356598D01*
X33337702Y-26356597D01*
X33166614Y-26329500D01*
X33166611Y-26329500D01*
X32993389Y-26329500D01*
X32993386Y-26329500D01*
X32822297Y-26356597D01*
X32822293Y-26356598D01*
X32657561Y-26410123D01*
X32657558Y-26410125D01*
X32503214Y-26488766D01*
X32363073Y-26590585D01*
X32240585Y-26713073D01*
X32138766Y-26853214D01*
X32060125Y-27007558D01*
X32060123Y-27007561D01*
X32006598Y-27172293D01*
X32006597Y-27172297D01*
X31979500Y-27343385D01*
X31034429Y-27343385D01*
X31010746Y-27255000D01*
X31676618Y-27255000D01*
X31676618Y-27254999D01*
X31661683Y-27160710D01*
X31605749Y-26988559D01*
X31523568Y-26827269D01*
X31523566Y-26827265D01*
X31417175Y-26680830D01*
X31289169Y-26552824D01*
X31142734Y-26446433D01*
X31142730Y-26446431D01*
X30981440Y-26364250D01*
X30809289Y-26308316D01*
X30715000Y-26293381D01*
X30715000Y-26959253D01*
X30605826Y-26930000D01*
X30474174Y-26930000D01*
X30365000Y-26959253D01*
X30365000Y-26293382D01*
X30364999Y-26293381D01*
X30270710Y-26308316D01*
X30098559Y-26364250D01*
X29937269Y-26446431D01*
X29937265Y-26446433D01*
X29790830Y-26552824D01*
X29662824Y-26680830D01*
X29556433Y-26827265D01*
X29556431Y-26827269D01*
X29474250Y-26988559D01*
X29418316Y-27160710D01*
X29403381Y-27254999D01*
X29100500Y-27254999D01*
X29100500Y-26555326D01*
X29085966Y-26482260D01*
X29037768Y-26410125D01*
X29030602Y-26399400D01*
X29030599Y-26399397D01*
X28947742Y-26344035D01*
X28947740Y-26344034D01*
X28947737Y-26344033D01*
X28947736Y-26344033D01*
X28874684Y-26329501D01*
X28874674Y-26329500D01*
X27125326Y-26329500D01*
X27125325Y-26329500D01*
X27125315Y-26329501D01*
X27052263Y-26344033D01*
X27052257Y-26344035D01*
X26969400Y-26399397D01*
X26969397Y-26399400D01*
X26914035Y-26482257D01*
X26914033Y-26482263D01*
X26899501Y-26555315D01*
X26899500Y-26555327D01*
X25400500Y-26555327D01*
X25400500Y-26060714D01*
X25400501Y-26060701D01*
X25400501Y-25947272D01*
X25400500Y-25947270D01*
X25373207Y-25845413D01*
X25373205Y-25845409D01*
X25320481Y-25754089D01*
X25320480Y-25754087D01*
X25245913Y-25679520D01*
X25245910Y-25679518D01*
X25026907Y-25460515D01*
X24604496Y-25038103D01*
X24576719Y-24983586D01*
X24575500Y-24968099D01*
X24575500Y-24924235D01*
X24575500Y-24924234D01*
X24536281Y-24777865D01*
X24536279Y-24777862D01*
X24536279Y-24777860D01*
X24460518Y-24646639D01*
X24460516Y-24646637D01*
X24460515Y-24646635D01*
X24353365Y-24539485D01*
X24353362Y-24539483D01*
X24353360Y-24539481D01*
X24222138Y-24463720D01*
X24222140Y-24463720D01*
X24165347Y-24448503D01*
X24075766Y-24424500D01*
X23924234Y-24424500D01*
X23834652Y-24448503D01*
X23777860Y-24463720D01*
X23646639Y-24539481D01*
X23539481Y-24646639D01*
X23463720Y-24777860D01*
X23463719Y-24777865D01*
X23424500Y-24924234D01*
X16575500Y-24924234D01*
X16536281Y-24777865D01*
X16536279Y-24777862D01*
X16536279Y-24777860D01*
X16460518Y-24646639D01*
X16460516Y-24646637D01*
X16460515Y-24646635D01*
X16353365Y-24539485D01*
X16353362Y-24539483D01*
X16353360Y-24539481D01*
X16222138Y-24463720D01*
X16222140Y-24463720D01*
X16165347Y-24448503D01*
X16075766Y-24424500D01*
X15924234Y-24424500D01*
X15834652Y-24448503D01*
X15777860Y-24463720D01*
X15646639Y-24539481D01*
X15539481Y-24646639D01*
X15463720Y-24777860D01*
X15463719Y-24777865D01*
X15424500Y-24924234D01*
X8575500Y-24924234D01*
X8536281Y-24777865D01*
X8536279Y-24777862D01*
X8536279Y-24777860D01*
X8460518Y-24646639D01*
X8460516Y-24646637D01*
X8460515Y-24646635D01*
X8353365Y-24539485D01*
X8353362Y-24539483D01*
X8353360Y-24539481D01*
X8222138Y-24463720D01*
X8222140Y-24463720D01*
X8165347Y-24448503D01*
X8075766Y-24424500D01*
X7924234Y-24424500D01*
X7834652Y-24448503D01*
X7777860Y-24463720D01*
X7646639Y-24539481D01*
X7539481Y-24646639D01*
X7463720Y-24777860D01*
X7463719Y-24777865D01*
X7424500Y-24924234D01*
X7424500Y-25075766D01*
X7459086Y-25204847D01*
X7463720Y-25222139D01*
X7539481Y-25353360D01*
X7539483Y-25353362D01*
X7539485Y-25353365D01*
X7646635Y-25460515D01*
X7646637Y-25460516D01*
X7646639Y-25460518D01*
X7777861Y-25536279D01*
X7777859Y-25536279D01*
X7777863Y-25536280D01*
X7777865Y-25536281D01*
X7924234Y-25575500D01*
X7968099Y-25575500D01*
X8026290Y-25594407D01*
X8038103Y-25604496D01*
X8570504Y-26136896D01*
X8598281Y-26191413D01*
X8599500Y-26206900D01*
X8599500Y-33950358D01*
X8580593Y-34008549D01*
X8531093Y-34044513D01*
X8484225Y-34048011D01*
X4143207Y-33324509D01*
X4088916Y-33296292D01*
X4065328Y-33257451D01*
X4019873Y-33117555D01*
X3941232Y-32963212D01*
X3839414Y-32823072D01*
X3716928Y-32700586D01*
X3576788Y-32598768D01*
X3576787Y-32598767D01*
X3576785Y-32598766D01*
X3422441Y-32520125D01*
X3422438Y-32520123D01*
X3257706Y-32466598D01*
X3257702Y-32466597D01*
X3086614Y-32439500D01*
X3086611Y-32439500D01*
X2913389Y-32439500D01*
X2913386Y-32439500D01*
X2742297Y-32466597D01*
X2742293Y-32466598D01*
X2577561Y-32520123D01*
X2577558Y-32520125D01*
X2423214Y-32598766D01*
X2283073Y-32700585D01*
X2160585Y-32823073D01*
X2058766Y-32963214D01*
X1980125Y-33117558D01*
X1980123Y-33117561D01*
X1926598Y-33282293D01*
X1926597Y-33282297D01*
X1899500Y-33453385D01*
X500000Y-33453385D01*
X500000Y-30125327D01*
X1899500Y-30125327D01*
X1899500Y-31874672D01*
X1899501Y-31874684D01*
X1914033Y-31947736D01*
X1914035Y-31947742D01*
X1969397Y-32030599D01*
X1969400Y-32030602D01*
X2036596Y-32075500D01*
X2052260Y-32085966D01*
X2107808Y-32097015D01*
X2125315Y-32100498D01*
X2125320Y-32100498D01*
X2125326Y-32100500D01*
X2125327Y-32100500D01*
X3874673Y-32100500D01*
X3874674Y-32100500D01*
X3947740Y-32085966D01*
X4030601Y-32030601D01*
X4085966Y-31947740D01*
X4100500Y-31874674D01*
X4100500Y-30125326D01*
X4085966Y-30052260D01*
X4030601Y-29969399D01*
X4030599Y-29969397D01*
X3947742Y-29914035D01*
X3947740Y-29914034D01*
X3947737Y-29914033D01*
X3947736Y-29914033D01*
X3874684Y-29899501D01*
X3874674Y-29899500D01*
X2125326Y-29899500D01*
X2125325Y-29899500D01*
X2125315Y-29899501D01*
X2052263Y-29914033D01*
X2052257Y-29914035D01*
X1969400Y-29969397D01*
X1969397Y-29969400D01*
X1914035Y-30052257D01*
X1914033Y-30052263D01*
X1899501Y-30125315D01*
X1899500Y-30125327D01*
X500000Y-30125327D01*
X500000Y-2874034D01*
X1399500Y-2874034D01*
X1399500Y-3125965D01*
X1438908Y-3374780D01*
X1516759Y-3614379D01*
X1558003Y-3695326D01*
X1631130Y-3838845D01*
X1779207Y-4042656D01*
X1957344Y-4220793D01*
X2161155Y-4368870D01*
X2385621Y-4483241D01*
X2625215Y-4561090D01*
X2625216Y-4561090D01*
X2625219Y-4561091D01*
X2874035Y-4600500D01*
X2874038Y-4600500D01*
X3125965Y-4600500D01*
X3374780Y-4561091D01*
X3374781Y-4561090D01*
X3374785Y-4561090D01*
X3614379Y-4483241D01*
X3838845Y-4368870D01*
X4042656Y-4220793D01*
X4220793Y-4042656D01*
X4368870Y-3838845D01*
X4441996Y-3695327D01*
X26899500Y-3695327D01*
X26899500Y-5444672D01*
X26899501Y-5444684D01*
X26914033Y-5517736D01*
X26914035Y-5517742D01*
X26969397Y-5600599D01*
X26969399Y-5600601D01*
X27052260Y-5655966D01*
X27107808Y-5667015D01*
X27125315Y-5670498D01*
X27125320Y-5670498D01*
X27125326Y-5670500D01*
X27125327Y-5670500D01*
X28874673Y-5670500D01*
X28874674Y-5670500D01*
X28947740Y-5655966D01*
X29030601Y-5600601D01*
X29085966Y-5517740D01*
X29100500Y-5444674D01*
X29100500Y-4483385D01*
X29439500Y-4483385D01*
X29439500Y-4656614D01*
X29466597Y-4827702D01*
X29466598Y-4827706D01*
X29520123Y-4992438D01*
X29520125Y-4992441D01*
X29520126Y-4992444D01*
X29520127Y-4992445D01*
X29598768Y-5146788D01*
X29700586Y-5286928D01*
X29823072Y-5409414D01*
X29963212Y-5511232D01*
X30117555Y-5589873D01*
X30117557Y-5589873D01*
X30117558Y-5589874D01*
X30117561Y-5589876D01*
X30282293Y-5643401D01*
X30282297Y-5643402D01*
X30453386Y-5670500D01*
X30453389Y-5670500D01*
X30626614Y-5670500D01*
X30797702Y-5643402D01*
X30797706Y-5643401D01*
X30962438Y-5589876D01*
X30962440Y-5589874D01*
X30962445Y-5589873D01*
X31116788Y-5511232D01*
X31256928Y-5409414D01*
X31379414Y-5286928D01*
X31481232Y-5146788D01*
X31559873Y-4992445D01*
X31559874Y-4992440D01*
X31559876Y-4992438D01*
X31613401Y-4827706D01*
X31613402Y-4827702D01*
X31640500Y-4656614D01*
X31640500Y-4483385D01*
X31979500Y-4483385D01*
X31979500Y-4656614D01*
X32006597Y-4827702D01*
X32006598Y-4827706D01*
X32060123Y-4992438D01*
X32060125Y-4992441D01*
X32060126Y-4992444D01*
X32060127Y-4992445D01*
X32138768Y-5146788D01*
X32240586Y-5286928D01*
X32363072Y-5409414D01*
X32503212Y-5511232D01*
X32657555Y-5589873D01*
X32657557Y-5589873D01*
X32657558Y-5589874D01*
X32657561Y-5589876D01*
X32822293Y-5643401D01*
X32822297Y-5643402D01*
X32993386Y-5670500D01*
X32993389Y-5670500D01*
X33166614Y-5670500D01*
X33337702Y-5643402D01*
X33337706Y-5643401D01*
X33502438Y-5589876D01*
X33502440Y-5589874D01*
X33502445Y-5589873D01*
X33656788Y-5511232D01*
X33796928Y-5409414D01*
X33919414Y-5286928D01*
X34021232Y-5146788D01*
X34099873Y-4992445D01*
X34099874Y-4992440D01*
X34099876Y-4992438D01*
X34153401Y-4827706D01*
X34153402Y-4827702D01*
X34180500Y-4656614D01*
X34180500Y-4483385D01*
X34519500Y-4483385D01*
X34519500Y-4656614D01*
X34546597Y-4827702D01*
X34546598Y-4827706D01*
X34600123Y-4992438D01*
X34600125Y-4992441D01*
X34600126Y-4992444D01*
X34600127Y-4992445D01*
X34678768Y-5146788D01*
X34780586Y-5286928D01*
X34903072Y-5409414D01*
X35043212Y-5511232D01*
X35197555Y-5589873D01*
X35197557Y-5589873D01*
X35197558Y-5589874D01*
X35197561Y-5589876D01*
X35362293Y-5643401D01*
X35362297Y-5643402D01*
X35533386Y-5670500D01*
X35533389Y-5670500D01*
X35706614Y-5670500D01*
X35877702Y-5643402D01*
X35877706Y-5643401D01*
X36042438Y-5589876D01*
X36042440Y-5589874D01*
X36042445Y-5589873D01*
X36196788Y-5511232D01*
X36336928Y-5409414D01*
X36459414Y-5286928D01*
X36561232Y-5146788D01*
X36639873Y-4992445D01*
X36639874Y-4992440D01*
X36639876Y-4992438D01*
X36693401Y-4827706D01*
X36693402Y-4827702D01*
X36720500Y-4656614D01*
X36720500Y-4483385D01*
X37059500Y-4483385D01*
X37059500Y-4656614D01*
X37086597Y-4827702D01*
X37086598Y-4827706D01*
X37140123Y-4992438D01*
X37140125Y-4992441D01*
X37140126Y-4992444D01*
X37140127Y-4992445D01*
X37218768Y-5146788D01*
X37320586Y-5286928D01*
X37443072Y-5409414D01*
X37583212Y-5511232D01*
X37737555Y-5589873D01*
X37737557Y-5589873D01*
X37737558Y-5589874D01*
X37737561Y-5589876D01*
X37902293Y-5643401D01*
X37902297Y-5643402D01*
X38073386Y-5670500D01*
X38073389Y-5670500D01*
X38246614Y-5670500D01*
X38417702Y-5643402D01*
X38417706Y-5643401D01*
X38582438Y-5589876D01*
X38582440Y-5589874D01*
X38582445Y-5589873D01*
X38736788Y-5511232D01*
X38876928Y-5409414D01*
X38999414Y-5286928D01*
X39101232Y-5146788D01*
X39179873Y-4992445D01*
X39179874Y-4992440D01*
X39179876Y-4992438D01*
X39233401Y-4827706D01*
X39233402Y-4827702D01*
X39260500Y-4656614D01*
X39260500Y-4483385D01*
X39599500Y-4483385D01*
X39599500Y-4656614D01*
X39626597Y-4827702D01*
X39626598Y-4827706D01*
X39680123Y-4992438D01*
X39680125Y-4992441D01*
X39680126Y-4992444D01*
X39680127Y-4992445D01*
X39758768Y-5146788D01*
X39860586Y-5286928D01*
X39983072Y-5409414D01*
X40123212Y-5511232D01*
X40277555Y-5589873D01*
X40277557Y-5589873D01*
X40277558Y-5589874D01*
X40277561Y-5589876D01*
X40442293Y-5643401D01*
X40442297Y-5643402D01*
X40613386Y-5670500D01*
X40613389Y-5670500D01*
X40786614Y-5670500D01*
X40957702Y-5643402D01*
X40957706Y-5643401D01*
X41122438Y-5589876D01*
X41122440Y-5589874D01*
X41122445Y-5589873D01*
X41276788Y-5511232D01*
X41416928Y-5409414D01*
X41539414Y-5286928D01*
X41641232Y-5146788D01*
X41719873Y-4992445D01*
X41719874Y-4992440D01*
X41719876Y-4992438D01*
X41773401Y-4827706D01*
X41773402Y-4827702D01*
X41800500Y-4656614D01*
X41800500Y-4483385D01*
X42139500Y-4483385D01*
X42139500Y-4656614D01*
X42166597Y-4827702D01*
X42166598Y-4827706D01*
X42220123Y-4992438D01*
X42220125Y-4992441D01*
X42220126Y-4992444D01*
X42220127Y-4992445D01*
X42298768Y-5146788D01*
X42400586Y-5286928D01*
X42523072Y-5409414D01*
X42663212Y-5511232D01*
X42817555Y-5589873D01*
X42817557Y-5589873D01*
X42817558Y-5589874D01*
X42817561Y-5589876D01*
X42982293Y-5643401D01*
X42982297Y-5643402D01*
X43153386Y-5670500D01*
X43153389Y-5670500D01*
X43326614Y-5670500D01*
X43497702Y-5643402D01*
X43497706Y-5643401D01*
X43662438Y-5589876D01*
X43662440Y-5589874D01*
X43662445Y-5589873D01*
X43816788Y-5511232D01*
X43956928Y-5409414D01*
X44079414Y-5286928D01*
X44181232Y-5146788D01*
X44259873Y-4992445D01*
X44259874Y-4992440D01*
X44259876Y-4992438D01*
X44313401Y-4827706D01*
X44313402Y-4827702D01*
X44340500Y-4656614D01*
X44340500Y-4483385D01*
X44679500Y-4483385D01*
X44679500Y-4656614D01*
X44706597Y-4827702D01*
X44706598Y-4827706D01*
X44760123Y-4992438D01*
X44760125Y-4992441D01*
X44760126Y-4992444D01*
X44760127Y-4992445D01*
X44838768Y-5146788D01*
X44940586Y-5286928D01*
X45063072Y-5409414D01*
X45203212Y-5511232D01*
X45357555Y-5589873D01*
X45357557Y-5589873D01*
X45357558Y-5589874D01*
X45357561Y-5589876D01*
X45522293Y-5643401D01*
X45522297Y-5643402D01*
X45693386Y-5670500D01*
X45693389Y-5670500D01*
X45866614Y-5670500D01*
X46037702Y-5643402D01*
X46037706Y-5643401D01*
X46202438Y-5589876D01*
X46202440Y-5589874D01*
X46202445Y-5589873D01*
X46356788Y-5511232D01*
X46496928Y-5409414D01*
X46619414Y-5286928D01*
X46721232Y-5146788D01*
X46799873Y-4992445D01*
X46799874Y-4992440D01*
X46799876Y-4992438D01*
X46853401Y-4827706D01*
X46853402Y-4827702D01*
X46880500Y-4656614D01*
X46880500Y-4483385D01*
X47219500Y-4483385D01*
X47219500Y-4656614D01*
X47246597Y-4827702D01*
X47246598Y-4827706D01*
X47300123Y-4992438D01*
X47300125Y-4992441D01*
X47300126Y-4992444D01*
X47300127Y-4992445D01*
X47378768Y-5146788D01*
X47480586Y-5286928D01*
X47603072Y-5409414D01*
X47743212Y-5511232D01*
X47897555Y-5589873D01*
X47897557Y-5589873D01*
X47897558Y-5589874D01*
X47897561Y-5589876D01*
X48062293Y-5643401D01*
X48062297Y-5643402D01*
X48233386Y-5670500D01*
X48233389Y-5670500D01*
X48406614Y-5670500D01*
X48577702Y-5643402D01*
X48577706Y-5643401D01*
X48742438Y-5589876D01*
X48742440Y-5589874D01*
X48742445Y-5589873D01*
X48896788Y-5511232D01*
X49036928Y-5409414D01*
X49159414Y-5286928D01*
X49261232Y-5146788D01*
X49339873Y-4992445D01*
X49339874Y-4992440D01*
X49339876Y-4992438D01*
X49393401Y-4827706D01*
X49393402Y-4827702D01*
X49420500Y-4656614D01*
X49420500Y-4483385D01*
X49759500Y-4483385D01*
X49759500Y-4656614D01*
X49786597Y-4827702D01*
X49786598Y-4827706D01*
X49840123Y-4992438D01*
X49840125Y-4992441D01*
X49840126Y-4992444D01*
X49840127Y-4992445D01*
X49918768Y-5146788D01*
X50020586Y-5286928D01*
X50143072Y-5409414D01*
X50283212Y-5511232D01*
X50437555Y-5589873D01*
X50437557Y-5589873D01*
X50437558Y-5589874D01*
X50437561Y-5589876D01*
X50602293Y-5643401D01*
X50602297Y-5643402D01*
X50773386Y-5670500D01*
X50773389Y-5670500D01*
X50946614Y-5670500D01*
X51117702Y-5643402D01*
X51117706Y-5643401D01*
X51282438Y-5589876D01*
X51282440Y-5589874D01*
X51282445Y-5589873D01*
X51436788Y-5511232D01*
X51576928Y-5409414D01*
X51699414Y-5286928D01*
X51801232Y-5146788D01*
X51879873Y-4992445D01*
X51879874Y-4992440D01*
X51879876Y-4992438D01*
X51933401Y-4827706D01*
X51933402Y-4827702D01*
X51960500Y-4656614D01*
X51960500Y-4483385D01*
X52299500Y-4483385D01*
X52299500Y-4656614D01*
X52326597Y-4827702D01*
X52326598Y-4827706D01*
X52380123Y-4992438D01*
X52380125Y-4992441D01*
X52380126Y-4992444D01*
X52380127Y-4992445D01*
X52458768Y-5146788D01*
X52560586Y-5286928D01*
X52683072Y-5409414D01*
X52823212Y-5511232D01*
X52977555Y-5589873D01*
X52977557Y-5589873D01*
X52977558Y-5589874D01*
X52977561Y-5589876D01*
X53142293Y-5643401D01*
X53142297Y-5643402D01*
X53313386Y-5670500D01*
X53313389Y-5670500D01*
X53486614Y-5670500D01*
X53657702Y-5643402D01*
X53657706Y-5643401D01*
X53822438Y-5589876D01*
X53822440Y-5589874D01*
X53822445Y-5589873D01*
X53976788Y-5511232D01*
X54116928Y-5409414D01*
X54239414Y-5286928D01*
X54341232Y-5146788D01*
X54419873Y-4992445D01*
X54419874Y-4992440D01*
X54419876Y-4992438D01*
X54473401Y-4827706D01*
X54473402Y-4827702D01*
X54500500Y-4656614D01*
X54500500Y-4483385D01*
X54473402Y-4312297D01*
X54473401Y-4312293D01*
X54419876Y-4147561D01*
X54419874Y-4147558D01*
X54419873Y-4147557D01*
X54419873Y-4147555D01*
X54341232Y-3993212D01*
X54239414Y-3853072D01*
X54116928Y-3730586D01*
X53976788Y-3628768D01*
X53976787Y-3628767D01*
X53976785Y-3628766D01*
X53822441Y-3550125D01*
X53822438Y-3550123D01*
X53657706Y-3496598D01*
X53657702Y-3496597D01*
X53486614Y-3469500D01*
X53486611Y-3469500D01*
X53313389Y-3469500D01*
X53313386Y-3469500D01*
X53142297Y-3496597D01*
X53142293Y-3496598D01*
X52977561Y-3550123D01*
X52977558Y-3550125D01*
X52823214Y-3628766D01*
X52683073Y-3730585D01*
X52560585Y-3853073D01*
X52458766Y-3993214D01*
X52380125Y-4147558D01*
X52380123Y-4147561D01*
X52326598Y-4312293D01*
X52326597Y-4312297D01*
X52299500Y-4483385D01*
X51960500Y-4483385D01*
X51933402Y-4312297D01*
X51933401Y-4312293D01*
X51879876Y-4147561D01*
X51879874Y-4147558D01*
X51879873Y-4147557D01*
X51879873Y-4147555D01*
X51801232Y-3993212D01*
X51699414Y-3853072D01*
X51576928Y-3730586D01*
X51436788Y-3628768D01*
X51436787Y-3628767D01*
X51436785Y-3628766D01*
X51282441Y-3550125D01*
X51282438Y-3550123D01*
X51117706Y-3496598D01*
X51117702Y-3496597D01*
X50946614Y-3469500D01*
X50946611Y-3469500D01*
X50773389Y-3469500D01*
X50773386Y-3469500D01*
X50602297Y-3496597D01*
X50602293Y-3496598D01*
X50437561Y-3550123D01*
X50437558Y-3550125D01*
X50283214Y-3628766D01*
X50143073Y-3730585D01*
X50020585Y-3853073D01*
X49918766Y-3993214D01*
X49840125Y-4147558D01*
X49840123Y-4147561D01*
X49786598Y-4312293D01*
X49786597Y-4312297D01*
X49759500Y-4483385D01*
X49420500Y-4483385D01*
X49393402Y-4312297D01*
X49393401Y-4312293D01*
X49339876Y-4147561D01*
X49339874Y-4147558D01*
X49339873Y-4147557D01*
X49339873Y-4147555D01*
X49261232Y-3993212D01*
X49159414Y-3853072D01*
X49036928Y-3730586D01*
X48896788Y-3628768D01*
X48896787Y-3628767D01*
X48896785Y-3628766D01*
X48742441Y-3550125D01*
X48742438Y-3550123D01*
X48577706Y-3496598D01*
X48577702Y-3496597D01*
X48406614Y-3469500D01*
X48406611Y-3469500D01*
X48233389Y-3469500D01*
X48233386Y-3469500D01*
X48062297Y-3496597D01*
X48062293Y-3496598D01*
X47897561Y-3550123D01*
X47897558Y-3550125D01*
X47743214Y-3628766D01*
X47603073Y-3730585D01*
X47480585Y-3853073D01*
X47378766Y-3993214D01*
X47300125Y-4147558D01*
X47300123Y-4147561D01*
X47246598Y-4312293D01*
X47246597Y-4312297D01*
X47219500Y-4483385D01*
X46880500Y-4483385D01*
X46853402Y-4312297D01*
X46853401Y-4312293D01*
X46799876Y-4147561D01*
X46799874Y-4147558D01*
X46799873Y-4147557D01*
X46799873Y-4147555D01*
X46721232Y-3993212D01*
X46619414Y-3853072D01*
X46496928Y-3730586D01*
X46356788Y-3628768D01*
X46356787Y-3628767D01*
X46356785Y-3628766D01*
X46202441Y-3550125D01*
X46202438Y-3550123D01*
X46037706Y-3496598D01*
X46037702Y-3496597D01*
X45866614Y-3469500D01*
X45866611Y-3469500D01*
X45693389Y-3469500D01*
X45693386Y-3469500D01*
X45522297Y-3496597D01*
X45522293Y-3496598D01*
X45357561Y-3550123D01*
X45357558Y-3550125D01*
X45203214Y-3628766D01*
X45063073Y-3730585D01*
X44940585Y-3853073D01*
X44838766Y-3993214D01*
X44760125Y-4147558D01*
X44760123Y-4147561D01*
X44706598Y-4312293D01*
X44706597Y-4312297D01*
X44679500Y-4483385D01*
X44340500Y-4483385D01*
X44313402Y-4312297D01*
X44313401Y-4312293D01*
X44259876Y-4147561D01*
X44259874Y-4147558D01*
X44259873Y-4147557D01*
X44259873Y-4147555D01*
X44181232Y-3993212D01*
X44079414Y-3853072D01*
X43956928Y-3730586D01*
X43816788Y-3628768D01*
X43816787Y-3628767D01*
X43816785Y-3628766D01*
X43662441Y-3550125D01*
X43662438Y-3550123D01*
X43497706Y-3496598D01*
X43497702Y-3496597D01*
X43326614Y-3469500D01*
X43326611Y-3469500D01*
X43153389Y-3469500D01*
X43153386Y-3469500D01*
X42982297Y-3496597D01*
X42982293Y-3496598D01*
X42817561Y-3550123D01*
X42817558Y-3550125D01*
X42663214Y-3628766D01*
X42523073Y-3730585D01*
X42400585Y-3853073D01*
X42298766Y-3993214D01*
X42220125Y-4147558D01*
X42220123Y-4147561D01*
X42166598Y-4312293D01*
X42166597Y-4312297D01*
X42139500Y-4483385D01*
X41800500Y-4483385D01*
X41773402Y-4312297D01*
X41773401Y-4312293D01*
X41719876Y-4147561D01*
X41719874Y-4147558D01*
X41719873Y-4147557D01*
X41719873Y-4147555D01*
X41641232Y-3993212D01*
X41539414Y-3853072D01*
X41416928Y-3730586D01*
X41276788Y-3628768D01*
X41276787Y-3628767D01*
X41276785Y-3628766D01*
X41122441Y-3550125D01*
X41122438Y-3550123D01*
X40957706Y-3496598D01*
X40957702Y-3496597D01*
X40786614Y-3469500D01*
X40786611Y-3469500D01*
X40613389Y-3469500D01*
X40613386Y-3469500D01*
X40442297Y-3496597D01*
X40442293Y-3496598D01*
X40277561Y-3550123D01*
X40277558Y-3550125D01*
X40123214Y-3628766D01*
X39983073Y-3730585D01*
X39860585Y-3853073D01*
X39758766Y-3993214D01*
X39680125Y-4147558D01*
X39680123Y-4147561D01*
X39626598Y-4312293D01*
X39626597Y-4312297D01*
X39599500Y-4483385D01*
X39260500Y-4483385D01*
X39233402Y-4312297D01*
X39233401Y-4312293D01*
X39179876Y-4147561D01*
X39179874Y-4147558D01*
X39179873Y-4147557D01*
X39179873Y-4147555D01*
X39101232Y-3993212D01*
X38999414Y-3853072D01*
X38876928Y-3730586D01*
X38736788Y-3628768D01*
X38736787Y-3628767D01*
X38736785Y-3628766D01*
X38582441Y-3550125D01*
X38582438Y-3550123D01*
X38417706Y-3496598D01*
X38417702Y-3496597D01*
X38246614Y-3469500D01*
X38246611Y-3469500D01*
X38073389Y-3469500D01*
X38073386Y-3469500D01*
X37902297Y-3496597D01*
X37902293Y-3496598D01*
X37737561Y-3550123D01*
X37737558Y-3550125D01*
X37583214Y-3628766D01*
X37443073Y-3730585D01*
X37320585Y-3853073D01*
X37218766Y-3993214D01*
X37140125Y-4147558D01*
X37140123Y-4147561D01*
X37086598Y-4312293D01*
X37086597Y-4312297D01*
X37059500Y-4483385D01*
X36720500Y-4483385D01*
X36693402Y-4312297D01*
X36693401Y-4312293D01*
X36639876Y-4147561D01*
X36639874Y-4147558D01*
X36639873Y-4147557D01*
X36639873Y-4147555D01*
X36561232Y-3993212D01*
X36459414Y-3853072D01*
X36336928Y-3730586D01*
X36196788Y-3628768D01*
X36196787Y-3628767D01*
X36196785Y-3628766D01*
X36042441Y-3550125D01*
X36042438Y-3550123D01*
X35877706Y-3496598D01*
X35877702Y-3496597D01*
X35706614Y-3469500D01*
X35706611Y-3469500D01*
X35533389Y-3469500D01*
X35533386Y-3469500D01*
X35362297Y-3496597D01*
X35362293Y-3496598D01*
X35197561Y-3550123D01*
X35197558Y-3550125D01*
X35043214Y-3628766D01*
X34903073Y-3730585D01*
X34780585Y-3853073D01*
X34678766Y-3993214D01*
X34600125Y-4147558D01*
X34600123Y-4147561D01*
X34546598Y-4312293D01*
X34546597Y-4312297D01*
X34519500Y-4483385D01*
X34180500Y-4483385D01*
X34153402Y-4312297D01*
X34153401Y-4312293D01*
X34099876Y-4147561D01*
X34099874Y-4147558D01*
X34099873Y-4147557D01*
X34099873Y-4147555D01*
X34021232Y-3993212D01*
X33919414Y-3853072D01*
X33796928Y-3730586D01*
X33656788Y-3628768D01*
X33656787Y-3628767D01*
X33656785Y-3628766D01*
X33502441Y-3550125D01*
X33502438Y-3550123D01*
X33337706Y-3496598D01*
X33337702Y-3496597D01*
X33166614Y-3469500D01*
X33166611Y-3469500D01*
X32993389Y-3469500D01*
X32993386Y-3469500D01*
X32822297Y-3496597D01*
X32822293Y-3496598D01*
X32657561Y-3550123D01*
X32657558Y-3550125D01*
X32503214Y-3628766D01*
X32363073Y-3730585D01*
X32240585Y-3853073D01*
X32138766Y-3993214D01*
X32060125Y-4147558D01*
X32060123Y-4147561D01*
X32006598Y-4312293D01*
X32006597Y-4312297D01*
X31979500Y-4483385D01*
X31640500Y-4483385D01*
X31613402Y-4312297D01*
X31613401Y-4312293D01*
X31559876Y-4147561D01*
X31559874Y-4147558D01*
X31559873Y-4147557D01*
X31559873Y-4147555D01*
X31481232Y-3993212D01*
X31379414Y-3853072D01*
X31256928Y-3730586D01*
X31116788Y-3628768D01*
X31116787Y-3628767D01*
X31116785Y-3628766D01*
X30962441Y-3550125D01*
X30962438Y-3550123D01*
X30797706Y-3496598D01*
X30797702Y-3496597D01*
X30626614Y-3469500D01*
X30626611Y-3469500D01*
X30453389Y-3469500D01*
X30453386Y-3469500D01*
X30282297Y-3496597D01*
X30282293Y-3496598D01*
X30117561Y-3550123D01*
X30117558Y-3550125D01*
X29963214Y-3628766D01*
X29823073Y-3730585D01*
X29700585Y-3853073D01*
X29598766Y-3993214D01*
X29520125Y-4147558D01*
X29520123Y-4147561D01*
X29466598Y-4312293D01*
X29466597Y-4312297D01*
X29439500Y-4483385D01*
X29100500Y-4483385D01*
X29100500Y-3695326D01*
X29085966Y-3622260D01*
X29037768Y-3550125D01*
X29030602Y-3539400D01*
X29030599Y-3539397D01*
X28947742Y-3484035D01*
X28947740Y-3484034D01*
X28947737Y-3484033D01*
X28947736Y-3484033D01*
X28874684Y-3469501D01*
X28874674Y-3469500D01*
X27125326Y-3469500D01*
X27125325Y-3469500D01*
X27125315Y-3469501D01*
X27052263Y-3484033D01*
X27052257Y-3484035D01*
X26969400Y-3539397D01*
X26969397Y-3539400D01*
X26914035Y-3622257D01*
X26914033Y-3622263D01*
X26899501Y-3695315D01*
X26899500Y-3695327D01*
X4441996Y-3695327D01*
X4483241Y-3614379D01*
X4561090Y-3374785D01*
X4600500Y-3125962D01*
X4600500Y-2874038D01*
X4600500Y-2874034D01*
X4561091Y-2625219D01*
X4561090Y-2625215D01*
X4483241Y-2385621D01*
X4368870Y-2161155D01*
X4220793Y-1957344D01*
X4042656Y-1779207D01*
X3838845Y-1631130D01*
X3838844Y-1631129D01*
X3838842Y-1631128D01*
X3614379Y-1516759D01*
X3374780Y-1438908D01*
X3125965Y-1399500D01*
X3125962Y-1399500D01*
X2874038Y-1399500D01*
X2874035Y-1399500D01*
X2625219Y-1438908D01*
X2385620Y-1516759D01*
X2161157Y-1631128D01*
X1957345Y-1779206D01*
X1779206Y-1957345D01*
X1631128Y-2161157D01*
X1516759Y-2385620D01*
X1438908Y-2625219D01*
X1399500Y-2874034D01*
X500000Y-2874034D01*
X500000Y-1965979D01*
X518907Y-1907788D01*
X528996Y-1895975D01*
X1895975Y-528996D01*
X1950492Y-501219D01*
X1965979Y-500000D01*
X56901000Y-500000D01*
X56959191Y-518907D01*
G37*
%TD.AperFunction*%
%TD*%
M02*
