M48
; DRILL file KiCad 10.0.6 date 2026-09-22T16:11:46
; FORMAT={-:-/ absolute / metric / decimal}
; #@! TF.CreationDate,2026-09-22T16:11:46-04:00
; #@! TF.GenerationSoftware,Kicad,Pcbnew,10.0.6
; #@! TF.FileFunction,Plated,1,2,PTH
FMAT,2
METRIC
; #@! TA.AperFunction,Plated,PTH,ViaDrill
T1C0.300
; #@! TA.AperFunction,Plated,PTH,ComponentDrill
T2C0.950
; #@! TA.AperFunction,Plated,PTH,ComponentDrill
T3C1.000
; #@! TA.AperFunction,Plated,PTH,ComponentDrill
T4C1.200
%
G90
G05
T1
X8.0Y-19.0
X8.0Y-25.0
X16.0Y-25.0
X24.0Y-25.0
X26.0Y-36.5
X26.7Y-39.8
X27.5Y-35.0
X31.0Y-49.0
X37.0Y-40.0
X39.95Y-31.5
X47.7Y-35.2
X49.5Y-34.05
X51.0Y-37.0
X56.0Y-45.0
X62.0Y-47.0
T2
X36.0Y-48.0
X38.5Y-48.0
X41.0Y-48.0
T3
X3.0Y-31.0
X3.0Y-33.54
X28.0Y-4.57
X28.0Y-27.43
X30.54Y-4.57
X30.54Y-27.43
X33.08Y-4.57
X33.08Y-27.43
X35.62Y-4.57
X35.62Y-27.43
X38.16Y-4.57
X38.16Y-27.43
X40.7Y-4.57
X40.7Y-27.43
X43.24Y-4.57
X43.24Y-27.43
X45.78Y-4.57
X45.78Y-27.43
X48.32Y-4.57
X48.32Y-27.43
X50.86Y-4.57
X50.86Y-27.43
X53.4Y-4.57
X53.4Y-27.43
X55.94Y-4.57
X55.94Y-27.43
T4
X9.25Y-42.0
X10.64Y-38.64
X10.64Y-45.36
X17.36Y-38.64
X17.36Y-45.36
X18.75Y-42.0
M30
