%TF.GenerationSoftware,KiCad,Pcbnew,10.0.6*%
%TF.CreationDate,2026-09-22T15:43:02-04:00*%
%TF.ProjectId,carrier,63617272-6965-4722-9e6b-696361645f70,A*%
%TF.SameCoordinates,Original*%
%TF.FileFunction,Legend,Bot*%
%TF.FilePolarity,Positive*%
%FSLAX46Y46*%
G04 Gerber Fmt 4.6, Leading zero omitted, Abs format (unit mm)*
G04 Created by KiCad (PCBNEW 10.0.6) date 2026-09-22 15:43:02*
%MOMM*%
%LPD*%
G01*
G04 APERTURE LIST*
G04 Aperture macros list*
%AMRoundRect*
0 Rectangle with rounded corners*
0 $1 Rounding radius*
0 $2 $3 $4 $5 $6 $7 $8 $9 X,Y pos of 4 corners*
0 Add a 4 corners polygon primitive as box body*
4,1,4,$2,$3,$4,$5,$6,$7,$8,$9,$2,$3,0*
0 Add four circle primitives for the rounded corners*
1,1,$1+$1,$2,$3*
1,1,$1+$1,$4,$5*
1,1,$1+$1,$6,$7*
1,1,$1+$1,$8,$9*
0 Add four rect primitives between the rounded corners*
20,1,$1+$1,$2,$3,$4,$5,0*
20,1,$1+$1,$4,$5,$6,$7,0*
20,1,$1+$1,$6,$7,$8,$9,0*
20,1,$1+$1,$8,$9,$2,$3,0*%
G04 Aperture macros list end*
%ADD10C,0.120000*%
%ADD11C,0.150000*%
%ADD12C,2.700000*%
%ADD13RoundRect,0.250000X-0.600000X-0.725000X0.600000X-0.725000X0.600000X0.725000X-0.600000X0.725000X0*%
%ADD14O,1.700000X1.950000*%
%ADD15R,2.400000X2.400000*%
%ADD16C,2.400000*%
%ADD17R,1.700000X1.700000*%
%ADD18O,1.700000X1.700000*%
G04 APERTURE END LIST*
D10*
X43503571Y-19386987D02*
X43786905Y-18982225D01*
X43989286Y-19386987D02*
X43989286Y-18536987D01*
X43989286Y-18536987D02*
X43665476Y-18536987D01*
X43665476Y-18536987D02*
X43584524Y-18577463D01*
X43584524Y-18577463D02*
X43544047Y-18617939D01*
X43544047Y-18617939D02*
X43503571Y-18698891D01*
X43503571Y-18698891D02*
X43503571Y-18820320D01*
X43503571Y-18820320D02*
X43544047Y-18901272D01*
X43544047Y-18901272D02*
X43584524Y-18941749D01*
X43584524Y-18941749D02*
X43665476Y-18982225D01*
X43665476Y-18982225D02*
X43989286Y-18982225D01*
X43139286Y-18941749D02*
X42855952Y-18941749D01*
X42734524Y-19386987D02*
X43139286Y-19386987D01*
X43139286Y-19386987D02*
X43139286Y-18536987D01*
X43139286Y-18536987D02*
X42734524Y-18536987D01*
X42370238Y-19386987D02*
X42370238Y-18536987D01*
X42370238Y-18536987D02*
X42086904Y-19144130D01*
X42086904Y-19144130D02*
X41803571Y-18536987D01*
X41803571Y-18536987D02*
X41803571Y-19386987D01*
X41236904Y-18536987D02*
X41074999Y-18536987D01*
X41074999Y-18536987D02*
X40994047Y-18577463D01*
X40994047Y-18577463D02*
X40913094Y-18658415D01*
X40913094Y-18658415D02*
X40872618Y-18820320D01*
X40872618Y-18820320D02*
X40872618Y-19103653D01*
X40872618Y-19103653D02*
X40913094Y-19265558D01*
X40913094Y-19265558D02*
X40994047Y-19346511D01*
X40994047Y-19346511D02*
X41074999Y-19386987D01*
X41074999Y-19386987D02*
X41236904Y-19386987D01*
X41236904Y-19386987D02*
X41317856Y-19346511D01*
X41317856Y-19346511D02*
X41398809Y-19265558D01*
X41398809Y-19265558D02*
X41439285Y-19103653D01*
X41439285Y-19103653D02*
X41439285Y-18820320D01*
X41439285Y-18820320D02*
X41398809Y-18658415D01*
X41398809Y-18658415D02*
X41317856Y-18577463D01*
X41317856Y-18577463D02*
X41236904Y-18536987D01*
X40629761Y-18536987D02*
X40346428Y-19386987D01*
X40346428Y-19386987D02*
X40063094Y-18536987D01*
X39779762Y-18941749D02*
X39496428Y-18941749D01*
X39375000Y-19386987D02*
X39779762Y-19386987D01*
X39779762Y-19386987D02*
X39779762Y-18536987D01*
X39779762Y-18536987D02*
X39375000Y-18536987D01*
X38363095Y-19386987D02*
X38363095Y-18536987D01*
X38363095Y-18536987D02*
X38039285Y-18536987D01*
X38039285Y-18536987D02*
X37958333Y-18577463D01*
X37958333Y-18577463D02*
X37917856Y-18617939D01*
X37917856Y-18617939D02*
X37877380Y-18698891D01*
X37877380Y-18698891D02*
X37877380Y-18820320D01*
X37877380Y-18820320D02*
X37917856Y-18901272D01*
X37917856Y-18901272D02*
X37958333Y-18941749D01*
X37958333Y-18941749D02*
X38039285Y-18982225D01*
X38039285Y-18982225D02*
X38363095Y-18982225D01*
X37351190Y-18536987D02*
X37189285Y-18536987D01*
X37189285Y-18536987D02*
X37108333Y-18577463D01*
X37108333Y-18577463D02*
X37027380Y-18658415D01*
X37027380Y-18658415D02*
X36986904Y-18820320D01*
X36986904Y-18820320D02*
X36986904Y-19103653D01*
X36986904Y-19103653D02*
X37027380Y-19265558D01*
X37027380Y-19265558D02*
X37108333Y-19346511D01*
X37108333Y-19346511D02*
X37189285Y-19386987D01*
X37189285Y-19386987D02*
X37351190Y-19386987D01*
X37351190Y-19386987D02*
X37432142Y-19346511D01*
X37432142Y-19346511D02*
X37513095Y-19265558D01*
X37513095Y-19265558D02*
X37553571Y-19103653D01*
X37553571Y-19103653D02*
X37553571Y-18820320D01*
X37553571Y-18820320D02*
X37513095Y-18658415D01*
X37513095Y-18658415D02*
X37432142Y-18577463D01*
X37432142Y-18577463D02*
X37351190Y-18536987D01*
X36703571Y-18536987D02*
X36501190Y-19386987D01*
X36501190Y-19386987D02*
X36339285Y-18779844D01*
X36339285Y-18779844D02*
X36177380Y-19386987D01*
X36177380Y-19386987D02*
X35975000Y-18536987D01*
X35651190Y-18941749D02*
X35367856Y-18941749D01*
X35246428Y-19386987D02*
X35651190Y-19386987D01*
X35651190Y-19386987D02*
X35651190Y-18536987D01*
X35651190Y-18536987D02*
X35246428Y-18536987D01*
X34396427Y-19386987D02*
X34679761Y-18982225D01*
X34882142Y-19386987D02*
X34882142Y-18536987D01*
X34882142Y-18536987D02*
X34558332Y-18536987D01*
X34558332Y-18536987D02*
X34477380Y-18577463D01*
X34477380Y-18577463D02*
X34436903Y-18617939D01*
X34436903Y-18617939D02*
X34396427Y-18698891D01*
X34396427Y-18698891D02*
X34396427Y-18820320D01*
X34396427Y-18820320D02*
X34436903Y-18901272D01*
X34436903Y-18901272D02*
X34477380Y-18941749D01*
X34477380Y-18941749D02*
X34558332Y-18982225D01*
X34558332Y-18982225D02*
X34882142Y-18982225D01*
X33101189Y-18941749D02*
X32979761Y-18982225D01*
X32979761Y-18982225D02*
X32939284Y-19022701D01*
X32939284Y-19022701D02*
X32898808Y-19103653D01*
X32898808Y-19103653D02*
X32898808Y-19225082D01*
X32898808Y-19225082D02*
X32939284Y-19306034D01*
X32939284Y-19306034D02*
X32979761Y-19346511D01*
X32979761Y-19346511D02*
X33060713Y-19386987D01*
X33060713Y-19386987D02*
X33384523Y-19386987D01*
X33384523Y-19386987D02*
X33384523Y-18536987D01*
X33384523Y-18536987D02*
X33101189Y-18536987D01*
X33101189Y-18536987D02*
X33020237Y-18577463D01*
X33020237Y-18577463D02*
X32979761Y-18617939D01*
X32979761Y-18617939D02*
X32939284Y-18698891D01*
X32939284Y-18698891D02*
X32939284Y-18779844D01*
X32939284Y-18779844D02*
X32979761Y-18860796D01*
X32979761Y-18860796D02*
X33020237Y-18901272D01*
X33020237Y-18901272D02*
X33101189Y-18941749D01*
X33101189Y-18941749D02*
X33384523Y-18941749D01*
X32534523Y-18941749D02*
X32251189Y-18941749D01*
X32129761Y-19386987D02*
X32534523Y-19386987D01*
X32534523Y-19386987D02*
X32534523Y-18536987D01*
X32534523Y-18536987D02*
X32129761Y-18536987D01*
X31482141Y-18941749D02*
X31765475Y-18941749D01*
X31765475Y-19386987D02*
X31765475Y-18536987D01*
X31765475Y-18536987D02*
X31360713Y-18536987D01*
X30874999Y-18536987D02*
X30713094Y-18536987D01*
X30713094Y-18536987D02*
X30632142Y-18577463D01*
X30632142Y-18577463D02*
X30551189Y-18658415D01*
X30551189Y-18658415D02*
X30510713Y-18820320D01*
X30510713Y-18820320D02*
X30510713Y-19103653D01*
X30510713Y-19103653D02*
X30551189Y-19265558D01*
X30551189Y-19265558D02*
X30632142Y-19346511D01*
X30632142Y-19346511D02*
X30713094Y-19386987D01*
X30713094Y-19386987D02*
X30874999Y-19386987D01*
X30874999Y-19386987D02*
X30955951Y-19346511D01*
X30955951Y-19346511D02*
X31036904Y-19265558D01*
X31036904Y-19265558D02*
X31077380Y-19103653D01*
X31077380Y-19103653D02*
X31077380Y-18820320D01*
X31077380Y-18820320D02*
X31036904Y-18658415D01*
X31036904Y-18658415D02*
X30955951Y-18577463D01*
X30955951Y-18577463D02*
X30874999Y-18536987D01*
X29660713Y-19386987D02*
X29944047Y-18982225D01*
X30146428Y-19386987D02*
X30146428Y-18536987D01*
X30146428Y-18536987D02*
X29822618Y-18536987D01*
X29822618Y-18536987D02*
X29741666Y-18577463D01*
X29741666Y-18577463D02*
X29701189Y-18617939D01*
X29701189Y-18617939D02*
X29660713Y-18698891D01*
X29660713Y-18698891D02*
X29660713Y-18820320D01*
X29660713Y-18820320D02*
X29701189Y-18901272D01*
X29701189Y-18901272D02*
X29741666Y-18941749D01*
X29741666Y-18941749D02*
X29822618Y-18982225D01*
X29822618Y-18982225D02*
X30146428Y-18982225D01*
X29296428Y-18941749D02*
X29013094Y-18941749D01*
X28891666Y-19386987D02*
X29296428Y-19386987D01*
X29296428Y-19386987D02*
X29296428Y-18536987D01*
X29296428Y-18536987D02*
X28891666Y-18536987D01*
X27879761Y-19386987D02*
X27879761Y-18536987D01*
X27879761Y-18536987D02*
X27555951Y-18536987D01*
X27555951Y-18536987D02*
X27474999Y-18577463D01*
X27474999Y-18577463D02*
X27434522Y-18617939D01*
X27434522Y-18617939D02*
X27394046Y-18698891D01*
X27394046Y-18698891D02*
X27394046Y-18820320D01*
X27394046Y-18820320D02*
X27434522Y-18901272D01*
X27434522Y-18901272D02*
X27474999Y-18941749D01*
X27474999Y-18941749D02*
X27555951Y-18982225D01*
X27555951Y-18982225D02*
X27879761Y-18982225D01*
X26624999Y-19386987D02*
X27029761Y-19386987D01*
X27029761Y-19386987D02*
X27029761Y-18536987D01*
X26341666Y-18536987D02*
X26341666Y-19225082D01*
X26341666Y-19225082D02*
X26301189Y-19306034D01*
X26301189Y-19306034D02*
X26260713Y-19346511D01*
X26260713Y-19346511D02*
X26179761Y-19386987D01*
X26179761Y-19386987D02*
X26017856Y-19386987D01*
X26017856Y-19386987D02*
X25936904Y-19346511D01*
X25936904Y-19346511D02*
X25896427Y-19306034D01*
X25896427Y-19306034D02*
X25855951Y-19225082D01*
X25855951Y-19225082D02*
X25855951Y-18536987D01*
X25005951Y-18577463D02*
X25086904Y-18536987D01*
X25086904Y-18536987D02*
X25208332Y-18536987D01*
X25208332Y-18536987D02*
X25329761Y-18577463D01*
X25329761Y-18577463D02*
X25410713Y-18658415D01*
X25410713Y-18658415D02*
X25451190Y-18739368D01*
X25451190Y-18739368D02*
X25491666Y-18901272D01*
X25491666Y-18901272D02*
X25491666Y-19022701D01*
X25491666Y-19022701D02*
X25451190Y-19184606D01*
X25451190Y-19184606D02*
X25410713Y-19265558D01*
X25410713Y-19265558D02*
X25329761Y-19346511D01*
X25329761Y-19346511D02*
X25208332Y-19386987D01*
X25208332Y-19386987D02*
X25127380Y-19386987D01*
X25127380Y-19386987D02*
X25005951Y-19346511D01*
X25005951Y-19346511D02*
X24965475Y-19306034D01*
X24965475Y-19306034D02*
X24965475Y-19022701D01*
X24965475Y-19022701D02*
X25127380Y-19022701D01*
X24155951Y-18577463D02*
X24236904Y-18536987D01*
X24236904Y-18536987D02*
X24358332Y-18536987D01*
X24358332Y-18536987D02*
X24479761Y-18577463D01*
X24479761Y-18577463D02*
X24560713Y-18658415D01*
X24560713Y-18658415D02*
X24601190Y-18739368D01*
X24601190Y-18739368D02*
X24641666Y-18901272D01*
X24641666Y-18901272D02*
X24641666Y-19022701D01*
X24641666Y-19022701D02*
X24601190Y-19184606D01*
X24601190Y-19184606D02*
X24560713Y-19265558D01*
X24560713Y-19265558D02*
X24479761Y-19346511D01*
X24479761Y-19346511D02*
X24358332Y-19386987D01*
X24358332Y-19386987D02*
X24277380Y-19386987D01*
X24277380Y-19386987D02*
X24155951Y-19346511D01*
X24155951Y-19346511D02*
X24115475Y-19306034D01*
X24115475Y-19306034D02*
X24115475Y-19022701D01*
X24115475Y-19022701D02*
X24277380Y-19022701D01*
X23751190Y-19386987D02*
X23751190Y-18536987D01*
X23346428Y-19386987D02*
X23346428Y-18536987D01*
X23346428Y-18536987D02*
X22860713Y-19386987D01*
X22860713Y-19386987D02*
X22860713Y-18536987D01*
X22010713Y-18577463D02*
X22091666Y-18536987D01*
X22091666Y-18536987D02*
X22213094Y-18536987D01*
X22213094Y-18536987D02*
X22334523Y-18577463D01*
X22334523Y-18577463D02*
X22415475Y-18658415D01*
X22415475Y-18658415D02*
X22455952Y-18739368D01*
X22455952Y-18739368D02*
X22496428Y-18901272D01*
X22496428Y-18901272D02*
X22496428Y-19022701D01*
X22496428Y-19022701D02*
X22455952Y-19184606D01*
X22455952Y-19184606D02*
X22415475Y-19265558D01*
X22415475Y-19265558D02*
X22334523Y-19346511D01*
X22334523Y-19346511D02*
X22213094Y-19386987D01*
X22213094Y-19386987D02*
X22132142Y-19386987D01*
X22132142Y-19386987D02*
X22010713Y-19346511D01*
X22010713Y-19346511D02*
X21970237Y-19306034D01*
X21970237Y-19306034D02*
X21970237Y-19022701D01*
X21970237Y-19022701D02*
X22132142Y-19022701D01*
X44421427Y-14510117D02*
X44592855Y-14510117D01*
X44592855Y-14510117D02*
X44678569Y-14552974D01*
X44678569Y-14552974D02*
X44721427Y-14595831D01*
X44721427Y-14595831D02*
X44807141Y-14724402D01*
X44807141Y-14724402D02*
X44849998Y-14895831D01*
X44849998Y-14895831D02*
X44849998Y-15238688D01*
X44849998Y-15238688D02*
X44807141Y-15324402D01*
X44807141Y-15324402D02*
X44764284Y-15367260D01*
X44764284Y-15367260D02*
X44678569Y-15410117D01*
X44678569Y-15410117D02*
X44507141Y-15410117D01*
X44507141Y-15410117D02*
X44421427Y-15367260D01*
X44421427Y-15367260D02*
X44378569Y-15324402D01*
X44378569Y-15324402D02*
X44335712Y-15238688D01*
X44335712Y-15238688D02*
X44335712Y-15024402D01*
X44335712Y-15024402D02*
X44378569Y-14938688D01*
X44378569Y-14938688D02*
X44421427Y-14895831D01*
X44421427Y-14895831D02*
X44507141Y-14852974D01*
X44507141Y-14852974D02*
X44678569Y-14852974D01*
X44678569Y-14852974D02*
X44764284Y-14895831D01*
X44764284Y-14895831D02*
X44807141Y-14938688D01*
X44807141Y-14938688D02*
X44849998Y-15024402D01*
X43821426Y-14895831D02*
X43907141Y-14852974D01*
X43907141Y-14852974D02*
X43949998Y-14810117D01*
X43949998Y-14810117D02*
X43992855Y-14724402D01*
X43992855Y-14724402D02*
X43992855Y-14681545D01*
X43992855Y-14681545D02*
X43949998Y-14595831D01*
X43949998Y-14595831D02*
X43907141Y-14552974D01*
X43907141Y-14552974D02*
X43821426Y-14510117D01*
X43821426Y-14510117D02*
X43649998Y-14510117D01*
X43649998Y-14510117D02*
X43564284Y-14552974D01*
X43564284Y-14552974D02*
X43521426Y-14595831D01*
X43521426Y-14595831D02*
X43478569Y-14681545D01*
X43478569Y-14681545D02*
X43478569Y-14724402D01*
X43478569Y-14724402D02*
X43521426Y-14810117D01*
X43521426Y-14810117D02*
X43564284Y-14852974D01*
X43564284Y-14852974D02*
X43649998Y-14895831D01*
X43649998Y-14895831D02*
X43821426Y-14895831D01*
X43821426Y-14895831D02*
X43907141Y-14938688D01*
X43907141Y-14938688D02*
X43949998Y-14981545D01*
X43949998Y-14981545D02*
X43992855Y-15067260D01*
X43992855Y-15067260D02*
X43992855Y-15238688D01*
X43992855Y-15238688D02*
X43949998Y-15324402D01*
X43949998Y-15324402D02*
X43907141Y-15367260D01*
X43907141Y-15367260D02*
X43821426Y-15410117D01*
X43821426Y-15410117D02*
X43649998Y-15410117D01*
X43649998Y-15410117D02*
X43564284Y-15367260D01*
X43564284Y-15367260D02*
X43521426Y-15324402D01*
X43521426Y-15324402D02*
X43478569Y-15238688D01*
X43478569Y-15238688D02*
X43478569Y-15067260D01*
X43478569Y-15067260D02*
X43521426Y-14981545D01*
X43521426Y-14981545D02*
X43564284Y-14938688D01*
X43564284Y-14938688D02*
X43649998Y-14895831D01*
X42492855Y-15410117D02*
X42021427Y-14810117D01*
X42492855Y-14810117D02*
X42021427Y-15410117D01*
X41078570Y-14510117D02*
X40478570Y-14510117D01*
X40478570Y-14510117D02*
X40864284Y-15410117D01*
X39964284Y-14510117D02*
X39878570Y-14510117D01*
X39878570Y-14510117D02*
X39792856Y-14552974D01*
X39792856Y-14552974D02*
X39749999Y-14595831D01*
X39749999Y-14595831D02*
X39707141Y-14681545D01*
X39707141Y-14681545D02*
X39664284Y-14852974D01*
X39664284Y-14852974D02*
X39664284Y-15067260D01*
X39664284Y-15067260D02*
X39707141Y-15238688D01*
X39707141Y-15238688D02*
X39749999Y-15324402D01*
X39749999Y-15324402D02*
X39792856Y-15367260D01*
X39792856Y-15367260D02*
X39878570Y-15410117D01*
X39878570Y-15410117D02*
X39964284Y-15410117D01*
X39964284Y-15410117D02*
X40049999Y-15367260D01*
X40049999Y-15367260D02*
X40092856Y-15324402D01*
X40092856Y-15324402D02*
X40135713Y-15238688D01*
X40135713Y-15238688D02*
X40178570Y-15067260D01*
X40178570Y-15067260D02*
X40178570Y-14852974D01*
X40178570Y-14852974D02*
X40135713Y-14681545D01*
X40135713Y-14681545D02*
X40092856Y-14595831D01*
X40092856Y-14595831D02*
X40049999Y-14552974D01*
X40049999Y-14552974D02*
X39964284Y-14510117D01*
X38592856Y-15410117D02*
X38592856Y-14810117D01*
X38592856Y-14895831D02*
X38549999Y-14852974D01*
X38549999Y-14852974D02*
X38464284Y-14810117D01*
X38464284Y-14810117D02*
X38335713Y-14810117D01*
X38335713Y-14810117D02*
X38249999Y-14852974D01*
X38249999Y-14852974D02*
X38207142Y-14938688D01*
X38207142Y-14938688D02*
X38207142Y-15410117D01*
X38207142Y-14938688D02*
X38164284Y-14852974D01*
X38164284Y-14852974D02*
X38078570Y-14810117D01*
X38078570Y-14810117D02*
X37949999Y-14810117D01*
X37949999Y-14810117D02*
X37864284Y-14852974D01*
X37864284Y-14852974D02*
X37821427Y-14938688D01*
X37821427Y-14938688D02*
X37821427Y-15410117D01*
X37392856Y-15410117D02*
X37392856Y-14810117D01*
X37392856Y-14895831D02*
X37349999Y-14852974D01*
X37349999Y-14852974D02*
X37264284Y-14810117D01*
X37264284Y-14810117D02*
X37135713Y-14810117D01*
X37135713Y-14810117D02*
X37049999Y-14852974D01*
X37049999Y-14852974D02*
X37007142Y-14938688D01*
X37007142Y-14938688D02*
X37007142Y-15410117D01*
X37007142Y-14938688D02*
X36964284Y-14852974D01*
X36964284Y-14852974D02*
X36878570Y-14810117D01*
X36878570Y-14810117D02*
X36749999Y-14810117D01*
X36749999Y-14810117D02*
X36664284Y-14852974D01*
X36664284Y-14852974D02*
X36621427Y-14938688D01*
X36621427Y-14938688D02*
X36621427Y-15410117D01*
X34864285Y-14467260D02*
X35635713Y-15624402D01*
X33407142Y-15410117D02*
X33921428Y-15410117D01*
X33664285Y-15410117D02*
X33664285Y-14510117D01*
X33664285Y-14510117D02*
X33749999Y-14638688D01*
X33749999Y-14638688D02*
X33835714Y-14724402D01*
X33835714Y-14724402D02*
X33921428Y-14767260D01*
X33021428Y-15324402D02*
X32978571Y-15367260D01*
X32978571Y-15367260D02*
X33021428Y-15410117D01*
X33021428Y-15410117D02*
X33064285Y-15367260D01*
X33064285Y-15367260D02*
X33021428Y-15324402D01*
X33021428Y-15324402D02*
X33021428Y-15410117D01*
X32207143Y-14510117D02*
X32378571Y-14510117D01*
X32378571Y-14510117D02*
X32464285Y-14552974D01*
X32464285Y-14552974D02*
X32507143Y-14595831D01*
X32507143Y-14595831D02*
X32592857Y-14724402D01*
X32592857Y-14724402D02*
X32635714Y-14895831D01*
X32635714Y-14895831D02*
X32635714Y-15238688D01*
X32635714Y-15238688D02*
X32592857Y-15324402D01*
X32592857Y-15324402D02*
X32550000Y-15367260D01*
X32550000Y-15367260D02*
X32464285Y-15410117D01*
X32464285Y-15410117D02*
X32292857Y-15410117D01*
X32292857Y-15410117D02*
X32207143Y-15367260D01*
X32207143Y-15367260D02*
X32164285Y-15324402D01*
X32164285Y-15324402D02*
X32121428Y-15238688D01*
X32121428Y-15238688D02*
X32121428Y-15024402D01*
X32121428Y-15024402D02*
X32164285Y-14938688D01*
X32164285Y-14938688D02*
X32207143Y-14895831D01*
X32207143Y-14895831D02*
X32292857Y-14852974D01*
X32292857Y-14852974D02*
X32464285Y-14852974D01*
X32464285Y-14852974D02*
X32550000Y-14895831D01*
X32550000Y-14895831D02*
X32592857Y-14938688D01*
X32592857Y-14938688D02*
X32635714Y-15024402D01*
X31050000Y-15410117D02*
X31050000Y-14810117D01*
X31050000Y-14895831D02*
X31007143Y-14852974D01*
X31007143Y-14852974D02*
X30921428Y-14810117D01*
X30921428Y-14810117D02*
X30792857Y-14810117D01*
X30792857Y-14810117D02*
X30707143Y-14852974D01*
X30707143Y-14852974D02*
X30664286Y-14938688D01*
X30664286Y-14938688D02*
X30664286Y-15410117D01*
X30664286Y-14938688D02*
X30621428Y-14852974D01*
X30621428Y-14852974D02*
X30535714Y-14810117D01*
X30535714Y-14810117D02*
X30407143Y-14810117D01*
X30407143Y-14810117D02*
X30321428Y-14852974D01*
X30321428Y-14852974D02*
X30278571Y-14938688D01*
X30278571Y-14938688D02*
X30278571Y-15410117D01*
X29850000Y-15410117D02*
X29850000Y-14810117D01*
X29850000Y-14895831D02*
X29807143Y-14852974D01*
X29807143Y-14852974D02*
X29721428Y-14810117D01*
X29721428Y-14810117D02*
X29592857Y-14810117D01*
X29592857Y-14810117D02*
X29507143Y-14852974D01*
X29507143Y-14852974D02*
X29464286Y-14938688D01*
X29464286Y-14938688D02*
X29464286Y-15410117D01*
X29464286Y-14938688D02*
X29421428Y-14852974D01*
X29421428Y-14852974D02*
X29335714Y-14810117D01*
X29335714Y-14810117D02*
X29207143Y-14810117D01*
X29207143Y-14810117D02*
X29121428Y-14852974D01*
X29121428Y-14852974D02*
X29078571Y-14938688D01*
X29078571Y-14938688D02*
X29078571Y-15410117D01*
X27321429Y-14467260D02*
X28092857Y-15624402D01*
X26378572Y-14595831D02*
X26335715Y-14552974D01*
X26335715Y-14552974D02*
X26250001Y-14510117D01*
X26250001Y-14510117D02*
X26035715Y-14510117D01*
X26035715Y-14510117D02*
X25950001Y-14552974D01*
X25950001Y-14552974D02*
X25907143Y-14595831D01*
X25907143Y-14595831D02*
X25864286Y-14681545D01*
X25864286Y-14681545D02*
X25864286Y-14767260D01*
X25864286Y-14767260D02*
X25907143Y-14895831D01*
X25907143Y-14895831D02*
X26421429Y-15410117D01*
X26421429Y-15410117D02*
X25864286Y-15410117D01*
X24664286Y-15410117D02*
X24750001Y-15367260D01*
X24750001Y-15367260D02*
X24792858Y-15281545D01*
X24792858Y-15281545D02*
X24792858Y-14510117D01*
X23935715Y-15410117D02*
X23935715Y-14938688D01*
X23935715Y-14938688D02*
X23978572Y-14852974D01*
X23978572Y-14852974D02*
X24064286Y-14810117D01*
X24064286Y-14810117D02*
X24235715Y-14810117D01*
X24235715Y-14810117D02*
X24321429Y-14852974D01*
X23935715Y-15367260D02*
X24021429Y-15410117D01*
X24021429Y-15410117D02*
X24235715Y-15410117D01*
X24235715Y-15410117D02*
X24321429Y-15367260D01*
X24321429Y-15367260D02*
X24364286Y-15281545D01*
X24364286Y-15281545D02*
X24364286Y-15195831D01*
X24364286Y-15195831D02*
X24321429Y-15110117D01*
X24321429Y-15110117D02*
X24235715Y-15067260D01*
X24235715Y-15067260D02*
X24021429Y-15067260D01*
X24021429Y-15067260D02*
X23935715Y-15024402D01*
X23592857Y-14810117D02*
X23378571Y-15410117D01*
X23164286Y-14810117D02*
X23378571Y-15410117D01*
X23378571Y-15410117D02*
X23464286Y-15624402D01*
X23464286Y-15624402D02*
X23507143Y-15667260D01*
X23507143Y-15667260D02*
X23592857Y-15710117D01*
X22478572Y-15367260D02*
X22564286Y-15410117D01*
X22564286Y-15410117D02*
X22735715Y-15410117D01*
X22735715Y-15410117D02*
X22821429Y-15367260D01*
X22821429Y-15367260D02*
X22864286Y-15281545D01*
X22864286Y-15281545D02*
X22864286Y-14938688D01*
X22864286Y-14938688D02*
X22821429Y-14852974D01*
X22821429Y-14852974D02*
X22735715Y-14810117D01*
X22735715Y-14810117D02*
X22564286Y-14810117D01*
X22564286Y-14810117D02*
X22478572Y-14852974D01*
X22478572Y-14852974D02*
X22435715Y-14938688D01*
X22435715Y-14938688D02*
X22435715Y-15024402D01*
X22435715Y-15024402D02*
X22864286Y-15110117D01*
X22050000Y-15410117D02*
X22050000Y-14810117D01*
X22050000Y-14981545D02*
X22007143Y-14895831D01*
X22007143Y-14895831D02*
X21964286Y-14852974D01*
X21964286Y-14852974D02*
X21878571Y-14810117D01*
X21878571Y-14810117D02*
X21792857Y-14810117D01*
X21535714Y-15367260D02*
X21450000Y-15410117D01*
X21450000Y-15410117D02*
X21278571Y-15410117D01*
X21278571Y-15410117D02*
X21192857Y-15367260D01*
X21192857Y-15367260D02*
X21150000Y-15281545D01*
X21150000Y-15281545D02*
X21150000Y-15238688D01*
X21150000Y-15238688D02*
X21192857Y-15152974D01*
X21192857Y-15152974D02*
X21278571Y-15110117D01*
X21278571Y-15110117D02*
X21407143Y-15110117D01*
X21407143Y-15110117D02*
X21492857Y-15067260D01*
X21492857Y-15067260D02*
X21535714Y-14981545D01*
X21535714Y-14981545D02*
X21535714Y-14938688D01*
X21535714Y-14938688D02*
X21492857Y-14852974D01*
X21492857Y-14852974D02*
X21407143Y-14810117D01*
X21407143Y-14810117D02*
X21278571Y-14810117D01*
X21278571Y-14810117D02*
X21192857Y-14852974D01*
X46521427Y-46324402D02*
X46564284Y-46367260D01*
X46564284Y-46367260D02*
X46692856Y-46410117D01*
X46692856Y-46410117D02*
X46778570Y-46410117D01*
X46778570Y-46410117D02*
X46907141Y-46367260D01*
X46907141Y-46367260D02*
X46992856Y-46281545D01*
X46992856Y-46281545D02*
X47035713Y-46195831D01*
X47035713Y-46195831D02*
X47078570Y-46024402D01*
X47078570Y-46024402D02*
X47078570Y-45895831D01*
X47078570Y-45895831D02*
X47035713Y-45724402D01*
X47035713Y-45724402D02*
X46992856Y-45638688D01*
X46992856Y-45638688D02*
X46907141Y-45552974D01*
X46907141Y-45552974D02*
X46778570Y-45510117D01*
X46778570Y-45510117D02*
X46692856Y-45510117D01*
X46692856Y-45510117D02*
X46564284Y-45552974D01*
X46564284Y-45552974D02*
X46521427Y-45595831D01*
X45707141Y-46410117D02*
X46135713Y-46410117D01*
X46135713Y-46410117D02*
X46135713Y-45510117D01*
X45449999Y-46152974D02*
X45021428Y-46152974D01*
X45535713Y-46410117D02*
X45235713Y-45510117D01*
X45235713Y-45510117D02*
X44935713Y-46410117D01*
X44678570Y-46367260D02*
X44549999Y-46410117D01*
X44549999Y-46410117D02*
X44335713Y-46410117D01*
X44335713Y-46410117D02*
X44249999Y-46367260D01*
X44249999Y-46367260D02*
X44207141Y-46324402D01*
X44207141Y-46324402D02*
X44164284Y-46238688D01*
X44164284Y-46238688D02*
X44164284Y-46152974D01*
X44164284Y-46152974D02*
X44207141Y-46067260D01*
X44207141Y-46067260D02*
X44249999Y-46024402D01*
X44249999Y-46024402D02*
X44335713Y-45981545D01*
X44335713Y-45981545D02*
X44507141Y-45938688D01*
X44507141Y-45938688D02*
X44592856Y-45895831D01*
X44592856Y-45895831D02*
X44635713Y-45852974D01*
X44635713Y-45852974D02*
X44678570Y-45767260D01*
X44678570Y-45767260D02*
X44678570Y-45681545D01*
X44678570Y-45681545D02*
X44635713Y-45595831D01*
X44635713Y-45595831D02*
X44592856Y-45552974D01*
X44592856Y-45552974D02*
X44507141Y-45510117D01*
X44507141Y-45510117D02*
X44292856Y-45510117D01*
X44292856Y-45510117D02*
X44164284Y-45552974D01*
X43821427Y-46367260D02*
X43692856Y-46410117D01*
X43692856Y-46410117D02*
X43478570Y-46410117D01*
X43478570Y-46410117D02*
X43392856Y-46367260D01*
X43392856Y-46367260D02*
X43349998Y-46324402D01*
X43349998Y-46324402D02*
X43307141Y-46238688D01*
X43307141Y-46238688D02*
X43307141Y-46152974D01*
X43307141Y-46152974D02*
X43349998Y-46067260D01*
X43349998Y-46067260D02*
X43392856Y-46024402D01*
X43392856Y-46024402D02*
X43478570Y-45981545D01*
X43478570Y-45981545D02*
X43649998Y-45938688D01*
X43649998Y-45938688D02*
X43735713Y-45895831D01*
X43735713Y-45895831D02*
X43778570Y-45852974D01*
X43778570Y-45852974D02*
X43821427Y-45767260D01*
X43821427Y-45767260D02*
X43821427Y-45681545D01*
X43821427Y-45681545D02*
X43778570Y-45595831D01*
X43778570Y-45595831D02*
X43735713Y-45552974D01*
X43735713Y-45552974D02*
X43649998Y-45510117D01*
X43649998Y-45510117D02*
X43435713Y-45510117D01*
X43435713Y-45510117D02*
X43307141Y-45552974D01*
X42921427Y-46410117D02*
X42921427Y-45510117D01*
X41978570Y-46324402D02*
X42021427Y-46367260D01*
X42021427Y-46367260D02*
X42149999Y-46410117D01*
X42149999Y-46410117D02*
X42235713Y-46410117D01*
X42235713Y-46410117D02*
X42364284Y-46367260D01*
X42364284Y-46367260D02*
X42449999Y-46281545D01*
X42449999Y-46281545D02*
X42492856Y-46195831D01*
X42492856Y-46195831D02*
X42535713Y-46024402D01*
X42535713Y-46024402D02*
X42535713Y-45895831D01*
X42535713Y-45895831D02*
X42492856Y-45724402D01*
X42492856Y-45724402D02*
X42449999Y-45638688D01*
X42449999Y-45638688D02*
X42364284Y-45552974D01*
X42364284Y-45552974D02*
X42235713Y-45510117D01*
X42235713Y-45510117D02*
X42149999Y-45510117D01*
X42149999Y-45510117D02*
X42021427Y-45552974D01*
X42021427Y-45552974D02*
X41978570Y-45595831D01*
X40864285Y-46410117D02*
X40692856Y-46410117D01*
X40692856Y-46410117D02*
X40607142Y-46367260D01*
X40607142Y-46367260D02*
X40564285Y-46324402D01*
X40564285Y-46324402D02*
X40478570Y-46195831D01*
X40478570Y-46195831D02*
X40435713Y-46024402D01*
X40435713Y-46024402D02*
X40435713Y-45681545D01*
X40435713Y-45681545D02*
X40478570Y-45595831D01*
X40478570Y-45595831D02*
X40521428Y-45552974D01*
X40521428Y-45552974D02*
X40607142Y-45510117D01*
X40607142Y-45510117D02*
X40778570Y-45510117D01*
X40778570Y-45510117D02*
X40864285Y-45552974D01*
X40864285Y-45552974D02*
X40907142Y-45595831D01*
X40907142Y-45595831D02*
X40949999Y-45681545D01*
X40949999Y-45681545D02*
X40949999Y-45895831D01*
X40949999Y-45895831D02*
X40907142Y-45981545D01*
X40907142Y-45981545D02*
X40864285Y-46024402D01*
X40864285Y-46024402D02*
X40778570Y-46067260D01*
X40778570Y-46067260D02*
X40607142Y-46067260D01*
X40607142Y-46067260D02*
X40521428Y-46024402D01*
X40521428Y-46024402D02*
X40478570Y-45981545D01*
X40478570Y-45981545D02*
X40435713Y-45895831D01*
X40049999Y-46324402D02*
X40007142Y-46367260D01*
X40007142Y-46367260D02*
X40049999Y-46410117D01*
X40049999Y-46410117D02*
X40092856Y-46367260D01*
X40092856Y-46367260D02*
X40049999Y-46324402D01*
X40049999Y-46324402D02*
X40049999Y-46410117D01*
X39192856Y-45510117D02*
X39621428Y-45510117D01*
X39621428Y-45510117D02*
X39664285Y-45938688D01*
X39664285Y-45938688D02*
X39621428Y-45895831D01*
X39621428Y-45895831D02*
X39535714Y-45852974D01*
X39535714Y-45852974D02*
X39321428Y-45852974D01*
X39321428Y-45852974D02*
X39235714Y-45895831D01*
X39235714Y-45895831D02*
X39192856Y-45938688D01*
X39192856Y-45938688D02*
X39149999Y-46024402D01*
X39149999Y-46024402D02*
X39149999Y-46238688D01*
X39149999Y-46238688D02*
X39192856Y-46324402D01*
X39192856Y-46324402D02*
X39235714Y-46367260D01*
X39235714Y-46367260D02*
X39321428Y-46410117D01*
X39321428Y-46410117D02*
X39535714Y-46410117D01*
X39535714Y-46410117D02*
X39621428Y-46367260D01*
X39621428Y-46367260D02*
X39664285Y-46324402D01*
X38764285Y-46410117D02*
X38764285Y-45810117D01*
X38764285Y-45895831D02*
X38721428Y-45852974D01*
X38721428Y-45852974D02*
X38635713Y-45810117D01*
X38635713Y-45810117D02*
X38507142Y-45810117D01*
X38507142Y-45810117D02*
X38421428Y-45852974D01*
X38421428Y-45852974D02*
X38378571Y-45938688D01*
X38378571Y-45938688D02*
X38378571Y-46410117D01*
X38378571Y-45938688D02*
X38335713Y-45852974D01*
X38335713Y-45852974D02*
X38249999Y-45810117D01*
X38249999Y-45810117D02*
X38121428Y-45810117D01*
X38121428Y-45810117D02*
X38035713Y-45852974D01*
X38035713Y-45852974D02*
X37992856Y-45938688D01*
X37992856Y-45938688D02*
X37992856Y-46410117D01*
X37564285Y-46410117D02*
X37564285Y-45810117D01*
X37564285Y-45895831D02*
X37521428Y-45852974D01*
X37521428Y-45852974D02*
X37435713Y-45810117D01*
X37435713Y-45810117D02*
X37307142Y-45810117D01*
X37307142Y-45810117D02*
X37221428Y-45852974D01*
X37221428Y-45852974D02*
X37178571Y-45938688D01*
X37178571Y-45938688D02*
X37178571Y-46410117D01*
X37178571Y-45938688D02*
X37135713Y-45852974D01*
X37135713Y-45852974D02*
X37049999Y-45810117D01*
X37049999Y-45810117D02*
X36921428Y-45810117D01*
X36921428Y-45810117D02*
X36835713Y-45852974D01*
X36835713Y-45852974D02*
X36792856Y-45938688D01*
X36792856Y-45938688D02*
X36792856Y-46410117D01*
X35678571Y-46410117D02*
X35678571Y-45510117D01*
X35678571Y-45510117D02*
X35335714Y-45510117D01*
X35335714Y-45510117D02*
X35249999Y-45552974D01*
X35249999Y-45552974D02*
X35207142Y-45595831D01*
X35207142Y-45595831D02*
X35164285Y-45681545D01*
X35164285Y-45681545D02*
X35164285Y-45810117D01*
X35164285Y-45810117D02*
X35207142Y-45895831D01*
X35207142Y-45895831D02*
X35249999Y-45938688D01*
X35249999Y-45938688D02*
X35335714Y-45981545D01*
X35335714Y-45981545D02*
X35678571Y-45981545D01*
X34778571Y-46410117D02*
X34778571Y-45510117D01*
X34350000Y-46410117D02*
X34350000Y-45510117D01*
X34350000Y-45510117D02*
X33835714Y-46410117D01*
X33835714Y-46410117D02*
X33835714Y-45510117D01*
X32207143Y-46324402D02*
X32250000Y-46367260D01*
X32250000Y-46367260D02*
X32378572Y-46410117D01*
X32378572Y-46410117D02*
X32464286Y-46410117D01*
X32464286Y-46410117D02*
X32592857Y-46367260D01*
X32592857Y-46367260D02*
X32678572Y-46281545D01*
X32678572Y-46281545D02*
X32721429Y-46195831D01*
X32721429Y-46195831D02*
X32764286Y-46024402D01*
X32764286Y-46024402D02*
X32764286Y-45895831D01*
X32764286Y-45895831D02*
X32721429Y-45724402D01*
X32721429Y-45724402D02*
X32678572Y-45638688D01*
X32678572Y-45638688D02*
X32592857Y-45552974D01*
X32592857Y-45552974D02*
X32464286Y-45510117D01*
X32464286Y-45510117D02*
X32378572Y-45510117D01*
X32378572Y-45510117D02*
X32250000Y-45552974D01*
X32250000Y-45552974D02*
X32207143Y-45595831D01*
X31821429Y-46410117D02*
X31821429Y-45510117D01*
X30878572Y-46410117D02*
X31178572Y-45981545D01*
X31392858Y-46410117D02*
X31392858Y-45510117D01*
X31392858Y-45510117D02*
X31050001Y-45510117D01*
X31050001Y-45510117D02*
X30964286Y-45552974D01*
X30964286Y-45552974D02*
X30921429Y-45595831D01*
X30921429Y-45595831D02*
X30878572Y-45681545D01*
X30878572Y-45681545D02*
X30878572Y-45810117D01*
X30878572Y-45810117D02*
X30921429Y-45895831D01*
X30921429Y-45895831D02*
X30964286Y-45938688D01*
X30964286Y-45938688D02*
X31050001Y-45981545D01*
X31050001Y-45981545D02*
X31392858Y-45981545D01*
X29978572Y-46324402D02*
X30021429Y-46367260D01*
X30021429Y-46367260D02*
X30150001Y-46410117D01*
X30150001Y-46410117D02*
X30235715Y-46410117D01*
X30235715Y-46410117D02*
X30364286Y-46367260D01*
X30364286Y-46367260D02*
X30450001Y-46281545D01*
X30450001Y-46281545D02*
X30492858Y-46195831D01*
X30492858Y-46195831D02*
X30535715Y-46024402D01*
X30535715Y-46024402D02*
X30535715Y-45895831D01*
X30535715Y-45895831D02*
X30492858Y-45724402D01*
X30492858Y-45724402D02*
X30450001Y-45638688D01*
X30450001Y-45638688D02*
X30364286Y-45552974D01*
X30364286Y-45552974D02*
X30235715Y-45510117D01*
X30235715Y-45510117D02*
X30150001Y-45510117D01*
X30150001Y-45510117D02*
X30021429Y-45552974D01*
X30021429Y-45552974D02*
X29978572Y-45595831D01*
X29164286Y-46410117D02*
X29592858Y-46410117D01*
X29592858Y-46410117D02*
X29592858Y-45510117D01*
X28864287Y-45938688D02*
X28564287Y-45938688D01*
X28435715Y-46410117D02*
X28864287Y-46410117D01*
X28864287Y-46410117D02*
X28864287Y-45510117D01*
X28864287Y-45510117D02*
X28435715Y-45510117D01*
X27364287Y-46067260D02*
X26678573Y-46067260D01*
X25692858Y-45510117D02*
X25392858Y-46410117D01*
X25392858Y-46410117D02*
X25092858Y-45510117D01*
X24792858Y-45938688D02*
X24492858Y-45938688D01*
X24364286Y-46410117D02*
X24792858Y-46410117D01*
X24792858Y-46410117D02*
X24792858Y-45510117D01*
X24792858Y-45510117D02*
X24364286Y-45510117D01*
X23464286Y-46410117D02*
X23764286Y-45981545D01*
X23978572Y-46410117D02*
X23978572Y-45510117D01*
X23978572Y-45510117D02*
X23635715Y-45510117D01*
X23635715Y-45510117D02*
X23550000Y-45552974D01*
X23550000Y-45552974D02*
X23507143Y-45595831D01*
X23507143Y-45595831D02*
X23464286Y-45681545D01*
X23464286Y-45681545D02*
X23464286Y-45810117D01*
X23464286Y-45810117D02*
X23507143Y-45895831D01*
X23507143Y-45895831D02*
X23550000Y-45938688D01*
X23550000Y-45938688D02*
X23635715Y-45981545D01*
X23635715Y-45981545D02*
X23978572Y-45981545D01*
X23078572Y-46410117D02*
X23078572Y-45510117D01*
X22350001Y-45938688D02*
X22650001Y-45938688D01*
X22650001Y-46410117D02*
X22650001Y-45510117D01*
X22650001Y-45510117D02*
X22221429Y-45510117D01*
X21707143Y-45981545D02*
X21707143Y-46410117D01*
X22007143Y-45510117D02*
X21707143Y-45981545D01*
X21707143Y-45981545D02*
X21407143Y-45510117D01*
X20121429Y-45938688D02*
X20421429Y-45938688D01*
X20421429Y-46410117D02*
X20421429Y-45510117D01*
X20421429Y-45510117D02*
X19992857Y-45510117D01*
X19650000Y-46410117D02*
X19650000Y-45510117D01*
X19350000Y-45510117D02*
X18835715Y-45510117D01*
X19092857Y-46410117D02*
X19092857Y-45510117D01*
D11*
X44366665Y-11186795D02*
X43842855Y-11186795D01*
X44471427Y-11501080D02*
X44104760Y-10401080D01*
X44104760Y-10401080D02*
X43738093Y-11501080D01*
X43371427Y-11501080D02*
X43371427Y-10401080D01*
X43371427Y-10401080D02*
X43109522Y-10401080D01*
X43109522Y-10401080D02*
X42952379Y-10453461D01*
X42952379Y-10453461D02*
X42847617Y-10558223D01*
X42847617Y-10558223D02*
X42795236Y-10662985D01*
X42795236Y-10662985D02*
X42742855Y-10872509D01*
X42742855Y-10872509D02*
X42742855Y-11029652D01*
X42742855Y-11029652D02*
X42795236Y-11239176D01*
X42795236Y-11239176D02*
X42847617Y-11343938D01*
X42847617Y-11343938D02*
X42952379Y-11448700D01*
X42952379Y-11448700D02*
X43109522Y-11501080D01*
X43109522Y-11501080D02*
X43371427Y-11501080D01*
X41642855Y-11396319D02*
X41695236Y-11448700D01*
X41695236Y-11448700D02*
X41852379Y-11501080D01*
X41852379Y-11501080D02*
X41957141Y-11501080D01*
X41957141Y-11501080D02*
X42114284Y-11448700D01*
X42114284Y-11448700D02*
X42219046Y-11343938D01*
X42219046Y-11343938D02*
X42271427Y-11239176D01*
X42271427Y-11239176D02*
X42323808Y-11029652D01*
X42323808Y-11029652D02*
X42323808Y-10872509D01*
X42323808Y-10872509D02*
X42271427Y-10662985D01*
X42271427Y-10662985D02*
X42219046Y-10558223D01*
X42219046Y-10558223D02*
X42114284Y-10453461D01*
X42114284Y-10453461D02*
X41957141Y-10401080D01*
X41957141Y-10401080D02*
X41852379Y-10401080D01*
X41852379Y-10401080D02*
X41695236Y-10453461D01*
X41695236Y-10453461D02*
X41642855Y-10505842D01*
X40333332Y-10924890D02*
X39495237Y-10924890D01*
X39495237Y-11239176D02*
X40333332Y-11239176D01*
X38185713Y-11186795D02*
X37661903Y-11186795D01*
X38290475Y-11501080D02*
X37923808Y-10401080D01*
X37923808Y-10401080D02*
X37557141Y-11501080D01*
X36980951Y-10401080D02*
X36771427Y-10401080D01*
X36771427Y-10401080D02*
X36666665Y-10453461D01*
X36666665Y-10453461D02*
X36561903Y-10558223D01*
X36561903Y-10558223D02*
X36509522Y-10767747D01*
X36509522Y-10767747D02*
X36509522Y-11134414D01*
X36509522Y-11134414D02*
X36561903Y-11343938D01*
X36561903Y-11343938D02*
X36666665Y-11448700D01*
X36666665Y-11448700D02*
X36771427Y-11501080D01*
X36771427Y-11501080D02*
X36980951Y-11501080D01*
X36980951Y-11501080D02*
X37085713Y-11448700D01*
X37085713Y-11448700D02*
X37190475Y-11343938D01*
X37190475Y-11343938D02*
X37242856Y-11134414D01*
X37242856Y-11134414D02*
X37242856Y-10767747D01*
X37242856Y-10767747D02*
X37190475Y-10558223D01*
X37190475Y-10558223D02*
X37085713Y-10453461D01*
X37085713Y-10453461D02*
X36980951Y-10401080D01*
X34414284Y-10348700D02*
X35357142Y-11762985D01*
X33261904Y-10505842D02*
X33209523Y-10453461D01*
X33209523Y-10453461D02*
X33104761Y-10401080D01*
X33104761Y-10401080D02*
X32842856Y-10401080D01*
X32842856Y-10401080D02*
X32738094Y-10453461D01*
X32738094Y-10453461D02*
X32685713Y-10505842D01*
X32685713Y-10505842D02*
X32633332Y-10610604D01*
X32633332Y-10610604D02*
X32633332Y-10715366D01*
X32633332Y-10715366D02*
X32685713Y-10872509D01*
X32685713Y-10872509D02*
X33314285Y-11501080D01*
X33314285Y-11501080D02*
X32633332Y-11501080D01*
X29385714Y-11867747D02*
X29385714Y-10296319D01*
X25509524Y-10453461D02*
X25614286Y-10401080D01*
X25614286Y-10401080D02*
X25771429Y-10401080D01*
X25771429Y-10401080D02*
X25928572Y-10453461D01*
X25928572Y-10453461D02*
X26033334Y-10558223D01*
X26033334Y-10558223D02*
X26085715Y-10662985D01*
X26085715Y-10662985D02*
X26138096Y-10872509D01*
X26138096Y-10872509D02*
X26138096Y-11029652D01*
X26138096Y-11029652D02*
X26085715Y-11239176D01*
X26085715Y-11239176D02*
X26033334Y-11343938D01*
X26033334Y-11343938D02*
X25928572Y-11448700D01*
X25928572Y-11448700D02*
X25771429Y-11501080D01*
X25771429Y-11501080D02*
X25666667Y-11501080D01*
X25666667Y-11501080D02*
X25509524Y-11448700D01*
X25509524Y-11448700D02*
X25457143Y-11396319D01*
X25457143Y-11396319D02*
X25457143Y-11029652D01*
X25457143Y-11029652D02*
X25666667Y-11029652D01*
X24985715Y-11501080D02*
X24985715Y-10401080D01*
X24985715Y-10401080D02*
X24566667Y-10401080D01*
X24566667Y-10401080D02*
X24461905Y-10453461D01*
X24461905Y-10453461D02*
X24409524Y-10505842D01*
X24409524Y-10505842D02*
X24357143Y-10610604D01*
X24357143Y-10610604D02*
X24357143Y-10767747D01*
X24357143Y-10767747D02*
X24409524Y-10872509D01*
X24409524Y-10872509D02*
X24461905Y-10924890D01*
X24461905Y-10924890D02*
X24566667Y-10977271D01*
X24566667Y-10977271D02*
X24985715Y-10977271D01*
X23885715Y-11501080D02*
X23885715Y-10401080D01*
X23152381Y-10401080D02*
X22942857Y-10401080D01*
X22942857Y-10401080D02*
X22838095Y-10453461D01*
X22838095Y-10453461D02*
X22733333Y-10558223D01*
X22733333Y-10558223D02*
X22680952Y-10767747D01*
X22680952Y-10767747D02*
X22680952Y-11134414D01*
X22680952Y-11134414D02*
X22733333Y-11343938D01*
X22733333Y-11343938D02*
X22838095Y-11448700D01*
X22838095Y-11448700D02*
X22942857Y-11501080D01*
X22942857Y-11501080D02*
X23152381Y-11501080D01*
X23152381Y-11501080D02*
X23257143Y-11448700D01*
X23257143Y-11448700D02*
X23361905Y-11343938D01*
X23361905Y-11343938D02*
X23414286Y-11134414D01*
X23414286Y-11134414D02*
X23414286Y-10767747D01*
X23414286Y-10767747D02*
X23361905Y-10558223D01*
X23361905Y-10558223D02*
X23257143Y-10453461D01*
X23257143Y-10453461D02*
X23152381Y-10401080D01*
X21633333Y-11501080D02*
X22261905Y-11501080D01*
X21947619Y-11501080D02*
X21947619Y-10401080D01*
X21947619Y-10401080D02*
X22052381Y-10558223D01*
X22052381Y-10558223D02*
X22157143Y-10662985D01*
X22157143Y-10662985D02*
X22261905Y-10715366D01*
%LPC*%
D12*
%TO.C,H2*%
X3000000Y-67000000D03*
%TD*%
D13*
%TO.C,J3*%
X13000000Y-37000000D03*
D14*
X15500000Y-37000000D03*
X18000000Y-37000000D03*
%TD*%
D15*
%TO.C,S1*%
X30640000Y-52640000D03*
D16*
X29250000Y-56000000D03*
X30640000Y-59360000D03*
X37360000Y-59360000D03*
X38750000Y-56000000D03*
X37360000Y-52640000D03*
%TD*%
D17*
%TO.C,JP1*%
X7000000Y-32000000D03*
D18*
X7000000Y-34540000D03*
%TD*%
D17*
%TO.C,J2*%
X28000000Y-27430000D03*
D18*
X30540000Y-27430000D03*
X33080000Y-27430000D03*
X35620000Y-27430000D03*
X38160000Y-27430000D03*
X40700000Y-27430000D03*
X43240000Y-27430000D03*
X45780000Y-27430000D03*
X48320000Y-27430000D03*
X50860000Y-27430000D03*
X53400000Y-27430000D03*
X55940000Y-27430000D03*
%TD*%
D12*
%TO.C,H1*%
X3000000Y-3000000D03*
%TD*%
%TO.C,H3*%
X65000000Y-67000000D03*
%TD*%
D17*
%TO.C,J1*%
X28000000Y-4570000D03*
D18*
X30540000Y-4570000D03*
X33080000Y-4570000D03*
X35620000Y-4570000D03*
X38160000Y-4570000D03*
X40700000Y-4570000D03*
X43240000Y-4570000D03*
X45780000Y-4570000D03*
X48320000Y-4570000D03*
X50860000Y-4570000D03*
X53400000Y-4570000D03*
X55940000Y-4570000D03*
%TD*%
%LPD*%
M02*
