%TF.GenerationSoftware,KiCad,Pcbnew,10.0.6*%
%TF.CreationDate,2026-09-22T16:11:46-04:00*%
%TF.ProjectId,carrier,63617272-6965-4722-9e6b-696361645f70,A*%
%TF.SameCoordinates,Original*%
%TF.FileFunction,Legend,Top*%
%TF.FilePolarity,Positive*%
%FSLAX46Y46*%
G04 Gerber Fmt 4.6, Leading zero omitted, Abs format (unit mm)*
G04 Created by KiCad (PCBNEW 10.0.6) date 2026-09-22 16:11:46*
%MOMM*%
%LPD*%
G01*
G04 APERTURE LIST*
G04 Aperture macros list*
%AMRoundRect*
0 Rectangle with rounded corners*
0 $1 Rounding radius*
0 $2 $3 $4 $5 $6 $7 $8 $9 X,Y pos of 4 corners*
0 Add a 4 corners polygon primitive as box body*
4,1,4,$2,$3,$4,$5,$6,$7,$8,$9,$2,$3,0*
0 Add four circle primitives for the rounded corners*
1,1,$1+$1,$2,$3*
1,1,$1+$1,$4,$5*
1,1,$1+$1,$6,$7*
1,1,$1+$1,$8,$9*
0 Add four rect primitives between the rounded corners*
20,1,$1+$1,$2,$3,$4,$5,0*
20,1,$1+$1,$4,$5,$6,$7,0*
20,1,$1+$1,$6,$7,$8,$9,0*
20,1,$1+$1,$8,$9,$2,$3,0*%
G04 Aperture macros list end*
%ADD10C,0.120000*%
%ADD11C,0.150000*%
%ADD12RoundRect,0.250000X-0.250000X-0.475000X0.250000X-0.475000X0.250000X0.475000X-0.250000X0.475000X0*%
%ADD13RoundRect,0.250000X-0.262500X-0.450000X0.262500X-0.450000X0.262500X0.450000X-0.262500X0.450000X0*%
%ADD14C,1.500000*%
%ADD15R,1.700000X1.700000*%
%ADD16O,1.700000X1.700000*%
%ADD17C,2.700000*%
%ADD18R,0.900000X0.800000*%
%ADD19R,2.400000X2.400000*%
%ADD20C,2.400000*%
%ADD21RoundRect,0.250000X-0.600000X-0.725000X0.600000X-0.725000X0.600000X0.725000X-0.600000X0.725000X0*%
%ADD22O,1.700000X1.950000*%
G04 APERTURE END LIST*
D10*
X2504762Y-36563855D02*
X2657143Y-36563855D01*
X2657143Y-36563855D02*
X2733333Y-36601950D01*
X2733333Y-36601950D02*
X2809524Y-36678140D01*
X2809524Y-36678140D02*
X2847619Y-36830521D01*
X2847619Y-36830521D02*
X2847619Y-37097188D01*
X2847619Y-37097188D02*
X2809524Y-37249569D01*
X2809524Y-37249569D02*
X2733333Y-37325760D01*
X2733333Y-37325760D02*
X2657143Y-37363855D01*
X2657143Y-37363855D02*
X2504762Y-37363855D01*
X2504762Y-37363855D02*
X2428571Y-37325760D01*
X2428571Y-37325760D02*
X2352381Y-37249569D01*
X2352381Y-37249569D02*
X2314285Y-37097188D01*
X2314285Y-37097188D02*
X2314285Y-36830521D01*
X2314285Y-36830521D02*
X2352381Y-36678140D01*
X2352381Y-36678140D02*
X2428571Y-36601950D01*
X2428571Y-36601950D02*
X2504762Y-36563855D01*
X3190476Y-37363855D02*
X3190476Y-36563855D01*
X3190476Y-36563855D02*
X3647619Y-37363855D01*
X3647619Y-37363855D02*
X3647619Y-36563855D01*
X7390476Y-14601950D02*
X7314286Y-14563855D01*
X7314286Y-14563855D02*
X7200000Y-14563855D01*
X7200000Y-14563855D02*
X7085714Y-14601950D01*
X7085714Y-14601950D02*
X7009524Y-14678140D01*
X7009524Y-14678140D02*
X6971429Y-14754331D01*
X6971429Y-14754331D02*
X6933333Y-14906712D01*
X6933333Y-14906712D02*
X6933333Y-15020998D01*
X6933333Y-15020998D02*
X6971429Y-15173379D01*
X6971429Y-15173379D02*
X7009524Y-15249569D01*
X7009524Y-15249569D02*
X7085714Y-15325760D01*
X7085714Y-15325760D02*
X7200000Y-15363855D01*
X7200000Y-15363855D02*
X7276191Y-15363855D01*
X7276191Y-15363855D02*
X7390476Y-15325760D01*
X7390476Y-15325760D02*
X7428572Y-15287664D01*
X7428572Y-15287664D02*
X7428572Y-15020998D01*
X7428572Y-15020998D02*
X7276191Y-15020998D01*
X7771429Y-15363855D02*
X7771429Y-14563855D01*
X7771429Y-14563855D02*
X8228572Y-15363855D01*
X8228572Y-15363855D02*
X8228572Y-14563855D01*
X8609524Y-15363855D02*
X8609524Y-14563855D01*
X8609524Y-14563855D02*
X8800000Y-14563855D01*
X8800000Y-14563855D02*
X8914286Y-14601950D01*
X8914286Y-14601950D02*
X8990476Y-14678140D01*
X8990476Y-14678140D02*
X9028571Y-14754331D01*
X9028571Y-14754331D02*
X9066667Y-14906712D01*
X9066667Y-14906712D02*
X9066667Y-15020998D01*
X9066667Y-15020998D02*
X9028571Y-15173379D01*
X9028571Y-15173379D02*
X8990476Y-15249569D01*
X8990476Y-15249569D02*
X8914286Y-15325760D01*
X8914286Y-15325760D02*
X8800000Y-15363855D01*
X8800000Y-15363855D02*
X8609524Y-15363855D01*
X7847619Y-20563855D02*
X7466667Y-20563855D01*
X7466667Y-20563855D02*
X7428571Y-20944807D01*
X7428571Y-20944807D02*
X7466667Y-20906712D01*
X7466667Y-20906712D02*
X7542857Y-20868617D01*
X7542857Y-20868617D02*
X7733333Y-20868617D01*
X7733333Y-20868617D02*
X7809524Y-20906712D01*
X7809524Y-20906712D02*
X7847619Y-20944807D01*
X7847619Y-20944807D02*
X7885714Y-21020998D01*
X7885714Y-21020998D02*
X7885714Y-21211474D01*
X7885714Y-21211474D02*
X7847619Y-21287664D01*
X7847619Y-21287664D02*
X7809524Y-21325760D01*
X7809524Y-21325760D02*
X7733333Y-21363855D01*
X7733333Y-21363855D02*
X7542857Y-21363855D01*
X7542857Y-21363855D02*
X7466667Y-21325760D01*
X7466667Y-21325760D02*
X7428571Y-21287664D01*
X8114286Y-20563855D02*
X8380953Y-21363855D01*
X8380953Y-21363855D02*
X8647619Y-20563855D01*
X10266667Y-52363855D02*
X10266667Y-51563855D01*
X10266667Y-51563855D02*
X10533333Y-52135283D01*
X10533333Y-52135283D02*
X10800000Y-51563855D01*
X10800000Y-51563855D02*
X10800000Y-52363855D01*
X11714286Y-52440045D02*
X11638096Y-52401950D01*
X11638096Y-52401950D02*
X11561905Y-52325760D01*
X11561905Y-52325760D02*
X11447619Y-52211474D01*
X11447619Y-52211474D02*
X11371429Y-52173379D01*
X11371429Y-52173379D02*
X11295238Y-52173379D01*
X11333334Y-52363855D02*
X11257143Y-52325760D01*
X11257143Y-52325760D02*
X11180953Y-52249569D01*
X11180953Y-52249569D02*
X11142857Y-52097188D01*
X11142857Y-52097188D02*
X11142857Y-51830521D01*
X11142857Y-51830521D02*
X11180953Y-51678140D01*
X11180953Y-51678140D02*
X11257143Y-51601950D01*
X11257143Y-51601950D02*
X11333334Y-51563855D01*
X11333334Y-51563855D02*
X11485715Y-51563855D01*
X11485715Y-51563855D02*
X11561905Y-51601950D01*
X11561905Y-51601950D02*
X11638096Y-51678140D01*
X11638096Y-51678140D02*
X11676191Y-51830521D01*
X11676191Y-51830521D02*
X11676191Y-52097188D01*
X11676191Y-52097188D02*
X11638096Y-52249569D01*
X11638096Y-52249569D02*
X11561905Y-52325760D01*
X11561905Y-52325760D02*
X11485715Y-52363855D01*
X11485715Y-52363855D02*
X11333334Y-52363855D01*
X12019048Y-52059093D02*
X12628572Y-52059093D01*
X12933333Y-51563855D02*
X13428571Y-51563855D01*
X13428571Y-51563855D02*
X13161905Y-51868617D01*
X13161905Y-51868617D02*
X13276190Y-51868617D01*
X13276190Y-51868617D02*
X13352381Y-51906712D01*
X13352381Y-51906712D02*
X13390476Y-51944807D01*
X13390476Y-51944807D02*
X13428571Y-52020998D01*
X13428571Y-52020998D02*
X13428571Y-52211474D01*
X13428571Y-52211474D02*
X13390476Y-52287664D01*
X13390476Y-52287664D02*
X13352381Y-52325760D01*
X13352381Y-52325760D02*
X13276190Y-52363855D01*
X13276190Y-52363855D02*
X13047619Y-52363855D01*
X13047619Y-52363855D02*
X12971428Y-52325760D01*
X12971428Y-52325760D02*
X12933333Y-52287664D01*
X14952381Y-51525760D02*
X14266667Y-52554331D01*
X15828572Y-52363855D02*
X15828572Y-51563855D01*
X15828572Y-51944807D02*
X16285715Y-51944807D01*
X16285715Y-52363855D02*
X16285715Y-51563855D01*
X16819048Y-51563855D02*
X16971429Y-51563855D01*
X16971429Y-51563855D02*
X17047619Y-51601950D01*
X17047619Y-51601950D02*
X17123810Y-51678140D01*
X17123810Y-51678140D02*
X17161905Y-51830521D01*
X17161905Y-51830521D02*
X17161905Y-52097188D01*
X17161905Y-52097188D02*
X17123810Y-52249569D01*
X17123810Y-52249569D02*
X17047619Y-52325760D01*
X17047619Y-52325760D02*
X16971429Y-52363855D01*
X16971429Y-52363855D02*
X16819048Y-52363855D01*
X16819048Y-52363855D02*
X16742857Y-52325760D01*
X16742857Y-52325760D02*
X16666667Y-52249569D01*
X16666667Y-52249569D02*
X16628571Y-52097188D01*
X16628571Y-52097188D02*
X16628571Y-51830521D01*
X16628571Y-51830521D02*
X16666667Y-51678140D01*
X16666667Y-51678140D02*
X16742857Y-51601950D01*
X16742857Y-51601950D02*
X16819048Y-51563855D01*
X17390476Y-51563855D02*
X17847619Y-51563855D01*
X17619047Y-52363855D02*
X17619047Y-51563855D01*
X15390476Y-21135283D02*
X15771429Y-21135283D01*
X15314286Y-21363855D02*
X15580953Y-20563855D01*
X15580953Y-20563855D02*
X15847619Y-21363855D01*
X16266667Y-20563855D02*
X16419048Y-20563855D01*
X16419048Y-20563855D02*
X16495238Y-20601950D01*
X16495238Y-20601950D02*
X16571429Y-20678140D01*
X16571429Y-20678140D02*
X16609524Y-20830521D01*
X16609524Y-20830521D02*
X16609524Y-21097188D01*
X16609524Y-21097188D02*
X16571429Y-21249569D01*
X16571429Y-21249569D02*
X16495238Y-21325760D01*
X16495238Y-21325760D02*
X16419048Y-21363855D01*
X16419048Y-21363855D02*
X16266667Y-21363855D01*
X16266667Y-21363855D02*
X16190476Y-21325760D01*
X16190476Y-21325760D02*
X16114286Y-21249569D01*
X16114286Y-21249569D02*
X16076190Y-21097188D01*
X16076190Y-21097188D02*
X16076190Y-20830521D01*
X16076190Y-20830521D02*
X16114286Y-20678140D01*
X16114286Y-20678140D02*
X16190476Y-20601950D01*
X16190476Y-20601950D02*
X16266667Y-20563855D01*
X17923809Y-4133855D02*
X17923809Y-4705283D01*
X17923809Y-4705283D02*
X17885714Y-4819569D01*
X17885714Y-4819569D02*
X17809523Y-4895760D01*
X17809523Y-4895760D02*
X17695238Y-4933855D01*
X17695238Y-4933855D02*
X17619047Y-4933855D01*
X18723809Y-4933855D02*
X18266666Y-4933855D01*
X18495238Y-4933855D02*
X18495238Y-4133855D01*
X18495238Y-4133855D02*
X18419047Y-4248140D01*
X18419047Y-4248140D02*
X18342857Y-4324331D01*
X18342857Y-4324331D02*
X18266666Y-4362426D01*
X20247619Y-4095760D02*
X19561905Y-5124331D01*
X21123810Y-4933855D02*
X21123810Y-4133855D01*
X21123810Y-4133855D02*
X21428572Y-4133855D01*
X21428572Y-4133855D02*
X21504762Y-4171950D01*
X21504762Y-4171950D02*
X21542857Y-4210045D01*
X21542857Y-4210045D02*
X21580953Y-4286236D01*
X21580953Y-4286236D02*
X21580953Y-4400521D01*
X21580953Y-4400521D02*
X21542857Y-4476712D01*
X21542857Y-4476712D02*
X21504762Y-4514807D01*
X21504762Y-4514807D02*
X21428572Y-4552902D01*
X21428572Y-4552902D02*
X21123810Y-4552902D01*
X22342857Y-4933855D02*
X21885714Y-4933855D01*
X22114286Y-4933855D02*
X22114286Y-4133855D01*
X22114286Y-4133855D02*
X22038095Y-4248140D01*
X22038095Y-4248140D02*
X21961905Y-4324331D01*
X21961905Y-4324331D02*
X21885714Y-4362426D01*
X17923809Y-26993855D02*
X17923809Y-27565283D01*
X17923809Y-27565283D02*
X17885714Y-27679569D01*
X17885714Y-27679569D02*
X17809523Y-27755760D01*
X17809523Y-27755760D02*
X17695238Y-27793855D01*
X17695238Y-27793855D02*
X17619047Y-27793855D01*
X18266666Y-27070045D02*
X18304762Y-27031950D01*
X18304762Y-27031950D02*
X18380952Y-26993855D01*
X18380952Y-26993855D02*
X18571428Y-26993855D01*
X18571428Y-26993855D02*
X18647619Y-27031950D01*
X18647619Y-27031950D02*
X18685714Y-27070045D01*
X18685714Y-27070045D02*
X18723809Y-27146236D01*
X18723809Y-27146236D02*
X18723809Y-27222426D01*
X18723809Y-27222426D02*
X18685714Y-27336712D01*
X18685714Y-27336712D02*
X18228571Y-27793855D01*
X18228571Y-27793855D02*
X18723809Y-27793855D01*
X20247619Y-26955760D02*
X19561905Y-27984331D01*
X21123810Y-27793855D02*
X21123810Y-26993855D01*
X21123810Y-26993855D02*
X21428572Y-26993855D01*
X21428572Y-26993855D02*
X21504762Y-27031950D01*
X21504762Y-27031950D02*
X21542857Y-27070045D01*
X21542857Y-27070045D02*
X21580953Y-27146236D01*
X21580953Y-27146236D02*
X21580953Y-27260521D01*
X21580953Y-27260521D02*
X21542857Y-27336712D01*
X21542857Y-27336712D02*
X21504762Y-27374807D01*
X21504762Y-27374807D02*
X21428572Y-27412902D01*
X21428572Y-27412902D02*
X21123810Y-27412902D01*
X21885714Y-27070045D02*
X21923810Y-27031950D01*
X21923810Y-27031950D02*
X22000000Y-26993855D01*
X22000000Y-26993855D02*
X22190476Y-26993855D01*
X22190476Y-26993855D02*
X22266667Y-27031950D01*
X22266667Y-27031950D02*
X22304762Y-27070045D01*
X22304762Y-27070045D02*
X22342857Y-27146236D01*
X22342857Y-27146236D02*
X22342857Y-27222426D01*
X22342857Y-27222426D02*
X22304762Y-27336712D01*
X22304762Y-27336712D02*
X21847619Y-27793855D01*
X21847619Y-27793855D02*
X22342857Y-27793855D01*
X23009523Y-21135283D02*
X23390476Y-21135283D01*
X22933333Y-21363855D02*
X23200000Y-20563855D01*
X23200000Y-20563855D02*
X23466666Y-21363855D01*
X23733333Y-21363855D02*
X23733333Y-20563855D01*
X23733333Y-20563855D02*
X23923809Y-20563855D01*
X23923809Y-20563855D02*
X24038095Y-20601950D01*
X24038095Y-20601950D02*
X24114285Y-20678140D01*
X24114285Y-20678140D02*
X24152380Y-20754331D01*
X24152380Y-20754331D02*
X24190476Y-20906712D01*
X24190476Y-20906712D02*
X24190476Y-21020998D01*
X24190476Y-21020998D02*
X24152380Y-21173379D01*
X24152380Y-21173379D02*
X24114285Y-21249569D01*
X24114285Y-21249569D02*
X24038095Y-21325760D01*
X24038095Y-21325760D02*
X23923809Y-21363855D01*
X23923809Y-21363855D02*
X23733333Y-21363855D01*
X24990476Y-21287664D02*
X24952380Y-21325760D01*
X24952380Y-21325760D02*
X24838095Y-21363855D01*
X24838095Y-21363855D02*
X24761904Y-21363855D01*
X24761904Y-21363855D02*
X24647618Y-21325760D01*
X24647618Y-21325760D02*
X24571428Y-21249569D01*
X24571428Y-21249569D02*
X24533333Y-21173379D01*
X24533333Y-21173379D02*
X24495237Y-21020998D01*
X24495237Y-21020998D02*
X24495237Y-20906712D01*
X24495237Y-20906712D02*
X24533333Y-20754331D01*
X24533333Y-20754331D02*
X24571428Y-20678140D01*
X24571428Y-20678140D02*
X24647618Y-20601950D01*
X24647618Y-20601950D02*
X24761904Y-20563855D01*
X24761904Y-20563855D02*
X24838095Y-20563855D01*
X24838095Y-20563855D02*
X24952380Y-20601950D01*
X24952380Y-20601950D02*
X24990476Y-20640045D01*
X28228571Y-7663855D02*
X27771428Y-7663855D01*
X28000000Y-7663855D02*
X28000000Y-6863855D01*
X28000000Y-6863855D02*
X27923809Y-6978140D01*
X27923809Y-6978140D02*
X27847619Y-7054331D01*
X27847619Y-7054331D02*
X27771428Y-7092426D01*
X28228571Y-25063855D02*
X27771428Y-25063855D01*
X28000000Y-25063855D02*
X28000000Y-24263855D01*
X28000000Y-24263855D02*
X27923809Y-24378140D01*
X27923809Y-24378140D02*
X27847619Y-24454331D01*
X27847619Y-24454331D02*
X27771428Y-24492426D01*
X27847619Y-29563855D02*
X27466667Y-29563855D01*
X27466667Y-29563855D02*
X27428571Y-29944807D01*
X27428571Y-29944807D02*
X27466667Y-29906712D01*
X27466667Y-29906712D02*
X27542857Y-29868617D01*
X27542857Y-29868617D02*
X27733333Y-29868617D01*
X27733333Y-29868617D02*
X27809524Y-29906712D01*
X27809524Y-29906712D02*
X27847619Y-29944807D01*
X27847619Y-29944807D02*
X27885714Y-30020998D01*
X27885714Y-30020998D02*
X27885714Y-30211474D01*
X27885714Y-30211474D02*
X27847619Y-30287664D01*
X27847619Y-30287664D02*
X27809524Y-30325760D01*
X27809524Y-30325760D02*
X27733333Y-30363855D01*
X27733333Y-30363855D02*
X27542857Y-30363855D01*
X27542857Y-30363855D02*
X27466667Y-30325760D01*
X27466667Y-30325760D02*
X27428571Y-30287664D01*
X28114286Y-29563855D02*
X28380953Y-30363855D01*
X28380953Y-30363855D02*
X28647619Y-29563855D01*
X35147619Y-52063855D02*
X34766667Y-52063855D01*
X34766667Y-52063855D02*
X34728571Y-52444807D01*
X34728571Y-52444807D02*
X34766667Y-52406712D01*
X34766667Y-52406712D02*
X34842857Y-52368617D01*
X34842857Y-52368617D02*
X35033333Y-52368617D01*
X35033333Y-52368617D02*
X35109524Y-52406712D01*
X35109524Y-52406712D02*
X35147619Y-52444807D01*
X35147619Y-52444807D02*
X35185714Y-52520998D01*
X35185714Y-52520998D02*
X35185714Y-52711474D01*
X35185714Y-52711474D02*
X35147619Y-52787664D01*
X35147619Y-52787664D02*
X35109524Y-52825760D01*
X35109524Y-52825760D02*
X35033333Y-52863855D01*
X35033333Y-52863855D02*
X34842857Y-52863855D01*
X34842857Y-52863855D02*
X34766667Y-52825760D01*
X34766667Y-52825760D02*
X34728571Y-52787664D01*
X35414286Y-52063855D02*
X35680953Y-52863855D01*
X35680953Y-52863855D02*
X35947619Y-52063855D01*
X37852381Y-52101950D02*
X37776191Y-52063855D01*
X37776191Y-52063855D02*
X37661905Y-52063855D01*
X37661905Y-52063855D02*
X37547619Y-52101950D01*
X37547619Y-52101950D02*
X37471429Y-52178140D01*
X37471429Y-52178140D02*
X37433334Y-52254331D01*
X37433334Y-52254331D02*
X37395238Y-52406712D01*
X37395238Y-52406712D02*
X37395238Y-52520998D01*
X37395238Y-52520998D02*
X37433334Y-52673379D01*
X37433334Y-52673379D02*
X37471429Y-52749569D01*
X37471429Y-52749569D02*
X37547619Y-52825760D01*
X37547619Y-52825760D02*
X37661905Y-52863855D01*
X37661905Y-52863855D02*
X37738096Y-52863855D01*
X37738096Y-52863855D02*
X37852381Y-52825760D01*
X37852381Y-52825760D02*
X37890477Y-52787664D01*
X37890477Y-52787664D02*
X37890477Y-52520998D01*
X37890477Y-52520998D02*
X37738096Y-52520998D01*
X38233334Y-52863855D02*
X38233334Y-52063855D01*
X38233334Y-52063855D02*
X38690477Y-52863855D01*
X38690477Y-52863855D02*
X38690477Y-52063855D01*
X39071429Y-52863855D02*
X39071429Y-52063855D01*
X39071429Y-52063855D02*
X39261905Y-52063855D01*
X39261905Y-52063855D02*
X39376191Y-52101950D01*
X39376191Y-52101950D02*
X39452381Y-52178140D01*
X39452381Y-52178140D02*
X39490476Y-52254331D01*
X39490476Y-52254331D02*
X39528572Y-52406712D01*
X39528572Y-52406712D02*
X39528572Y-52520998D01*
X39528572Y-52520998D02*
X39490476Y-52673379D01*
X39490476Y-52673379D02*
X39452381Y-52749569D01*
X39452381Y-52749569D02*
X39376191Y-52825760D01*
X39376191Y-52825760D02*
X39261905Y-52863855D01*
X39261905Y-52863855D02*
X39071429Y-52863855D01*
X41052381Y-52635283D02*
X41433334Y-52635283D01*
X40976191Y-52863855D02*
X41242858Y-52063855D01*
X41242858Y-52063855D02*
X41509524Y-52863855D01*
X41928572Y-52063855D02*
X42080953Y-52063855D01*
X42080953Y-52063855D02*
X42157143Y-52101950D01*
X42157143Y-52101950D02*
X42233334Y-52178140D01*
X42233334Y-52178140D02*
X42271429Y-52330521D01*
X42271429Y-52330521D02*
X42271429Y-52597188D01*
X42271429Y-52597188D02*
X42233334Y-52749569D01*
X42233334Y-52749569D02*
X42157143Y-52825760D01*
X42157143Y-52825760D02*
X42080953Y-52863855D01*
X42080953Y-52863855D02*
X41928572Y-52863855D01*
X41928572Y-52863855D02*
X41852381Y-52825760D01*
X41852381Y-52825760D02*
X41776191Y-52749569D01*
X41776191Y-52749569D02*
X41738095Y-52597188D01*
X41738095Y-52597188D02*
X41738095Y-52330521D01*
X41738095Y-52330521D02*
X41776191Y-52178140D01*
X41776191Y-52178140D02*
X41852381Y-52101950D01*
X41852381Y-52101950D02*
X41928572Y-52063855D01*
X53628571Y-24963855D02*
X53171428Y-24963855D01*
X53400000Y-24963855D02*
X53400000Y-24163855D01*
X53400000Y-24163855D02*
X53323809Y-24278140D01*
X53323809Y-24278140D02*
X53247619Y-24354331D01*
X53247619Y-24354331D02*
X53171428Y-24392426D01*
X55330476Y-24163855D02*
X55825714Y-24163855D01*
X55825714Y-24163855D02*
X55559048Y-24468617D01*
X55559048Y-24468617D02*
X55673333Y-24468617D01*
X55673333Y-24468617D02*
X55749524Y-24506712D01*
X55749524Y-24506712D02*
X55787619Y-24544807D01*
X55787619Y-24544807D02*
X55825714Y-24620998D01*
X55825714Y-24620998D02*
X55825714Y-24811474D01*
X55825714Y-24811474D02*
X55787619Y-24887664D01*
X55787619Y-24887664D02*
X55749524Y-24925760D01*
X55749524Y-24925760D02*
X55673333Y-24963855D01*
X55673333Y-24963855D02*
X55444762Y-24963855D01*
X55444762Y-24963855D02*
X55368571Y-24925760D01*
X55368571Y-24925760D02*
X55330476Y-24887664D01*
X56054286Y-24163855D02*
X56320953Y-24963855D01*
X56320953Y-24963855D02*
X56587619Y-24163855D01*
X62135283Y-16457142D02*
X62135283Y-16076189D01*
X62363855Y-16533332D02*
X61563855Y-16266665D01*
X61563855Y-16266665D02*
X62363855Y-15999999D01*
X62363855Y-15733332D02*
X61563855Y-15733332D01*
X61563855Y-15733332D02*
X62363855Y-15276189D01*
X62363855Y-15276189D02*
X61563855Y-15276189D01*
X61563855Y-15009523D02*
X61563855Y-14552380D01*
X62363855Y-14780952D02*
X61563855Y-14780952D01*
X61944807Y-14285713D02*
X61944807Y-14019047D01*
X62363855Y-13904761D02*
X62363855Y-14285713D01*
X62363855Y-14285713D02*
X61563855Y-14285713D01*
X61563855Y-14285713D02*
X61563855Y-13904761D01*
X62363855Y-13561903D02*
X61563855Y-13561903D01*
X61563855Y-13561903D02*
X62363855Y-13104760D01*
X62363855Y-13104760D02*
X61563855Y-13104760D01*
X62363855Y-12723808D02*
X61563855Y-12723808D01*
X61563855Y-12723808D02*
X62363855Y-12266665D01*
X62363855Y-12266665D02*
X61563855Y-12266665D01*
X62135283Y-11923809D02*
X62135283Y-11542856D01*
X62363855Y-11999999D02*
X61563855Y-11733332D01*
X61563855Y-11733332D02*
X62363855Y-11466666D01*
X65363855Y-21152380D02*
X64563855Y-21152380D01*
X64563855Y-21152380D02*
X65363855Y-20695237D01*
X65363855Y-20695237D02*
X64563855Y-20695237D01*
X64563855Y-20161904D02*
X64563855Y-20009523D01*
X64563855Y-20009523D02*
X64601950Y-19933333D01*
X64601950Y-19933333D02*
X64678140Y-19857142D01*
X64678140Y-19857142D02*
X64830521Y-19819047D01*
X64830521Y-19819047D02*
X65097188Y-19819047D01*
X65097188Y-19819047D02*
X65249569Y-19857142D01*
X65249569Y-19857142D02*
X65325760Y-19933333D01*
X65325760Y-19933333D02*
X65363855Y-20009523D01*
X65363855Y-20009523D02*
X65363855Y-20161904D01*
X65363855Y-20161904D02*
X65325760Y-20238095D01*
X65325760Y-20238095D02*
X65249569Y-20314285D01*
X65249569Y-20314285D02*
X65097188Y-20352381D01*
X65097188Y-20352381D02*
X64830521Y-20352381D01*
X64830521Y-20352381D02*
X64678140Y-20314285D01*
X64678140Y-20314285D02*
X64601950Y-20238095D01*
X64601950Y-20238095D02*
X64563855Y-20161904D01*
X65287664Y-18409523D02*
X65325760Y-18447619D01*
X65325760Y-18447619D02*
X65363855Y-18561904D01*
X65363855Y-18561904D02*
X65363855Y-18638095D01*
X65363855Y-18638095D02*
X65325760Y-18752381D01*
X65325760Y-18752381D02*
X65249569Y-18828571D01*
X65249569Y-18828571D02*
X65173379Y-18866666D01*
X65173379Y-18866666D02*
X65020998Y-18904762D01*
X65020998Y-18904762D02*
X64906712Y-18904762D01*
X64906712Y-18904762D02*
X64754331Y-18866666D01*
X64754331Y-18866666D02*
X64678140Y-18828571D01*
X64678140Y-18828571D02*
X64601950Y-18752381D01*
X64601950Y-18752381D02*
X64563855Y-18638095D01*
X64563855Y-18638095D02*
X64563855Y-18561904D01*
X64563855Y-18561904D02*
X64601950Y-18447619D01*
X64601950Y-18447619D02*
X64640045Y-18409523D01*
X64563855Y-17914285D02*
X64563855Y-17761904D01*
X64563855Y-17761904D02*
X64601950Y-17685714D01*
X64601950Y-17685714D02*
X64678140Y-17609523D01*
X64678140Y-17609523D02*
X64830521Y-17571428D01*
X64830521Y-17571428D02*
X65097188Y-17571428D01*
X65097188Y-17571428D02*
X65249569Y-17609523D01*
X65249569Y-17609523D02*
X65325760Y-17685714D01*
X65325760Y-17685714D02*
X65363855Y-17761904D01*
X65363855Y-17761904D02*
X65363855Y-17914285D01*
X65363855Y-17914285D02*
X65325760Y-17990476D01*
X65325760Y-17990476D02*
X65249569Y-18066666D01*
X65249569Y-18066666D02*
X65097188Y-18104762D01*
X65097188Y-18104762D02*
X64830521Y-18104762D01*
X64830521Y-18104762D02*
X64678140Y-18066666D01*
X64678140Y-18066666D02*
X64601950Y-17990476D01*
X64601950Y-17990476D02*
X64563855Y-17914285D01*
X65363855Y-17228571D02*
X64563855Y-17228571D01*
X64563855Y-17228571D02*
X64563855Y-16923809D01*
X64563855Y-16923809D02*
X64601950Y-16847619D01*
X64601950Y-16847619D02*
X64640045Y-16809524D01*
X64640045Y-16809524D02*
X64716236Y-16771428D01*
X64716236Y-16771428D02*
X64830521Y-16771428D01*
X64830521Y-16771428D02*
X64906712Y-16809524D01*
X64906712Y-16809524D02*
X64944807Y-16847619D01*
X64944807Y-16847619D02*
X64982902Y-16923809D01*
X64982902Y-16923809D02*
X64982902Y-17228571D01*
X65363855Y-16428571D02*
X64563855Y-16428571D01*
X64563855Y-16428571D02*
X64563855Y-16123809D01*
X64563855Y-16123809D02*
X64601950Y-16047619D01*
X64601950Y-16047619D02*
X64640045Y-16009524D01*
X64640045Y-16009524D02*
X64716236Y-15971428D01*
X64716236Y-15971428D02*
X64830521Y-15971428D01*
X64830521Y-15971428D02*
X64906712Y-16009524D01*
X64906712Y-16009524D02*
X64944807Y-16047619D01*
X64944807Y-16047619D02*
X64982902Y-16123809D01*
X64982902Y-16123809D02*
X64982902Y-16428571D01*
X64944807Y-15628571D02*
X64944807Y-15361905D01*
X65363855Y-15247619D02*
X65363855Y-15628571D01*
X65363855Y-15628571D02*
X64563855Y-15628571D01*
X64563855Y-15628571D02*
X64563855Y-15247619D01*
X65363855Y-14447618D02*
X64982902Y-14714285D01*
X65363855Y-14904761D02*
X64563855Y-14904761D01*
X64563855Y-14904761D02*
X64563855Y-14599999D01*
X64563855Y-14599999D02*
X64601950Y-14523809D01*
X64601950Y-14523809D02*
X64640045Y-14485714D01*
X64640045Y-14485714D02*
X64716236Y-14447618D01*
X64716236Y-14447618D02*
X64830521Y-14447618D01*
X64830521Y-14447618D02*
X64906712Y-14485714D01*
X64906712Y-14485714D02*
X64944807Y-14523809D01*
X64944807Y-14523809D02*
X64982902Y-14599999D01*
X64982902Y-14599999D02*
X64982902Y-14904761D01*
X64525760Y-12923809D02*
X65554331Y-13609523D01*
X65363855Y-12047618D02*
X64563855Y-12047618D01*
X64563855Y-12047618D02*
X65135283Y-11780952D01*
X65135283Y-11780952D02*
X64563855Y-11514285D01*
X64563855Y-11514285D02*
X65363855Y-11514285D01*
X64944807Y-11133332D02*
X64944807Y-10866666D01*
X65363855Y-10752380D02*
X65363855Y-11133332D01*
X65363855Y-11133332D02*
X64563855Y-11133332D01*
X64563855Y-11133332D02*
X64563855Y-10752380D01*
X64563855Y-10523808D02*
X64563855Y-10066665D01*
X65363855Y-10295237D02*
X64563855Y-10295237D01*
X65135283Y-9838094D02*
X65135283Y-9457141D01*
X65363855Y-9914284D02*
X64563855Y-9647617D01*
X64563855Y-9647617D02*
X65363855Y-9380951D01*
X65363855Y-8733332D02*
X65363855Y-9114284D01*
X65363855Y-9114284D02*
X64563855Y-9114284D01*
X6077380Y-10536987D02*
X6077380Y-11225082D01*
X6077380Y-11225082D02*
X6117857Y-11306034D01*
X6117857Y-11306034D02*
X6158333Y-11346511D01*
X6158333Y-11346511D02*
X6239285Y-11386987D01*
X6239285Y-11386987D02*
X6401190Y-11386987D01*
X6401190Y-11386987D02*
X6482142Y-11346511D01*
X6482142Y-11346511D02*
X6522619Y-11306034D01*
X6522619Y-11306034D02*
X6563095Y-11225082D01*
X6563095Y-11225082D02*
X6563095Y-10536987D01*
X6927380Y-11346511D02*
X7048809Y-11386987D01*
X7048809Y-11386987D02*
X7251190Y-11386987D01*
X7251190Y-11386987D02*
X7332142Y-11346511D01*
X7332142Y-11346511D02*
X7372618Y-11306034D01*
X7372618Y-11306034D02*
X7413095Y-11225082D01*
X7413095Y-11225082D02*
X7413095Y-11144130D01*
X7413095Y-11144130D02*
X7372618Y-11063177D01*
X7372618Y-11063177D02*
X7332142Y-11022701D01*
X7332142Y-11022701D02*
X7251190Y-10982225D01*
X7251190Y-10982225D02*
X7089285Y-10941749D01*
X7089285Y-10941749D02*
X7008333Y-10901272D01*
X7008333Y-10901272D02*
X6967856Y-10860796D01*
X6967856Y-10860796D02*
X6927380Y-10779844D01*
X6927380Y-10779844D02*
X6927380Y-10698891D01*
X6927380Y-10698891D02*
X6967856Y-10617939D01*
X6967856Y-10617939D02*
X7008333Y-10577463D01*
X7008333Y-10577463D02*
X7089285Y-10536987D01*
X7089285Y-10536987D02*
X7291666Y-10536987D01*
X7291666Y-10536987D02*
X7413095Y-10577463D01*
X8060714Y-10941749D02*
X8182142Y-10982225D01*
X8182142Y-10982225D02*
X8222619Y-11022701D01*
X8222619Y-11022701D02*
X8263095Y-11103653D01*
X8263095Y-11103653D02*
X8263095Y-11225082D01*
X8263095Y-11225082D02*
X8222619Y-11306034D01*
X8222619Y-11306034D02*
X8182142Y-11346511D01*
X8182142Y-11346511D02*
X8101190Y-11386987D01*
X8101190Y-11386987D02*
X7777380Y-11386987D01*
X7777380Y-11386987D02*
X7777380Y-10536987D01*
X7777380Y-10536987D02*
X8060714Y-10536987D01*
X8060714Y-10536987D02*
X8141666Y-10577463D01*
X8141666Y-10577463D02*
X8182142Y-10617939D01*
X8182142Y-10617939D02*
X8222619Y-10698891D01*
X8222619Y-10698891D02*
X8222619Y-10779844D01*
X8222619Y-10779844D02*
X8182142Y-10860796D01*
X8182142Y-10860796D02*
X8141666Y-10901272D01*
X8141666Y-10901272D02*
X8060714Y-10941749D01*
X8060714Y-10941749D02*
X7777380Y-10941749D01*
X9922619Y-10820320D02*
X9274999Y-11063177D01*
X9274999Y-11063177D02*
X9922619Y-11306034D01*
X46838095Y-44536987D02*
X46433333Y-44536987D01*
X46433333Y-44536987D02*
X46392857Y-44941749D01*
X46392857Y-44941749D02*
X46433333Y-44901272D01*
X46433333Y-44901272D02*
X46514286Y-44860796D01*
X46514286Y-44860796D02*
X46716667Y-44860796D01*
X46716667Y-44860796D02*
X46797619Y-44901272D01*
X46797619Y-44901272D02*
X46838095Y-44941749D01*
X46838095Y-44941749D02*
X46878572Y-45022701D01*
X46878572Y-45022701D02*
X46878572Y-45225082D01*
X46878572Y-45225082D02*
X46838095Y-45306034D01*
X46838095Y-45306034D02*
X46797619Y-45346511D01*
X46797619Y-45346511D02*
X46716667Y-45386987D01*
X46716667Y-45386987D02*
X46514286Y-45386987D01*
X46514286Y-45386987D02*
X46433333Y-45346511D01*
X46433333Y-45346511D02*
X46392857Y-45306034D01*
X47121429Y-44536987D02*
X47404762Y-45386987D01*
X47404762Y-45386987D02*
X47688096Y-44536987D01*
X46352381Y-50144130D02*
X46757143Y-50144130D01*
X46271429Y-50386987D02*
X46554762Y-49536987D01*
X46554762Y-49536987D02*
X46838096Y-50386987D01*
X47283333Y-49536987D02*
X47445238Y-49536987D01*
X47445238Y-49536987D02*
X47526190Y-49577463D01*
X47526190Y-49577463D02*
X47607143Y-49658415D01*
X47607143Y-49658415D02*
X47647619Y-49820320D01*
X47647619Y-49820320D02*
X47647619Y-50103653D01*
X47647619Y-50103653D02*
X47607143Y-50265558D01*
X47607143Y-50265558D02*
X47526190Y-50346511D01*
X47526190Y-50346511D02*
X47445238Y-50386987D01*
X47445238Y-50386987D02*
X47283333Y-50386987D01*
X47283333Y-50386987D02*
X47202381Y-50346511D01*
X47202381Y-50346511D02*
X47121428Y-50265558D01*
X47121428Y-50265558D02*
X47080952Y-50103653D01*
X47080952Y-50103653D02*
X47080952Y-49820320D01*
X47080952Y-49820320D02*
X47121428Y-49658415D01*
X47121428Y-49658415D02*
X47202381Y-49577463D01*
X47202381Y-49577463D02*
X47283333Y-49536987D01*
X54947619Y-42644130D02*
X55352381Y-42644130D01*
X54866667Y-42886987D02*
X55150000Y-42036987D01*
X55150000Y-42036987D02*
X55433334Y-42886987D01*
X55716666Y-42886987D02*
X55716666Y-42036987D01*
X55716666Y-42036987D02*
X55919047Y-42036987D01*
X55919047Y-42036987D02*
X56040476Y-42077463D01*
X56040476Y-42077463D02*
X56121428Y-42158415D01*
X56121428Y-42158415D02*
X56161905Y-42239368D01*
X56161905Y-42239368D02*
X56202381Y-42401272D01*
X56202381Y-42401272D02*
X56202381Y-42522701D01*
X56202381Y-42522701D02*
X56161905Y-42684606D01*
X56161905Y-42684606D02*
X56121428Y-42765558D01*
X56121428Y-42765558D02*
X56040476Y-42846511D01*
X56040476Y-42846511D02*
X55919047Y-42886987D01*
X55919047Y-42886987D02*
X55716666Y-42886987D01*
X57052381Y-42806034D02*
X57011905Y-42846511D01*
X57011905Y-42846511D02*
X56890476Y-42886987D01*
X56890476Y-42886987D02*
X56809524Y-42886987D01*
X56809524Y-42886987D02*
X56688095Y-42846511D01*
X56688095Y-42846511D02*
X56607143Y-42765558D01*
X56607143Y-42765558D02*
X56566666Y-42684606D01*
X56566666Y-42684606D02*
X56526190Y-42522701D01*
X56526190Y-42522701D02*
X56526190Y-42401272D01*
X56526190Y-42401272D02*
X56566666Y-42239368D01*
X56566666Y-42239368D02*
X56607143Y-42158415D01*
X56607143Y-42158415D02*
X56688095Y-42077463D01*
X56688095Y-42077463D02*
X56809524Y-42036987D01*
X56809524Y-42036987D02*
X56890476Y-42036987D01*
X56890476Y-42036987D02*
X57011905Y-42077463D01*
X57011905Y-42077463D02*
X57052381Y-42117939D01*
X61352381Y-42077463D02*
X61271428Y-42036987D01*
X61271428Y-42036987D02*
X61150000Y-42036987D01*
X61150000Y-42036987D02*
X61028571Y-42077463D01*
X61028571Y-42077463D02*
X60947619Y-42158415D01*
X60947619Y-42158415D02*
X60907142Y-42239368D01*
X60907142Y-42239368D02*
X60866666Y-42401272D01*
X60866666Y-42401272D02*
X60866666Y-42522701D01*
X60866666Y-42522701D02*
X60907142Y-42684606D01*
X60907142Y-42684606D02*
X60947619Y-42765558D01*
X60947619Y-42765558D02*
X61028571Y-42846511D01*
X61028571Y-42846511D02*
X61150000Y-42886987D01*
X61150000Y-42886987D02*
X61230952Y-42886987D01*
X61230952Y-42886987D02*
X61352381Y-42846511D01*
X61352381Y-42846511D02*
X61392857Y-42806034D01*
X61392857Y-42806034D02*
X61392857Y-42522701D01*
X61392857Y-42522701D02*
X61230952Y-42522701D01*
X61757142Y-42886987D02*
X61757142Y-42036987D01*
X61757142Y-42036987D02*
X62242857Y-42886987D01*
X62242857Y-42886987D02*
X62242857Y-42036987D01*
X62647618Y-42886987D02*
X62647618Y-42036987D01*
X62647618Y-42036987D02*
X62849999Y-42036987D01*
X62849999Y-42036987D02*
X62971428Y-42077463D01*
X62971428Y-42077463D02*
X63052380Y-42158415D01*
X63052380Y-42158415D02*
X63092857Y-42239368D01*
X63092857Y-42239368D02*
X63133333Y-42401272D01*
X63133333Y-42401272D02*
X63133333Y-42522701D01*
X63133333Y-42522701D02*
X63092857Y-42684606D01*
X63092857Y-42684606D02*
X63052380Y-42765558D01*
X63052380Y-42765558D02*
X62971428Y-42846511D01*
X62971428Y-42846511D02*
X62849999Y-42886987D01*
X62849999Y-42886987D02*
X62647618Y-42886987D01*
X33192857Y-19010117D02*
X33192857Y-19738688D01*
X33192857Y-19738688D02*
X33235714Y-19824402D01*
X33235714Y-19824402D02*
X33278572Y-19867260D01*
X33278572Y-19867260D02*
X33364286Y-19910117D01*
X33364286Y-19910117D02*
X33535714Y-19910117D01*
X33535714Y-19910117D02*
X33621429Y-19867260D01*
X33621429Y-19867260D02*
X33664286Y-19824402D01*
X33664286Y-19824402D02*
X33707143Y-19738688D01*
X33707143Y-19738688D02*
X33707143Y-19010117D01*
X34092857Y-19867260D02*
X34221429Y-19910117D01*
X34221429Y-19910117D02*
X34435714Y-19910117D01*
X34435714Y-19910117D02*
X34521429Y-19867260D01*
X34521429Y-19867260D02*
X34564286Y-19824402D01*
X34564286Y-19824402D02*
X34607143Y-19738688D01*
X34607143Y-19738688D02*
X34607143Y-19652974D01*
X34607143Y-19652974D02*
X34564286Y-19567260D01*
X34564286Y-19567260D02*
X34521429Y-19524402D01*
X34521429Y-19524402D02*
X34435714Y-19481545D01*
X34435714Y-19481545D02*
X34264286Y-19438688D01*
X34264286Y-19438688D02*
X34178571Y-19395831D01*
X34178571Y-19395831D02*
X34135714Y-19352974D01*
X34135714Y-19352974D02*
X34092857Y-19267260D01*
X34092857Y-19267260D02*
X34092857Y-19181545D01*
X34092857Y-19181545D02*
X34135714Y-19095831D01*
X34135714Y-19095831D02*
X34178571Y-19052974D01*
X34178571Y-19052974D02*
X34264286Y-19010117D01*
X34264286Y-19010117D02*
X34478571Y-19010117D01*
X34478571Y-19010117D02*
X34607143Y-19052974D01*
X35292857Y-19438688D02*
X35421429Y-19481545D01*
X35421429Y-19481545D02*
X35464286Y-19524402D01*
X35464286Y-19524402D02*
X35507143Y-19610117D01*
X35507143Y-19610117D02*
X35507143Y-19738688D01*
X35507143Y-19738688D02*
X35464286Y-19824402D01*
X35464286Y-19824402D02*
X35421429Y-19867260D01*
X35421429Y-19867260D02*
X35335714Y-19910117D01*
X35335714Y-19910117D02*
X34992857Y-19910117D01*
X34992857Y-19910117D02*
X34992857Y-19010117D01*
X34992857Y-19010117D02*
X35292857Y-19010117D01*
X35292857Y-19010117D02*
X35378572Y-19052974D01*
X35378572Y-19052974D02*
X35421429Y-19095831D01*
X35421429Y-19095831D02*
X35464286Y-19181545D01*
X35464286Y-19181545D02*
X35464286Y-19267260D01*
X35464286Y-19267260D02*
X35421429Y-19352974D01*
X35421429Y-19352974D02*
X35378572Y-19395831D01*
X35378572Y-19395831D02*
X35292857Y-19438688D01*
X35292857Y-19438688D02*
X34992857Y-19438688D01*
X36578571Y-19910117D02*
X36578571Y-19010117D01*
X36578571Y-19010117D02*
X36921428Y-19010117D01*
X36921428Y-19010117D02*
X37007143Y-19052974D01*
X37007143Y-19052974D02*
X37050000Y-19095831D01*
X37050000Y-19095831D02*
X37092857Y-19181545D01*
X37092857Y-19181545D02*
X37092857Y-19310117D01*
X37092857Y-19310117D02*
X37050000Y-19395831D01*
X37050000Y-19395831D02*
X37007143Y-19438688D01*
X37007143Y-19438688D02*
X36921428Y-19481545D01*
X36921428Y-19481545D02*
X36578571Y-19481545D01*
X37650000Y-19010117D02*
X37821428Y-19010117D01*
X37821428Y-19010117D02*
X37907143Y-19052974D01*
X37907143Y-19052974D02*
X37992857Y-19138688D01*
X37992857Y-19138688D02*
X38035714Y-19310117D01*
X38035714Y-19310117D02*
X38035714Y-19610117D01*
X38035714Y-19610117D02*
X37992857Y-19781545D01*
X37992857Y-19781545D02*
X37907143Y-19867260D01*
X37907143Y-19867260D02*
X37821428Y-19910117D01*
X37821428Y-19910117D02*
X37650000Y-19910117D01*
X37650000Y-19910117D02*
X37564286Y-19867260D01*
X37564286Y-19867260D02*
X37478571Y-19781545D01*
X37478571Y-19781545D02*
X37435714Y-19610117D01*
X37435714Y-19610117D02*
X37435714Y-19310117D01*
X37435714Y-19310117D02*
X37478571Y-19138688D01*
X37478571Y-19138688D02*
X37564286Y-19052974D01*
X37564286Y-19052974D02*
X37650000Y-19010117D01*
X38335714Y-19010117D02*
X38550000Y-19910117D01*
X38550000Y-19910117D02*
X38721428Y-19267260D01*
X38721428Y-19267260D02*
X38892857Y-19910117D01*
X38892857Y-19910117D02*
X39107143Y-19010117D01*
X39449999Y-19438688D02*
X39749999Y-19438688D01*
X39878571Y-19910117D02*
X39449999Y-19910117D01*
X39449999Y-19910117D02*
X39449999Y-19010117D01*
X39449999Y-19010117D02*
X39878571Y-19010117D01*
X40778571Y-19910117D02*
X40478571Y-19481545D01*
X40264285Y-19910117D02*
X40264285Y-19010117D01*
X40264285Y-19010117D02*
X40607142Y-19010117D01*
X40607142Y-19010117D02*
X40692857Y-19052974D01*
X40692857Y-19052974D02*
X40735714Y-19095831D01*
X40735714Y-19095831D02*
X40778571Y-19181545D01*
X40778571Y-19181545D02*
X40778571Y-19310117D01*
X40778571Y-19310117D02*
X40735714Y-19395831D01*
X40735714Y-19395831D02*
X40692857Y-19438688D01*
X40692857Y-19438688D02*
X40607142Y-19481545D01*
X40607142Y-19481545D02*
X40264285Y-19481545D01*
X42021428Y-19010117D02*
X42192856Y-19010117D01*
X42192856Y-19010117D02*
X42278571Y-19052974D01*
X42278571Y-19052974D02*
X42364285Y-19138688D01*
X42364285Y-19138688D02*
X42407142Y-19310117D01*
X42407142Y-19310117D02*
X42407142Y-19610117D01*
X42407142Y-19610117D02*
X42364285Y-19781545D01*
X42364285Y-19781545D02*
X42278571Y-19867260D01*
X42278571Y-19867260D02*
X42192856Y-19910117D01*
X42192856Y-19910117D02*
X42021428Y-19910117D01*
X42021428Y-19910117D02*
X41935714Y-19867260D01*
X41935714Y-19867260D02*
X41849999Y-19781545D01*
X41849999Y-19781545D02*
X41807142Y-19610117D01*
X41807142Y-19610117D02*
X41807142Y-19310117D01*
X41807142Y-19310117D02*
X41849999Y-19138688D01*
X41849999Y-19138688D02*
X41935714Y-19052974D01*
X41935714Y-19052974D02*
X42021428Y-19010117D01*
X42792856Y-19910117D02*
X42792856Y-19010117D01*
X42792856Y-19010117D02*
X43307142Y-19910117D01*
X43307142Y-19910117D02*
X43307142Y-19010117D01*
X44164285Y-19910117D02*
X43735713Y-19910117D01*
X43735713Y-19910117D02*
X43735713Y-19010117D01*
X44635713Y-19481545D02*
X44635713Y-19910117D01*
X44335713Y-19010117D02*
X44635713Y-19481545D01*
X44635713Y-19481545D02*
X44935713Y-19010117D01*
D11*
X28785713Y-11454819D02*
X28309523Y-11454819D01*
X28309523Y-11454819D02*
X28309523Y-10454819D01*
X29119047Y-11454819D02*
X29119047Y-10454819D01*
X30071427Y-11454819D02*
X29595237Y-11454819D01*
X29595237Y-11454819D02*
X29595237Y-10454819D01*
X30595237Y-10978628D02*
X30595237Y-11454819D01*
X30261904Y-10454819D02*
X30595237Y-10978628D01*
X30595237Y-10978628D02*
X30928570Y-10454819D01*
X31785713Y-10502438D02*
X31690475Y-10454819D01*
X31690475Y-10454819D02*
X31547618Y-10454819D01*
X31547618Y-10454819D02*
X31404761Y-10502438D01*
X31404761Y-10502438D02*
X31309523Y-10597676D01*
X31309523Y-10597676D02*
X31261904Y-10692914D01*
X31261904Y-10692914D02*
X31214285Y-10883390D01*
X31214285Y-10883390D02*
X31214285Y-11026247D01*
X31214285Y-11026247D02*
X31261904Y-11216723D01*
X31261904Y-11216723D02*
X31309523Y-11311961D01*
X31309523Y-11311961D02*
X31404761Y-11407200D01*
X31404761Y-11407200D02*
X31547618Y-11454819D01*
X31547618Y-11454819D02*
X31642856Y-11454819D01*
X31642856Y-11454819D02*
X31785713Y-11407200D01*
X31785713Y-11407200D02*
X31833332Y-11359580D01*
X31833332Y-11359580D02*
X31833332Y-11026247D01*
X31833332Y-11026247D02*
X31642856Y-11026247D01*
X32452380Y-10454819D02*
X32642856Y-10454819D01*
X32642856Y-10454819D02*
X32738094Y-10502438D01*
X32738094Y-10502438D02*
X32833332Y-10597676D01*
X32833332Y-10597676D02*
X32880951Y-10788152D01*
X32880951Y-10788152D02*
X32880951Y-11121485D01*
X32880951Y-11121485D02*
X32833332Y-11311961D01*
X32833332Y-11311961D02*
X32738094Y-11407200D01*
X32738094Y-11407200D02*
X32642856Y-11454819D01*
X32642856Y-11454819D02*
X32452380Y-11454819D01*
X32452380Y-11454819D02*
X32357142Y-11407200D01*
X32357142Y-11407200D02*
X32261904Y-11311961D01*
X32261904Y-11311961D02*
X32214285Y-11121485D01*
X32214285Y-11121485D02*
X32214285Y-10788152D01*
X32214285Y-10788152D02*
X32261904Y-10597676D01*
X32261904Y-10597676D02*
X32357142Y-10502438D01*
X32357142Y-10502438D02*
X32452380Y-10454819D01*
X34071428Y-11454819D02*
X34071428Y-10454819D01*
X34071428Y-10454819D02*
X34309523Y-10454819D01*
X34309523Y-10454819D02*
X34452380Y-10502438D01*
X34452380Y-10502438D02*
X34547618Y-10597676D01*
X34547618Y-10597676D02*
X34595237Y-10692914D01*
X34595237Y-10692914D02*
X34642856Y-10883390D01*
X34642856Y-10883390D02*
X34642856Y-11026247D01*
X34642856Y-11026247D02*
X34595237Y-11216723D01*
X34595237Y-11216723D02*
X34547618Y-11311961D01*
X34547618Y-11311961D02*
X34452380Y-11407200D01*
X34452380Y-11407200D02*
X34309523Y-11454819D01*
X34309523Y-11454819D02*
X34071428Y-11454819D01*
X35071428Y-11454819D02*
X35071428Y-10454819D01*
X35499999Y-11407200D02*
X35642856Y-11454819D01*
X35642856Y-11454819D02*
X35880951Y-11454819D01*
X35880951Y-11454819D02*
X35976189Y-11407200D01*
X35976189Y-11407200D02*
X36023808Y-11359580D01*
X36023808Y-11359580D02*
X36071427Y-11264342D01*
X36071427Y-11264342D02*
X36071427Y-11169104D01*
X36071427Y-11169104D02*
X36023808Y-11073866D01*
X36023808Y-11073866D02*
X35976189Y-11026247D01*
X35976189Y-11026247D02*
X35880951Y-10978628D01*
X35880951Y-10978628D02*
X35690475Y-10931009D01*
X35690475Y-10931009D02*
X35595237Y-10883390D01*
X35595237Y-10883390D02*
X35547618Y-10835771D01*
X35547618Y-10835771D02*
X35499999Y-10740533D01*
X35499999Y-10740533D02*
X35499999Y-10645295D01*
X35499999Y-10645295D02*
X35547618Y-10550057D01*
X35547618Y-10550057D02*
X35595237Y-10502438D01*
X35595237Y-10502438D02*
X35690475Y-10454819D01*
X35690475Y-10454819D02*
X35928570Y-10454819D01*
X35928570Y-10454819D02*
X36071427Y-10502438D01*
X36499999Y-11454819D02*
X36499999Y-10454819D01*
X36499999Y-10454819D02*
X36880951Y-10454819D01*
X36880951Y-10454819D02*
X36976189Y-10502438D01*
X36976189Y-10502438D02*
X37023808Y-10550057D01*
X37023808Y-10550057D02*
X37071427Y-10645295D01*
X37071427Y-10645295D02*
X37071427Y-10788152D01*
X37071427Y-10788152D02*
X37023808Y-10883390D01*
X37023808Y-10883390D02*
X36976189Y-10931009D01*
X36976189Y-10931009D02*
X36880951Y-10978628D01*
X36880951Y-10978628D02*
X36499999Y-10978628D01*
X37976189Y-11454819D02*
X37499999Y-11454819D01*
X37499999Y-11454819D02*
X37499999Y-10454819D01*
X38261904Y-11169104D02*
X38738094Y-11169104D01*
X38166666Y-11454819D02*
X38499999Y-10454819D01*
X38499999Y-10454819D02*
X38833332Y-11454819D01*
X39357142Y-10978628D02*
X39357142Y-11454819D01*
X39023809Y-10454819D02*
X39357142Y-10978628D01*
X39357142Y-10978628D02*
X39690475Y-10454819D01*
X41119047Y-10931009D02*
X40785714Y-10931009D01*
X40785714Y-11454819D02*
X40785714Y-10454819D01*
X40785714Y-10454819D02*
X41261904Y-10454819D01*
X41595238Y-11169104D02*
X42071428Y-11169104D01*
X41500000Y-11454819D02*
X41833333Y-10454819D01*
X41833333Y-10454819D02*
X42166666Y-11454819D01*
X43071428Y-11359580D02*
X43023809Y-11407200D01*
X43023809Y-11407200D02*
X42880952Y-11454819D01*
X42880952Y-11454819D02*
X42785714Y-11454819D01*
X42785714Y-11454819D02*
X42642857Y-11407200D01*
X42642857Y-11407200D02*
X42547619Y-11311961D01*
X42547619Y-11311961D02*
X42500000Y-11216723D01*
X42500000Y-11216723D02*
X42452381Y-11026247D01*
X42452381Y-11026247D02*
X42452381Y-10883390D01*
X42452381Y-10883390D02*
X42500000Y-10692914D01*
X42500000Y-10692914D02*
X42547619Y-10597676D01*
X42547619Y-10597676D02*
X42642857Y-10502438D01*
X42642857Y-10502438D02*
X42785714Y-10454819D01*
X42785714Y-10454819D02*
X42880952Y-10454819D01*
X42880952Y-10454819D02*
X43023809Y-10502438D01*
X43023809Y-10502438D02*
X43071428Y-10550057D01*
X43500000Y-10931009D02*
X43833333Y-10931009D01*
X43976190Y-11454819D02*
X43500000Y-11454819D01*
X43500000Y-11454819D02*
X43500000Y-10454819D01*
X43500000Y-10454819D02*
X43976190Y-10454819D01*
X44357143Y-11407200D02*
X44500000Y-11454819D01*
X44500000Y-11454819D02*
X44738095Y-11454819D01*
X44738095Y-11454819D02*
X44833333Y-11407200D01*
X44833333Y-11407200D02*
X44880952Y-11359580D01*
X44880952Y-11359580D02*
X44928571Y-11264342D01*
X44928571Y-11264342D02*
X44928571Y-11169104D01*
X44928571Y-11169104D02*
X44880952Y-11073866D01*
X44880952Y-11073866D02*
X44833333Y-11026247D01*
X44833333Y-11026247D02*
X44738095Y-10978628D01*
X44738095Y-10978628D02*
X44547619Y-10931009D01*
X44547619Y-10931009D02*
X44452381Y-10883390D01*
X44452381Y-10883390D02*
X44404762Y-10835771D01*
X44404762Y-10835771D02*
X44357143Y-10740533D01*
X44357143Y-10740533D02*
X44357143Y-10645295D01*
X44357143Y-10645295D02*
X44404762Y-10550057D01*
X44404762Y-10550057D02*
X44452381Y-10502438D01*
X44452381Y-10502438D02*
X44547619Y-10454819D01*
X44547619Y-10454819D02*
X44785714Y-10454819D01*
X44785714Y-10454819D02*
X44928571Y-10502438D01*
X46119048Y-10454819D02*
X46119048Y-11264342D01*
X46119048Y-11264342D02*
X46166667Y-11359580D01*
X46166667Y-11359580D02*
X46214286Y-11407200D01*
X46214286Y-11407200D02*
X46309524Y-11454819D01*
X46309524Y-11454819D02*
X46500000Y-11454819D01*
X46500000Y-11454819D02*
X46595238Y-11407200D01*
X46595238Y-11407200D02*
X46642857Y-11359580D01*
X46642857Y-11359580D02*
X46690476Y-11264342D01*
X46690476Y-11264342D02*
X46690476Y-10454819D01*
X47166667Y-11454819D02*
X47166667Y-10454819D01*
X47166667Y-10454819D02*
X47547619Y-10454819D01*
X47547619Y-10454819D02*
X47642857Y-10502438D01*
X47642857Y-10502438D02*
X47690476Y-10550057D01*
X47690476Y-10550057D02*
X47738095Y-10645295D01*
X47738095Y-10645295D02*
X47738095Y-10788152D01*
X47738095Y-10788152D02*
X47690476Y-10883390D01*
X47690476Y-10883390D02*
X47642857Y-10931009D01*
X47642857Y-10931009D02*
X47547619Y-10978628D01*
X47547619Y-10978628D02*
X47166667Y-10978628D01*
X30114286Y-15918771D02*
X30285714Y-15975914D01*
X30285714Y-15975914D02*
X30342857Y-16033057D01*
X30342857Y-16033057D02*
X30400000Y-16147342D01*
X30400000Y-16147342D02*
X30400000Y-16318771D01*
X30400000Y-16318771D02*
X30342857Y-16433057D01*
X30342857Y-16433057D02*
X30285714Y-16490200D01*
X30285714Y-16490200D02*
X30171429Y-16547342D01*
X30171429Y-16547342D02*
X29714286Y-16547342D01*
X29714286Y-16547342D02*
X29714286Y-15347342D01*
X29714286Y-15347342D02*
X30114286Y-15347342D01*
X30114286Y-15347342D02*
X30228572Y-15404485D01*
X30228572Y-15404485D02*
X30285714Y-15461628D01*
X30285714Y-15461628D02*
X30342857Y-15575914D01*
X30342857Y-15575914D02*
X30342857Y-15690200D01*
X30342857Y-15690200D02*
X30285714Y-15804485D01*
X30285714Y-15804485D02*
X30228572Y-15861628D01*
X30228572Y-15861628D02*
X30114286Y-15918771D01*
X30114286Y-15918771D02*
X29714286Y-15918771D01*
X31600000Y-16547342D02*
X31200000Y-15975914D01*
X30914286Y-16547342D02*
X30914286Y-15347342D01*
X30914286Y-15347342D02*
X31371429Y-15347342D01*
X31371429Y-15347342D02*
X31485714Y-15404485D01*
X31485714Y-15404485D02*
X31542857Y-15461628D01*
X31542857Y-15461628D02*
X31600000Y-15575914D01*
X31600000Y-15575914D02*
X31600000Y-15747342D01*
X31600000Y-15747342D02*
X31542857Y-15861628D01*
X31542857Y-15861628D02*
X31485714Y-15918771D01*
X31485714Y-15918771D02*
X31371429Y-15975914D01*
X31371429Y-15975914D02*
X30914286Y-15975914D01*
X32114286Y-15918771D02*
X32514286Y-15918771D01*
X32685714Y-16547342D02*
X32114286Y-16547342D01*
X32114286Y-16547342D02*
X32114286Y-15347342D01*
X32114286Y-15347342D02*
X32685714Y-15347342D01*
X33142857Y-16204485D02*
X33714286Y-16204485D01*
X33028571Y-16547342D02*
X33428571Y-15347342D01*
X33428571Y-15347342D02*
X33828571Y-16547342D01*
X34057142Y-15347342D02*
X34742857Y-15347342D01*
X34399999Y-16547342D02*
X34399999Y-15347342D01*
X35142857Y-16547342D02*
X35142857Y-15347342D01*
X35142857Y-15918771D02*
X35828571Y-15918771D01*
X35828571Y-16547342D02*
X35828571Y-15347342D01*
X37314286Y-16547342D02*
X37314286Y-15347342D01*
X37314286Y-15347342D02*
X37771429Y-15347342D01*
X37771429Y-15347342D02*
X37885714Y-15404485D01*
X37885714Y-15404485D02*
X37942857Y-15461628D01*
X37942857Y-15461628D02*
X38000000Y-15575914D01*
X38000000Y-15575914D02*
X38000000Y-15747342D01*
X38000000Y-15747342D02*
X37942857Y-15861628D01*
X37942857Y-15861628D02*
X37885714Y-15918771D01*
X37885714Y-15918771D02*
X37771429Y-15975914D01*
X37771429Y-15975914D02*
X37314286Y-15975914D01*
X38514286Y-15918771D02*
X38914286Y-15918771D01*
X39085714Y-16547342D02*
X38514286Y-16547342D01*
X38514286Y-16547342D02*
X38514286Y-15347342D01*
X38514286Y-15347342D02*
X39085714Y-15347342D01*
X39428571Y-15347342D02*
X40114286Y-15347342D01*
X39771428Y-16547342D02*
X39771428Y-15347342D01*
X42285715Y-15290200D02*
X41257143Y-16833057D01*
X44285715Y-16547342D02*
X43885715Y-15975914D01*
X43600001Y-16547342D02*
X43600001Y-15347342D01*
X43600001Y-15347342D02*
X44057144Y-15347342D01*
X44057144Y-15347342D02*
X44171429Y-15404485D01*
X44171429Y-15404485D02*
X44228572Y-15461628D01*
X44228572Y-15461628D02*
X44285715Y-15575914D01*
X44285715Y-15575914D02*
X44285715Y-15747342D01*
X44285715Y-15747342D02*
X44228572Y-15861628D01*
X44228572Y-15861628D02*
X44171429Y-15918771D01*
X44171429Y-15918771D02*
X44057144Y-15975914D01*
X44057144Y-15975914D02*
X43600001Y-15975914D01*
X44800001Y-15918771D02*
X45200001Y-15918771D01*
X45371429Y-16547342D02*
X44800001Y-16547342D01*
X44800001Y-16547342D02*
X44800001Y-15347342D01*
X44800001Y-15347342D02*
X45371429Y-15347342D01*
X45714286Y-15347342D02*
X46114286Y-16547342D01*
X46114286Y-16547342D02*
X46514286Y-15347342D01*
X47771429Y-16204485D02*
X48342858Y-16204485D01*
X47657143Y-16547342D02*
X48057143Y-15347342D01*
X48057143Y-15347342D02*
X48457143Y-16547342D01*
D10*
X23866667Y-33387664D02*
X23828571Y-33425760D01*
X23828571Y-33425760D02*
X23714286Y-33463855D01*
X23714286Y-33463855D02*
X23638095Y-33463855D01*
X23638095Y-33463855D02*
X23523809Y-33425760D01*
X23523809Y-33425760D02*
X23447619Y-33349569D01*
X23447619Y-33349569D02*
X23409524Y-33273379D01*
X23409524Y-33273379D02*
X23371428Y-33120998D01*
X23371428Y-33120998D02*
X23371428Y-33006712D01*
X23371428Y-33006712D02*
X23409524Y-32854331D01*
X23409524Y-32854331D02*
X23447619Y-32778140D01*
X23447619Y-32778140D02*
X23523809Y-32701950D01*
X23523809Y-32701950D02*
X23638095Y-32663855D01*
X23638095Y-32663855D02*
X23714286Y-32663855D01*
X23714286Y-32663855D02*
X23828571Y-32701950D01*
X23828571Y-32701950D02*
X23866667Y-32740045D01*
X24171428Y-32740045D02*
X24209524Y-32701950D01*
X24209524Y-32701950D02*
X24285714Y-32663855D01*
X24285714Y-32663855D02*
X24476190Y-32663855D01*
X24476190Y-32663855D02*
X24552381Y-32701950D01*
X24552381Y-32701950D02*
X24590476Y-32740045D01*
X24590476Y-32740045D02*
X24628571Y-32816236D01*
X24628571Y-32816236D02*
X24628571Y-32892426D01*
X24628571Y-32892426D02*
X24590476Y-33006712D01*
X24590476Y-33006712D02*
X24133333Y-33463855D01*
X24133333Y-33463855D02*
X24628571Y-33463855D01*
X38866667Y-35863855D02*
X38600000Y-35482902D01*
X38409524Y-35863855D02*
X38409524Y-35063855D01*
X38409524Y-35063855D02*
X38714286Y-35063855D01*
X38714286Y-35063855D02*
X38790476Y-35101950D01*
X38790476Y-35101950D02*
X38828571Y-35140045D01*
X38828571Y-35140045D02*
X38866667Y-35216236D01*
X38866667Y-35216236D02*
X38866667Y-35330521D01*
X38866667Y-35330521D02*
X38828571Y-35406712D01*
X38828571Y-35406712D02*
X38790476Y-35444807D01*
X38790476Y-35444807D02*
X38714286Y-35482902D01*
X38714286Y-35482902D02*
X38409524Y-35482902D01*
X39133333Y-35063855D02*
X39628571Y-35063855D01*
X39628571Y-35063855D02*
X39361905Y-35368617D01*
X39361905Y-35368617D02*
X39476190Y-35368617D01*
X39476190Y-35368617D02*
X39552381Y-35406712D01*
X39552381Y-35406712D02*
X39590476Y-35444807D01*
X39590476Y-35444807D02*
X39628571Y-35520998D01*
X39628571Y-35520998D02*
X39628571Y-35711474D01*
X39628571Y-35711474D02*
X39590476Y-35787664D01*
X39590476Y-35787664D02*
X39552381Y-35825760D01*
X39552381Y-35825760D02*
X39476190Y-35863855D01*
X39476190Y-35863855D02*
X39247619Y-35863855D01*
X39247619Y-35863855D02*
X39171428Y-35825760D01*
X39171428Y-35825760D02*
X39133333Y-35787664D01*
X52990476Y-49563855D02*
X53447619Y-49563855D01*
X53219047Y-50363855D02*
X53219047Y-49563855D01*
X53714286Y-50363855D02*
X53714286Y-49563855D01*
X53714286Y-49563855D02*
X54019048Y-49563855D01*
X54019048Y-49563855D02*
X54095238Y-49601950D01*
X54095238Y-49601950D02*
X54133333Y-49640045D01*
X54133333Y-49640045D02*
X54171429Y-49716236D01*
X54171429Y-49716236D02*
X54171429Y-49830521D01*
X54171429Y-49830521D02*
X54133333Y-49906712D01*
X54133333Y-49906712D02*
X54095238Y-49944807D01*
X54095238Y-49944807D02*
X54019048Y-49982902D01*
X54019048Y-49982902D02*
X53714286Y-49982902D01*
X54628571Y-49906712D02*
X54552381Y-49868617D01*
X54552381Y-49868617D02*
X54514286Y-49830521D01*
X54514286Y-49830521D02*
X54476190Y-49754331D01*
X54476190Y-49754331D02*
X54476190Y-49716236D01*
X54476190Y-49716236D02*
X54514286Y-49640045D01*
X54514286Y-49640045D02*
X54552381Y-49601950D01*
X54552381Y-49601950D02*
X54628571Y-49563855D01*
X54628571Y-49563855D02*
X54780952Y-49563855D01*
X54780952Y-49563855D02*
X54857143Y-49601950D01*
X54857143Y-49601950D02*
X54895238Y-49640045D01*
X54895238Y-49640045D02*
X54933333Y-49716236D01*
X54933333Y-49716236D02*
X54933333Y-49754331D01*
X54933333Y-49754331D02*
X54895238Y-49830521D01*
X54895238Y-49830521D02*
X54857143Y-49868617D01*
X54857143Y-49868617D02*
X54780952Y-49906712D01*
X54780952Y-49906712D02*
X54628571Y-49906712D01*
X54628571Y-49906712D02*
X54552381Y-49944807D01*
X54552381Y-49944807D02*
X54514286Y-49982902D01*
X54514286Y-49982902D02*
X54476190Y-50059093D01*
X54476190Y-50059093D02*
X54476190Y-50211474D01*
X54476190Y-50211474D02*
X54514286Y-50287664D01*
X54514286Y-50287664D02*
X54552381Y-50325760D01*
X54552381Y-50325760D02*
X54628571Y-50363855D01*
X54628571Y-50363855D02*
X54780952Y-50363855D01*
X54780952Y-50363855D02*
X54857143Y-50325760D01*
X54857143Y-50325760D02*
X54895238Y-50287664D01*
X54895238Y-50287664D02*
X54933333Y-50211474D01*
X54933333Y-50211474D02*
X54933333Y-50059093D01*
X54933333Y-50059093D02*
X54895238Y-49982902D01*
X54895238Y-49982902D02*
X54857143Y-49944807D01*
X54857143Y-49944807D02*
X54780952Y-49906712D01*
X54990476Y-47563855D02*
X55447619Y-47563855D01*
X55219047Y-48363855D02*
X55219047Y-47563855D01*
X55714286Y-48363855D02*
X55714286Y-47563855D01*
X55714286Y-47563855D02*
X56019048Y-47563855D01*
X56019048Y-47563855D02*
X56095238Y-47601950D01*
X56095238Y-47601950D02*
X56133333Y-47640045D01*
X56133333Y-47640045D02*
X56171429Y-47716236D01*
X56171429Y-47716236D02*
X56171429Y-47830521D01*
X56171429Y-47830521D02*
X56133333Y-47906712D01*
X56133333Y-47906712D02*
X56095238Y-47944807D01*
X56095238Y-47944807D02*
X56019048Y-47982902D01*
X56019048Y-47982902D02*
X55714286Y-47982902D01*
X56895238Y-47563855D02*
X56514286Y-47563855D01*
X56514286Y-47563855D02*
X56476190Y-47944807D01*
X56476190Y-47944807D02*
X56514286Y-47906712D01*
X56514286Y-47906712D02*
X56590476Y-47868617D01*
X56590476Y-47868617D02*
X56780952Y-47868617D01*
X56780952Y-47868617D02*
X56857143Y-47906712D01*
X56857143Y-47906712D02*
X56895238Y-47944807D01*
X56895238Y-47944807D02*
X56933333Y-48020998D01*
X56933333Y-48020998D02*
X56933333Y-48211474D01*
X56933333Y-48211474D02*
X56895238Y-48287664D01*
X56895238Y-48287664D02*
X56857143Y-48325760D01*
X56857143Y-48325760D02*
X56780952Y-48363855D01*
X56780952Y-48363855D02*
X56590476Y-48363855D01*
X56590476Y-48363855D02*
X56514286Y-48325760D01*
X56514286Y-48325760D02*
X56476190Y-48287664D01*
X41733333Y-24063855D02*
X41733333Y-24635283D01*
X41733333Y-24635283D02*
X41695238Y-24749569D01*
X41695238Y-24749569D02*
X41619047Y-24825760D01*
X41619047Y-24825760D02*
X41504762Y-24863855D01*
X41504762Y-24863855D02*
X41428571Y-24863855D01*
X42076190Y-24140045D02*
X42114286Y-24101950D01*
X42114286Y-24101950D02*
X42190476Y-24063855D01*
X42190476Y-24063855D02*
X42380952Y-24063855D01*
X42380952Y-24063855D02*
X42457143Y-24101950D01*
X42457143Y-24101950D02*
X42495238Y-24140045D01*
X42495238Y-24140045D02*
X42533333Y-24216236D01*
X42533333Y-24216236D02*
X42533333Y-24292426D01*
X42533333Y-24292426D02*
X42495238Y-24406712D01*
X42495238Y-24406712D02*
X42038095Y-24863855D01*
X42038095Y-24863855D02*
X42533333Y-24863855D01*
X24866667Y-41687664D02*
X24828571Y-41725760D01*
X24828571Y-41725760D02*
X24714286Y-41763855D01*
X24714286Y-41763855D02*
X24638095Y-41763855D01*
X24638095Y-41763855D02*
X24523809Y-41725760D01*
X24523809Y-41725760D02*
X24447619Y-41649569D01*
X24447619Y-41649569D02*
X24409524Y-41573379D01*
X24409524Y-41573379D02*
X24371428Y-41420998D01*
X24371428Y-41420998D02*
X24371428Y-41306712D01*
X24371428Y-41306712D02*
X24409524Y-41154331D01*
X24409524Y-41154331D02*
X24447619Y-41078140D01*
X24447619Y-41078140D02*
X24523809Y-41001950D01*
X24523809Y-41001950D02*
X24638095Y-40963855D01*
X24638095Y-40963855D02*
X24714286Y-40963855D01*
X24714286Y-40963855D02*
X24828571Y-41001950D01*
X24828571Y-41001950D02*
X24866667Y-41040045D01*
X25133333Y-40963855D02*
X25628571Y-40963855D01*
X25628571Y-40963855D02*
X25361905Y-41268617D01*
X25361905Y-41268617D02*
X25476190Y-41268617D01*
X25476190Y-41268617D02*
X25552381Y-41306712D01*
X25552381Y-41306712D02*
X25590476Y-41344807D01*
X25590476Y-41344807D02*
X25628571Y-41420998D01*
X25628571Y-41420998D02*
X25628571Y-41611474D01*
X25628571Y-41611474D02*
X25590476Y-41687664D01*
X25590476Y-41687664D02*
X25552381Y-41725760D01*
X25552381Y-41725760D02*
X25476190Y-41763855D01*
X25476190Y-41763855D02*
X25247619Y-41763855D01*
X25247619Y-41763855D02*
X25171428Y-41725760D01*
X25171428Y-41725760D02*
X25133333Y-41687664D01*
X6990476Y-26063855D02*
X7447619Y-26063855D01*
X7219047Y-26863855D02*
X7219047Y-26063855D01*
X7714286Y-26863855D02*
X7714286Y-26063855D01*
X7714286Y-26063855D02*
X8019048Y-26063855D01*
X8019048Y-26063855D02*
X8095238Y-26101950D01*
X8095238Y-26101950D02*
X8133333Y-26140045D01*
X8133333Y-26140045D02*
X8171429Y-26216236D01*
X8171429Y-26216236D02*
X8171429Y-26330521D01*
X8171429Y-26330521D02*
X8133333Y-26406712D01*
X8133333Y-26406712D02*
X8095238Y-26444807D01*
X8095238Y-26444807D02*
X8019048Y-26482902D01*
X8019048Y-26482902D02*
X7714286Y-26482902D01*
X8933333Y-26863855D02*
X8476190Y-26863855D01*
X8704762Y-26863855D02*
X8704762Y-26063855D01*
X8704762Y-26063855D02*
X8628571Y-26178140D01*
X8628571Y-26178140D02*
X8552381Y-26254331D01*
X8552381Y-26254331D02*
X8476190Y-26292426D01*
X41733333Y-763855D02*
X41733333Y-1335283D01*
X41733333Y-1335283D02*
X41695238Y-1449569D01*
X41695238Y-1449569D02*
X41619047Y-1525760D01*
X41619047Y-1525760D02*
X41504762Y-1563855D01*
X41504762Y-1563855D02*
X41428571Y-1563855D01*
X42533333Y-1563855D02*
X42076190Y-1563855D01*
X42304762Y-1563855D02*
X42304762Y-763855D01*
X42304762Y-763855D02*
X42228571Y-878140D01*
X42228571Y-878140D02*
X42152381Y-954331D01*
X42152381Y-954331D02*
X42076190Y-992426D01*
X10990476Y-16563855D02*
X11447619Y-16563855D01*
X11219047Y-17363855D02*
X11219047Y-16563855D01*
X11714286Y-17363855D02*
X11714286Y-16563855D01*
X11714286Y-16563855D02*
X12019048Y-16563855D01*
X12019048Y-16563855D02*
X12095238Y-16601950D01*
X12095238Y-16601950D02*
X12133333Y-16640045D01*
X12133333Y-16640045D02*
X12171429Y-16716236D01*
X12171429Y-16716236D02*
X12171429Y-16830521D01*
X12171429Y-16830521D02*
X12133333Y-16906712D01*
X12133333Y-16906712D02*
X12095238Y-16944807D01*
X12095238Y-16944807D02*
X12019048Y-16982902D01*
X12019048Y-16982902D02*
X11714286Y-16982902D01*
X12857143Y-16830521D02*
X12857143Y-17363855D01*
X12666667Y-16525760D02*
X12476190Y-17097188D01*
X12476190Y-17097188D02*
X12971429Y-17097188D01*
X27866667Y-51863855D02*
X27600000Y-51482902D01*
X27409524Y-51863855D02*
X27409524Y-51063855D01*
X27409524Y-51063855D02*
X27714286Y-51063855D01*
X27714286Y-51063855D02*
X27790476Y-51101950D01*
X27790476Y-51101950D02*
X27828571Y-51140045D01*
X27828571Y-51140045D02*
X27866667Y-51216236D01*
X27866667Y-51216236D02*
X27866667Y-51330521D01*
X27866667Y-51330521D02*
X27828571Y-51406712D01*
X27828571Y-51406712D02*
X27790476Y-51444807D01*
X27790476Y-51444807D02*
X27714286Y-51482902D01*
X27714286Y-51482902D02*
X27409524Y-51482902D01*
X28552381Y-51330521D02*
X28552381Y-51863855D01*
X28361905Y-51025760D02*
X28171428Y-51597188D01*
X28171428Y-51597188D02*
X28666667Y-51597188D01*
X60990476Y-47563855D02*
X61447619Y-47563855D01*
X61219047Y-48363855D02*
X61219047Y-47563855D01*
X61714286Y-48363855D02*
X61714286Y-47563855D01*
X61714286Y-47563855D02*
X62019048Y-47563855D01*
X62019048Y-47563855D02*
X62095238Y-47601950D01*
X62095238Y-47601950D02*
X62133333Y-47640045D01*
X62133333Y-47640045D02*
X62171429Y-47716236D01*
X62171429Y-47716236D02*
X62171429Y-47830521D01*
X62171429Y-47830521D02*
X62133333Y-47906712D01*
X62133333Y-47906712D02*
X62095238Y-47944807D01*
X62095238Y-47944807D02*
X62019048Y-47982902D01*
X62019048Y-47982902D02*
X61714286Y-47982902D01*
X62857143Y-47563855D02*
X62704762Y-47563855D01*
X62704762Y-47563855D02*
X62628571Y-47601950D01*
X62628571Y-47601950D02*
X62590476Y-47640045D01*
X62590476Y-47640045D02*
X62514286Y-47754331D01*
X62514286Y-47754331D02*
X62476190Y-47906712D01*
X62476190Y-47906712D02*
X62476190Y-48211474D01*
X62476190Y-48211474D02*
X62514286Y-48287664D01*
X62514286Y-48287664D02*
X62552381Y-48325760D01*
X62552381Y-48325760D02*
X62628571Y-48363855D01*
X62628571Y-48363855D02*
X62780952Y-48363855D01*
X62780952Y-48363855D02*
X62857143Y-48325760D01*
X62857143Y-48325760D02*
X62895238Y-48287664D01*
X62895238Y-48287664D02*
X62933333Y-48211474D01*
X62933333Y-48211474D02*
X62933333Y-48020998D01*
X62933333Y-48020998D02*
X62895238Y-47944807D01*
X62895238Y-47944807D02*
X62857143Y-47906712D01*
X62857143Y-47906712D02*
X62780952Y-47868617D01*
X62780952Y-47868617D02*
X62628571Y-47868617D01*
X62628571Y-47868617D02*
X62552381Y-47906712D01*
X62552381Y-47906712D02*
X62514286Y-47944807D01*
X62514286Y-47944807D02*
X62476190Y-48020998D01*
X51409524Y-31363855D02*
X51409524Y-30563855D01*
X51409524Y-30563855D02*
X51600000Y-30563855D01*
X51600000Y-30563855D02*
X51714286Y-30601950D01*
X51714286Y-30601950D02*
X51790476Y-30678140D01*
X51790476Y-30678140D02*
X51828571Y-30754331D01*
X51828571Y-30754331D02*
X51866667Y-30906712D01*
X51866667Y-30906712D02*
X51866667Y-31020998D01*
X51866667Y-31020998D02*
X51828571Y-31173379D01*
X51828571Y-31173379D02*
X51790476Y-31249569D01*
X51790476Y-31249569D02*
X51714286Y-31325760D01*
X51714286Y-31325760D02*
X51600000Y-31363855D01*
X51600000Y-31363855D02*
X51409524Y-31363855D01*
X52628571Y-31363855D02*
X52171428Y-31363855D01*
X52400000Y-31363855D02*
X52400000Y-30563855D01*
X52400000Y-30563855D02*
X52323809Y-30678140D01*
X52323809Y-30678140D02*
X52247619Y-30754331D01*
X52247619Y-30754331D02*
X52171428Y-30792426D01*
X13390475Y-32325760D02*
X13504761Y-32363855D01*
X13504761Y-32363855D02*
X13695237Y-32363855D01*
X13695237Y-32363855D02*
X13771428Y-32325760D01*
X13771428Y-32325760D02*
X13809523Y-32287664D01*
X13809523Y-32287664D02*
X13847618Y-32211474D01*
X13847618Y-32211474D02*
X13847618Y-32135283D01*
X13847618Y-32135283D02*
X13809523Y-32059093D01*
X13809523Y-32059093D02*
X13771428Y-32020998D01*
X13771428Y-32020998D02*
X13695237Y-31982902D01*
X13695237Y-31982902D02*
X13542856Y-31944807D01*
X13542856Y-31944807D02*
X13466666Y-31906712D01*
X13466666Y-31906712D02*
X13428571Y-31868617D01*
X13428571Y-31868617D02*
X13390475Y-31792426D01*
X13390475Y-31792426D02*
X13390475Y-31716236D01*
X13390475Y-31716236D02*
X13428571Y-31640045D01*
X13428571Y-31640045D02*
X13466666Y-31601950D01*
X13466666Y-31601950D02*
X13542856Y-31563855D01*
X13542856Y-31563855D02*
X13733333Y-31563855D01*
X13733333Y-31563855D02*
X13847618Y-31601950D01*
X14609523Y-32363855D02*
X14152380Y-32363855D01*
X14380952Y-32363855D02*
X14380952Y-31563855D01*
X14380952Y-31563855D02*
X14304761Y-31678140D01*
X14304761Y-31678140D02*
X14228571Y-31754331D01*
X14228571Y-31754331D02*
X14152380Y-31792426D01*
X22990476Y-26063855D02*
X23447619Y-26063855D01*
X23219047Y-26863855D02*
X23219047Y-26063855D01*
X23714286Y-26863855D02*
X23714286Y-26063855D01*
X23714286Y-26063855D02*
X24019048Y-26063855D01*
X24019048Y-26063855D02*
X24095238Y-26101950D01*
X24095238Y-26101950D02*
X24133333Y-26140045D01*
X24133333Y-26140045D02*
X24171429Y-26216236D01*
X24171429Y-26216236D02*
X24171429Y-26330521D01*
X24171429Y-26330521D02*
X24133333Y-26406712D01*
X24133333Y-26406712D02*
X24095238Y-26444807D01*
X24095238Y-26444807D02*
X24019048Y-26482902D01*
X24019048Y-26482902D02*
X23714286Y-26482902D01*
X24438095Y-26063855D02*
X24933333Y-26063855D01*
X24933333Y-26063855D02*
X24666667Y-26368617D01*
X24666667Y-26368617D02*
X24780952Y-26368617D01*
X24780952Y-26368617D02*
X24857143Y-26406712D01*
X24857143Y-26406712D02*
X24895238Y-26444807D01*
X24895238Y-26444807D02*
X24933333Y-26520998D01*
X24933333Y-26520998D02*
X24933333Y-26711474D01*
X24933333Y-26711474D02*
X24895238Y-26787664D01*
X24895238Y-26787664D02*
X24857143Y-26825760D01*
X24857143Y-26825760D02*
X24780952Y-26863855D01*
X24780952Y-26863855D02*
X24552381Y-26863855D01*
X24552381Y-26863855D02*
X24476190Y-26825760D01*
X24476190Y-26825760D02*
X24438095Y-26787664D01*
X34866667Y-41863855D02*
X34600000Y-41482902D01*
X34409524Y-41863855D02*
X34409524Y-41063855D01*
X34409524Y-41063855D02*
X34714286Y-41063855D01*
X34714286Y-41063855D02*
X34790476Y-41101950D01*
X34790476Y-41101950D02*
X34828571Y-41140045D01*
X34828571Y-41140045D02*
X34866667Y-41216236D01*
X34866667Y-41216236D02*
X34866667Y-41330521D01*
X34866667Y-41330521D02*
X34828571Y-41406712D01*
X34828571Y-41406712D02*
X34790476Y-41444807D01*
X34790476Y-41444807D02*
X34714286Y-41482902D01*
X34714286Y-41482902D02*
X34409524Y-41482902D01*
X35171428Y-41140045D02*
X35209524Y-41101950D01*
X35209524Y-41101950D02*
X35285714Y-41063855D01*
X35285714Y-41063855D02*
X35476190Y-41063855D01*
X35476190Y-41063855D02*
X35552381Y-41101950D01*
X35552381Y-41101950D02*
X35590476Y-41140045D01*
X35590476Y-41140045D02*
X35628571Y-41216236D01*
X35628571Y-41216236D02*
X35628571Y-41292426D01*
X35628571Y-41292426D02*
X35590476Y-41406712D01*
X35590476Y-41406712D02*
X35133333Y-41863855D01*
X35133333Y-41863855D02*
X35628571Y-41863855D01*
X45866667Y-33787664D02*
X45828571Y-33825760D01*
X45828571Y-33825760D02*
X45714286Y-33863855D01*
X45714286Y-33863855D02*
X45638095Y-33863855D01*
X45638095Y-33863855D02*
X45523809Y-33825760D01*
X45523809Y-33825760D02*
X45447619Y-33749569D01*
X45447619Y-33749569D02*
X45409524Y-33673379D01*
X45409524Y-33673379D02*
X45371428Y-33520998D01*
X45371428Y-33520998D02*
X45371428Y-33406712D01*
X45371428Y-33406712D02*
X45409524Y-33254331D01*
X45409524Y-33254331D02*
X45447619Y-33178140D01*
X45447619Y-33178140D02*
X45523809Y-33101950D01*
X45523809Y-33101950D02*
X45638095Y-33063855D01*
X45638095Y-33063855D02*
X45714286Y-33063855D01*
X45714286Y-33063855D02*
X45828571Y-33101950D01*
X45828571Y-33101950D02*
X45866667Y-33140045D01*
X46628571Y-33863855D02*
X46171428Y-33863855D01*
X46400000Y-33863855D02*
X46400000Y-33063855D01*
X46400000Y-33063855D02*
X46323809Y-33178140D01*
X46323809Y-33178140D02*
X46247619Y-33254331D01*
X46247619Y-33254331D02*
X46171428Y-33292426D01*
X29866667Y-32363855D02*
X29600000Y-31982902D01*
X29409524Y-32363855D02*
X29409524Y-31563855D01*
X29409524Y-31563855D02*
X29714286Y-31563855D01*
X29714286Y-31563855D02*
X29790476Y-31601950D01*
X29790476Y-31601950D02*
X29828571Y-31640045D01*
X29828571Y-31640045D02*
X29866667Y-31716236D01*
X29866667Y-31716236D02*
X29866667Y-31830521D01*
X29866667Y-31830521D02*
X29828571Y-31906712D01*
X29828571Y-31906712D02*
X29790476Y-31944807D01*
X29790476Y-31944807D02*
X29714286Y-31982902D01*
X29714286Y-31982902D02*
X29409524Y-31982902D01*
X30628571Y-32363855D02*
X30171428Y-32363855D01*
X30400000Y-32363855D02*
X30400000Y-31563855D01*
X30400000Y-31563855D02*
X30323809Y-31678140D01*
X30323809Y-31678140D02*
X30247619Y-31754331D01*
X30247619Y-31754331D02*
X30171428Y-31792426D01*
X38233333Y-44063855D02*
X38233333Y-44635283D01*
X38233333Y-44635283D02*
X38195238Y-44749569D01*
X38195238Y-44749569D02*
X38119047Y-44825760D01*
X38119047Y-44825760D02*
X38004762Y-44863855D01*
X38004762Y-44863855D02*
X37928571Y-44863855D01*
X38538095Y-44063855D02*
X39033333Y-44063855D01*
X39033333Y-44063855D02*
X38766667Y-44368617D01*
X38766667Y-44368617D02*
X38880952Y-44368617D01*
X38880952Y-44368617D02*
X38957143Y-44406712D01*
X38957143Y-44406712D02*
X38995238Y-44444807D01*
X38995238Y-44444807D02*
X39033333Y-44520998D01*
X39033333Y-44520998D02*
X39033333Y-44711474D01*
X39033333Y-44711474D02*
X38995238Y-44787664D01*
X38995238Y-44787664D02*
X38957143Y-44825760D01*
X38957143Y-44825760D02*
X38880952Y-44863855D01*
X38880952Y-44863855D02*
X38652381Y-44863855D01*
X38652381Y-44863855D02*
X38576190Y-44825760D01*
X38576190Y-44825760D02*
X38538095Y-44787664D01*
X2333333Y-28063855D02*
X2333333Y-28635283D01*
X2333333Y-28635283D02*
X2295238Y-28749569D01*
X2295238Y-28749569D02*
X2219047Y-28825760D01*
X2219047Y-28825760D02*
X2104762Y-28863855D01*
X2104762Y-28863855D02*
X2028571Y-28863855D01*
X2714286Y-28863855D02*
X2714286Y-28063855D01*
X2714286Y-28063855D02*
X3019048Y-28063855D01*
X3019048Y-28063855D02*
X3095238Y-28101950D01*
X3095238Y-28101950D02*
X3133333Y-28140045D01*
X3133333Y-28140045D02*
X3171429Y-28216236D01*
X3171429Y-28216236D02*
X3171429Y-28330521D01*
X3171429Y-28330521D02*
X3133333Y-28406712D01*
X3133333Y-28406712D02*
X3095238Y-28444807D01*
X3095238Y-28444807D02*
X3019048Y-28482902D01*
X3019048Y-28482902D02*
X2714286Y-28482902D01*
X3933333Y-28863855D02*
X3476190Y-28863855D01*
X3704762Y-28863855D02*
X3704762Y-28063855D01*
X3704762Y-28063855D02*
X3628571Y-28178140D01*
X3628571Y-28178140D02*
X3552381Y-28254331D01*
X3552381Y-28254331D02*
X3476190Y-28292426D01*
X14990476Y-26063855D02*
X15447619Y-26063855D01*
X15219047Y-26863855D02*
X15219047Y-26063855D01*
X15714286Y-26863855D02*
X15714286Y-26063855D01*
X15714286Y-26063855D02*
X16019048Y-26063855D01*
X16019048Y-26063855D02*
X16095238Y-26101950D01*
X16095238Y-26101950D02*
X16133333Y-26140045D01*
X16133333Y-26140045D02*
X16171429Y-26216236D01*
X16171429Y-26216236D02*
X16171429Y-26330521D01*
X16171429Y-26330521D02*
X16133333Y-26406712D01*
X16133333Y-26406712D02*
X16095238Y-26444807D01*
X16095238Y-26444807D02*
X16019048Y-26482902D01*
X16019048Y-26482902D02*
X15714286Y-26482902D01*
X16476190Y-26140045D02*
X16514286Y-26101950D01*
X16514286Y-26101950D02*
X16590476Y-26063855D01*
X16590476Y-26063855D02*
X16780952Y-26063855D01*
X16780952Y-26063855D02*
X16857143Y-26101950D01*
X16857143Y-26101950D02*
X16895238Y-26140045D01*
X16895238Y-26140045D02*
X16933333Y-26216236D01*
X16933333Y-26216236D02*
X16933333Y-26292426D01*
X16933333Y-26292426D02*
X16895238Y-26406712D01*
X16895238Y-26406712D02*
X16438095Y-26863855D01*
X16438095Y-26863855D02*
X16933333Y-26863855D01*
X48990476Y-42063855D02*
X49447619Y-42063855D01*
X49219047Y-42863855D02*
X49219047Y-42063855D01*
X49714286Y-42863855D02*
X49714286Y-42063855D01*
X49714286Y-42063855D02*
X50019048Y-42063855D01*
X50019048Y-42063855D02*
X50095238Y-42101950D01*
X50095238Y-42101950D02*
X50133333Y-42140045D01*
X50133333Y-42140045D02*
X50171429Y-42216236D01*
X50171429Y-42216236D02*
X50171429Y-42330521D01*
X50171429Y-42330521D02*
X50133333Y-42406712D01*
X50133333Y-42406712D02*
X50095238Y-42444807D01*
X50095238Y-42444807D02*
X50019048Y-42482902D01*
X50019048Y-42482902D02*
X49714286Y-42482902D01*
X50438095Y-42063855D02*
X50971429Y-42063855D01*
X50971429Y-42063855D02*
X50628571Y-42863855D01*
%TO.C,C2*%
X23738748Y-34765000D02*
X24261252Y-34765000D01*
X23738748Y-36235000D02*
X24261252Y-36235000D01*
%TO.C,R3*%
X38772936Y-32265000D02*
X39227064Y-32265000D01*
X38772936Y-33735000D02*
X39227064Y-33735000D01*
%TO.C,TP8*%
X50950000Y-50000000D02*
G75*
G02*
X49050000Y-50000000I-950000J0D01*
G01*
X49050000Y-50000000D02*
G75*
G02*
X50950000Y-50000000I950000J0D01*
G01*
%TO.C,TP5*%
X56950000Y-45000000D02*
G75*
G02*
X55050000Y-45000000I-950000J0D01*
G01*
X55050000Y-45000000D02*
G75*
G02*
X56950000Y-45000000I950000J0D01*
G01*
%TO.C,J2*%
X26670000Y-26100000D02*
X28000000Y-26100000D01*
X26670000Y-27430000D02*
X26670000Y-26100000D01*
X29270000Y-26100000D02*
X57270000Y-26100000D01*
X29270000Y-28760000D02*
X29270000Y-26100000D01*
X29270000Y-28760000D02*
X57270000Y-28760000D01*
X57270000Y-28760000D02*
X57270000Y-26100000D01*
%TO.C,C3*%
X24738748Y-38265000D02*
X25261252Y-38265000D01*
X24738748Y-39735000D02*
X25261252Y-39735000D01*
%TO.C,TP1*%
X8950000Y-23000000D02*
G75*
G02*
X7050000Y-23000000I-950000J0D01*
G01*
X7050000Y-23000000D02*
G75*
G02*
X8950000Y-23000000I950000J0D01*
G01*
%TO.C,J1*%
X26670000Y-3240000D02*
X28000000Y-3240000D01*
X26670000Y-4570000D02*
X26670000Y-3240000D01*
X29270000Y-3240000D02*
X57270000Y-3240000D01*
X29270000Y-5900000D02*
X29270000Y-3240000D01*
X29270000Y-5900000D02*
X57270000Y-5900000D01*
X57270000Y-5900000D02*
X57270000Y-3240000D01*
%TO.C,TP4*%
X8950000Y-17000000D02*
G75*
G02*
X7050000Y-17000000I-950000J0D01*
G01*
X7050000Y-17000000D02*
G75*
G02*
X8950000Y-17000000I950000J0D01*
G01*
%TO.C,R4*%
X27772936Y-48265000D02*
X28227064Y-48265000D01*
X27772936Y-49735000D02*
X28227064Y-49735000D01*
%TO.C,TP6*%
X62950000Y-45000000D02*
G75*
G02*
X61050000Y-45000000I-950000J0D01*
G01*
X61050000Y-45000000D02*
G75*
G02*
X62950000Y-45000000I950000J0D01*
G01*
%TO.C,D1*%
X52760000Y-33420000D02*
X50600000Y-33420000D01*
X52760000Y-33420000D02*
X52760000Y-34350000D01*
X52760000Y-36580000D02*
X51300000Y-36580000D01*
X52760000Y-36580000D02*
X52760000Y-35650000D01*
%TO.C,S1*%
X22500000Y-42000000D02*
G75*
G02*
X5500000Y-42000000I-8500000J0D01*
G01*
X5500000Y-42000000D02*
G75*
G02*
X22500000Y-42000000I8500000J0D01*
G01*
%TO.C,TP3*%
X24950000Y-23000000D02*
G75*
G02*
X23050000Y-23000000I-950000J0D01*
G01*
X23050000Y-23000000D02*
G75*
G02*
X24950000Y-23000000I950000J0D01*
G01*
%TO.C,R2*%
X34772936Y-38265000D02*
X35227064Y-38265000D01*
X34772936Y-39735000D02*
X35227064Y-39735000D01*
%TO.C,C1*%
X45738748Y-35265000D02*
X46261252Y-35265000D01*
X45738748Y-36735000D02*
X46261252Y-36735000D01*
%TO.C,R1*%
X29772936Y-34265000D02*
X30227064Y-34265000D01*
X29772936Y-35735000D02*
X30227064Y-35735000D01*
%TO.C,J3*%
X33150000Y-45250000D02*
X33150000Y-46500000D01*
X33440000Y-45540000D02*
X33440000Y-51510000D01*
X33440000Y-51510000D02*
X43560000Y-51510000D01*
X33450000Y-45550000D02*
X33450000Y-46300000D01*
X33450000Y-46300000D02*
X35250000Y-46300000D01*
X33450000Y-47800000D02*
X34200000Y-47800000D01*
X34200000Y-47800000D02*
X34200000Y-50750000D01*
X34200000Y-50750000D02*
X38500000Y-50750000D01*
X34400000Y-45250000D02*
X33150000Y-45250000D01*
X35250000Y-45550000D02*
X33450000Y-45550000D01*
X35250000Y-46300000D02*
X35250000Y-45550000D01*
X36750000Y-45550000D02*
X36750000Y-46300000D01*
X36750000Y-46300000D02*
X40250000Y-46300000D01*
X40250000Y-45550000D02*
X36750000Y-45550000D01*
X40250000Y-46300000D02*
X40250000Y-45550000D01*
X41750000Y-45550000D02*
X41750000Y-46300000D01*
X41750000Y-46300000D02*
X43550000Y-46300000D01*
X42800000Y-47800000D02*
X42800000Y-50750000D01*
X42800000Y-50750000D02*
X38500000Y-50750000D01*
X43550000Y-45550000D02*
X41750000Y-45550000D01*
X43550000Y-46300000D02*
X43550000Y-45550000D01*
X43550000Y-47800000D02*
X42800000Y-47800000D01*
X43560000Y-45540000D02*
X33440000Y-45540000D01*
X43560000Y-51510000D02*
X43560000Y-45540000D01*
%TO.C,JP1*%
X1670000Y-29670000D02*
X3000000Y-29670000D01*
X1670000Y-31000000D02*
X1670000Y-29670000D01*
X1670000Y-32270000D02*
X1670000Y-34870000D01*
X1670000Y-32270000D02*
X4330000Y-32270000D01*
X1670000Y-34870000D02*
X4330000Y-34870000D01*
X4330000Y-32270000D02*
X4330000Y-34870000D01*
%TO.C,TP2*%
X16950000Y-23000000D02*
G75*
G02*
X15050000Y-23000000I-950000J0D01*
G01*
X15050000Y-23000000D02*
G75*
G02*
X16950000Y-23000000I950000J0D01*
G01*
%TO.C,TP7*%
X50950000Y-45000000D02*
G75*
G02*
X49050000Y-45000000I-950000J0D01*
G01*
X49050000Y-45000000D02*
G75*
G02*
X50950000Y-45000000I950000J0D01*
G01*
%TD*%
%LPC*%
D12*
%TO.C,C2*%
X23050000Y-35500000D03*
X24950000Y-35500000D03*
%TD*%
D13*
%TO.C,R3*%
X38087500Y-33000000D03*
X39912500Y-33000000D03*
%TD*%
D14*
%TO.C,TP8*%
X50000000Y-50000000D03*
%TD*%
%TO.C,TP5*%
X56000000Y-45000000D03*
%TD*%
D15*
%TO.C,J2*%
X28000000Y-27430000D03*
D16*
X30540000Y-27430000D03*
X33080000Y-27430000D03*
X35620000Y-27430000D03*
X38160000Y-27430000D03*
X40700000Y-27430000D03*
X43240000Y-27430000D03*
X45780000Y-27430000D03*
X48320000Y-27430000D03*
X50860000Y-27430000D03*
X53400000Y-27430000D03*
X55940000Y-27430000D03*
%TD*%
D12*
%TO.C,C3*%
X24050000Y-39000000D03*
X25950000Y-39000000D03*
%TD*%
D17*
%TO.C,H3*%
X65000000Y-51000000D03*
%TD*%
D14*
%TO.C,TP1*%
X8000000Y-23000000D03*
%TD*%
D15*
%TO.C,J1*%
X28000000Y-4570000D03*
D16*
X30540000Y-4570000D03*
X33080000Y-4570000D03*
X35620000Y-4570000D03*
X38160000Y-4570000D03*
X40700000Y-4570000D03*
X43240000Y-4570000D03*
X45780000Y-4570000D03*
X48320000Y-4570000D03*
X50860000Y-4570000D03*
X53400000Y-4570000D03*
X55940000Y-4570000D03*
%TD*%
D14*
%TO.C,TP4*%
X8000000Y-17000000D03*
%TD*%
D13*
%TO.C,R4*%
X27087500Y-49000000D03*
X28912500Y-49000000D03*
%TD*%
D14*
%TO.C,TP6*%
X62000000Y-45000000D03*
%TD*%
D17*
%TO.C,H1*%
X3000000Y-3000000D03*
%TD*%
D18*
%TO.C,D1*%
X51000000Y-34050000D03*
X51000000Y-35950000D03*
X53000000Y-35000000D03*
%TD*%
D19*
%TO.C,S1*%
X10640000Y-38640000D03*
D20*
X9250000Y-42000000D03*
X10640000Y-45360000D03*
X17360000Y-45360000D03*
X18750000Y-42000000D03*
X17360000Y-38640000D03*
%TD*%
D14*
%TO.C,TP3*%
X24000000Y-23000000D03*
%TD*%
D13*
%TO.C,R2*%
X34087500Y-39000000D03*
X35912500Y-39000000D03*
%TD*%
D12*
%TO.C,C1*%
X45050000Y-36000000D03*
X46950000Y-36000000D03*
%TD*%
D13*
%TO.C,R1*%
X29087500Y-35000000D03*
X30912500Y-35000000D03*
%TD*%
D21*
%TO.C,J3*%
X36000000Y-48000000D03*
D22*
X38500000Y-48000000D03*
X41000000Y-48000000D03*
%TD*%
D15*
%TO.C,JP1*%
X3000000Y-31000000D03*
D16*
X3000000Y-33540000D03*
%TD*%
D17*
%TO.C,H2*%
X3000000Y-51000000D03*
%TD*%
D14*
%TO.C,TP2*%
X16000000Y-23000000D03*
%TD*%
%TO.C,TP7*%
X50000000Y-45000000D03*
%TD*%
%LPD*%
M02*
