M48
; DRILL file KiCad 10.0.6 date 2026-09-22T15:43:02
; FORMAT={-:-/ absolute / metric / decimal}
; #@! TF.CreationDate,2026-09-22T15:43:02-04:00
; #@! TF.GenerationSoftware,Kicad,Pcbnew,10.0.6
; #@! TF.FileFunction,Plated,1,2,PTH
FMAT,2
METRIC
; #@! TA.AperFunction,Plated,PTH,ViaDrill
T1C0.300
; #@! TA.AperFunction,Plated,PTH,ComponentDrill
T2C0.950
; #@! TA.AperFunction,Plated,PTH,ComponentDrill
T3C1.000
; #@! TA.AperFunction,Plated,PTH,ComponentDrill
T4C1.200
%
G90
G05
T1
X8.0Y-19.0
X8.0Y-25.0
X15.0Y-59.0
X16.0Y-25.0
X24.0Y-25.0
X26.0Y-36.5
X26.7Y-39.8
X37.0Y-40.0
X39.95Y-31.5
X47.7Y-35.2
X49.5Y-34.05
X51.0Y-37.0
X53.5Y-47.0
X57.0Y-49.0
X57.0Y-58.0
T2
X13.0Y-37.0
X15.5Y-37.0
X18.0Y-37.0
T3
X7.0Y-32.0
X7.0Y-34.54
X28.0Y-4.57
X28.0Y-27.43
X30.54Y-4.57
X30.54Y-27.43
X33.08Y-4.57
X33.08Y-27.43
X35.62Y-4.57
X35.62Y-27.43
X38.16Y-4.57
X38.16Y-27.43
X40.7Y-4.57
X40.7Y-27.43
X43.24Y-4.57
X43.24Y-27.43
X45.78Y-4.57
X45.78Y-27.43
X48.32Y-4.57
X48.32Y-27.43
X50.86Y-4.57
X50.86Y-27.43
X53.4Y-4.57
X53.4Y-27.43
X55.94Y-4.57
X55.94Y-27.43
T4
X29.25Y-56.0
X30.64Y-52.64
X30.64Y-59.36
X37.36Y-52.64
X37.36Y-59.36
X38.75Y-56.0
M30
