%TF.GenerationSoftware,KiCad,Pcbnew,10.0.6*%
%TF.CreationDate,2026-09-22T16:11:46-04:00*%
%TF.ProjectId,carrier,63617272-6965-4722-9e6b-696361645f70,A*%
%TF.SameCoordinates,Original*%
%TF.FileFunction,Soldermask,Top*%
%TF.FilePolarity,Negative*%
%FSLAX46Y46*%
G04 Gerber Fmt 4.6, Leading zero omitted, Abs format (unit mm)*
G04 Created by KiCad (PCBNEW 10.0.6) date 2026-09-22 16:11:46*
%MOMM*%
%LPD*%
G01*
G04 APERTURE LIST*
G04 Aperture macros list*
%AMRoundRect*
0 Rectangle with rounded corners*
0 $1 Rounding radius*
0 $2 $3 $4 $5 $6 $7 $8 $9 X,Y pos of 4 corners*
0 Add a 4 corners polygon primitive as box body*
4,1,4,$2,$3,$4,$5,$6,$7,$8,$9,$2,$3,0*
0 Add four circle primitives for the rounded corners*
1,1,$1+$1,$2,$3*
1,1,$1+$1,$4,$5*
1,1,$1+$1,$6,$7*
1,1,$1+$1,$8,$9*
0 Add four rect primitives between the rounded corners*
20,1,$1+$1,$2,$3,$4,$5,0*
20,1,$1+$1,$4,$5,$6,$7,0*
20,1,$1+$1,$6,$7,$8,$9,0*
20,1,$1+$1,$8,$9,$2,$3,0*%
G04 Aperture macros list end*
%ADD10RoundRect,0.250000X-0.250000X-0.475000X0.250000X-0.475000X0.250000X0.475000X-0.250000X0.475000X0*%
%ADD11RoundRect,0.250000X-0.262500X-0.450000X0.262500X-0.450000X0.262500X0.450000X-0.262500X0.450000X0*%
%ADD12C,1.500000*%
%ADD13R,1.700000X1.700000*%
%ADD14O,1.700000X1.700000*%
%ADD15C,2.700000*%
%ADD16R,0.900000X0.800000*%
%ADD17R,2.400000X2.400000*%
%ADD18C,2.400000*%
%ADD19RoundRect,0.250000X-0.600000X-0.725000X0.600000X-0.725000X0.600000X0.725000X-0.600000X0.725000X0*%
%ADD20O,1.700000X1.950000*%
G04 APERTURE END LIST*
D10*
%TO.C,C2*%
X23050000Y-35500000D03*
X24950000Y-35500000D03*
%TD*%
D11*
%TO.C,R3*%
X38087500Y-33000000D03*
X39912500Y-33000000D03*
%TD*%
D12*
%TO.C,TP8*%
X50000000Y-50000000D03*
%TD*%
%TO.C,TP5*%
X56000000Y-45000000D03*
%TD*%
D13*
%TO.C,J2*%
X28000000Y-27430000D03*
D14*
X30540000Y-27430000D03*
X33080000Y-27430000D03*
X35620000Y-27430000D03*
X38160000Y-27430000D03*
X40700000Y-27430000D03*
X43240000Y-27430000D03*
X45780000Y-27430000D03*
X48320000Y-27430000D03*
X50860000Y-27430000D03*
X53400000Y-27430000D03*
X55940000Y-27430000D03*
%TD*%
D10*
%TO.C,C3*%
X24050000Y-39000000D03*
X25950000Y-39000000D03*
%TD*%
D15*
%TO.C,H3*%
X65000000Y-51000000D03*
%TD*%
D12*
%TO.C,TP1*%
X8000000Y-23000000D03*
%TD*%
D13*
%TO.C,J1*%
X28000000Y-4570000D03*
D14*
X30540000Y-4570000D03*
X33080000Y-4570000D03*
X35620000Y-4570000D03*
X38160000Y-4570000D03*
X40700000Y-4570000D03*
X43240000Y-4570000D03*
X45780000Y-4570000D03*
X48320000Y-4570000D03*
X50860000Y-4570000D03*
X53400000Y-4570000D03*
X55940000Y-4570000D03*
%TD*%
D12*
%TO.C,TP4*%
X8000000Y-17000000D03*
%TD*%
D11*
%TO.C,R4*%
X27087500Y-49000000D03*
X28912500Y-49000000D03*
%TD*%
D12*
%TO.C,TP6*%
X62000000Y-45000000D03*
%TD*%
D15*
%TO.C,H1*%
X3000000Y-3000000D03*
%TD*%
D16*
%TO.C,D1*%
X51000000Y-34050000D03*
X51000000Y-35950000D03*
X53000000Y-35000000D03*
%TD*%
D17*
%TO.C,S1*%
X10640000Y-38640000D03*
D18*
X9250000Y-42000000D03*
X10640000Y-45360000D03*
X17360000Y-45360000D03*
X18750000Y-42000000D03*
X17360000Y-38640000D03*
%TD*%
D12*
%TO.C,TP3*%
X24000000Y-23000000D03*
%TD*%
D11*
%TO.C,R2*%
X34087500Y-39000000D03*
X35912500Y-39000000D03*
%TD*%
D10*
%TO.C,C1*%
X45050000Y-36000000D03*
X46950000Y-36000000D03*
%TD*%
D11*
%TO.C,R1*%
X29087500Y-35000000D03*
X30912500Y-35000000D03*
%TD*%
D19*
%TO.C,J3*%
X36000000Y-48000000D03*
D20*
X38500000Y-48000000D03*
X41000000Y-48000000D03*
%TD*%
D13*
%TO.C,JP1*%
X3000000Y-31000000D03*
D14*
X3000000Y-33540000D03*
%TD*%
D15*
%TO.C,H2*%
X3000000Y-51000000D03*
%TD*%
D12*
%TO.C,TP2*%
X16000000Y-23000000D03*
%TD*%
%TO.C,TP7*%
X50000000Y-45000000D03*
%TD*%
M02*
